<svg width="177" height="182" viewBox="0 0 177 182" fill="none" xmlns="http://www.w3.org/2000/svg">
<g filter="url(#filter0_f_87_1573)">
<path fill-rule="evenodd" clip-rule="evenodd" d="M74.7986 6.38091C86.7074 5.23336 97.8164 11.3659 109.329 14.621C121.288 18.0021 135.983 16.8991 144.387 26.056C152.916 35.3507 148.645 50.6753 153.21 62.4364C157.571 73.6688 170.612 81.6087 170.629 93.6578C170.646 105.687 160.887 115.528 153.298 124.859C146.628 133.06 137.331 138.183 129.063 144.768C121.159 151.063 114.101 158.081 105.316 163.074C95.2877 168.773 85.2216 177.055 73.7176 176.222C62.2582 175.393 54.5337 164.25 44.489 158.671C34.2014 152.957 20.5981 152.06 13.4208 142.733C6.255 133.421 5.99963 120.415 6.00706 108.664C6.01389 97.8662 11.8118 88.175 13.4621 77.5039C15.2268 66.0926 10.83 53.6129 16.1087 43.3436C21.4275 32.9964 32.6308 27.2628 42.4744 21.0633C52.5989 14.6869 62.8891 7.52854 74.7986 6.38091Z" fill="url(#paint0_radial_87_1573)" fill-opacity="0.55"/>
<path fill-rule="evenodd" clip-rule="evenodd" d="M74.7986 6.38091C86.7074 5.23336 97.8164 11.3659 109.329 14.621C121.288 18.0021 135.983 16.8991 144.387 26.056C152.916 35.3507 148.645 50.6753 153.21 62.4364C157.571 73.6688 170.612 81.6087 170.629 93.6578C170.646 105.687 160.887 115.528 153.298 124.859C146.628 133.06 137.331 138.183 129.063 144.768C121.159 151.063 114.101 158.081 105.316 163.074C95.2877 168.773 85.2216 177.055 73.7176 176.222C62.2582 175.393 54.5337 164.25 44.489 158.671C34.2014 152.957 20.5981 152.06 13.4208 142.733C6.255 133.421 5.99963 120.415 6.00706 108.664C6.01389 97.8662 11.8118 88.175 13.4621 77.5039C15.2268 66.0926 10.83 53.6129 16.1087 43.3436C21.4275 32.9964 32.6308 27.2628 42.4744 21.0633C52.5989 14.6869 62.8891 7.52854 74.7986 6.38091Z" stroke="white" stroke-width="3"/>
</g>
<defs>
<filter id="filter0_f_87_1573" x="0.506836" y="0.73999" width="175.622" height="181.041" filterUnits="userSpaceOnUse" color-interpolation-filters="sRGB">
<feFlood flood-opacity="0" result="BackgroundImageFix"/>
<feBlend mode="normal" in="SourceGraphic" in2="BackgroundImageFix" result="shape"/>
<feGaussianBlur stdDeviation="2" result="effect1_foregroundBlur_87_1573"/>
</filter>
<radialGradient id="paint0_radial_87_1573" cx="0" cy="0" r="1" gradientUnits="userSpaceOnUse" gradientTransform="translate(86.8739 90.2426) rotate(84.4758) scale(84.6346 83.1124)">
<stop stop-color="white"/>
<stop offset="0.549" stop-color="#9489F0"/>
<stop offset="1" stop-color="#1800DE"/>
</radialGradient>
</defs>
</svg>
