<svg width="107" height="111" viewBox="0 0 107 111" fill="none" xmlns="http://www.w3.org/2000/svg">
<g filter="url(#filter0_f_87_1569)">
<path fill-rule="evenodd" clip-rule="evenodd" d="M8.37748 60.9354C6.54655 48.7819 4.2432 35.8523 10.907 25.5634C18.1488 14.3822 30.7303 7.57361 43.9112 6.0717C57.3035 4.5457 70.5738 9.09004 81.1135 17.5637C91.8236 26.1744 101.304 38.1906 101.008 51.9765C100.73 64.9426 88.3918 73.0536 79.7164 82.6303C71.7543 91.4194 65.1278 102.777 53.4304 104.497C41.3822 106.268 29.598 99.7891 20.809 91.2911C12.6562 83.4081 10.0717 72.1816 8.37748 60.9354Z" fill="url(#paint0_radial_87_1569)" fill-opacity="0.55"/>
<path fill-rule="evenodd" clip-rule="evenodd" d="M8.37748 60.9354C6.54655 48.7819 4.2432 35.8523 10.907 25.5634C18.1488 14.3822 30.7303 7.57361 43.9112 6.0717C57.3035 4.5457 70.5738 9.09004 81.1135 17.5637C91.8236 26.1744 101.304 38.1906 101.008 51.9765C100.73 64.9426 88.3918 73.0536 79.7164 82.6303C71.7543 91.4194 65.1278 102.777 53.4304 104.497C41.3822 106.268 29.598 99.7891 20.809 91.2911C12.6562 83.4081 10.0717 72.1816 8.37748 60.9354Z" stroke="white" stroke-width="3"/>
</g>
<defs>
<filter id="filter0_f_87_1569" x="0.956055" y="0.279541" width="105.56" height="110.011" filterUnits="userSpaceOnUse" color-interpolation-filters="sRGB">
<feFlood flood-opacity="0" result="BackgroundImageFix"/>
<feBlend mode="normal" in="SourceGraphic" in2="BackgroundImageFix" result="shape"/>
<feGaussianBlur stdDeviation="2" result="effect1_foregroundBlur_87_1569"/>
</filter>
<radialGradient id="paint0_radial_87_1569" cx="0" cy="0" r="1" gradientUnits="userSpaceOnUse" gradientTransform="translate(54.4033 54.7435) rotate(-5.5242) scale(46.8591 49.4624)">
<stop stop-color="white"/>
<stop offset="0.549" stop-color="#9489F0"/>
<stop offset="1" stop-color="#1800DE"/>
</radialGradient>
</defs>
</svg>
