<svg width="432" height="319" viewBox="0 0 432 319" fill="none" xmlns="http://www.w3.org/2000/svg">
<g filter="url(#filter0_f_102_474)">
<path d="M96.6342 311.323C47.6834 311.323 8.00089 271.64 8.00089 222.689C8.00089 173.739 47.6834 134.056 96.6342 134.056C145.585 134.056 185.268 173.739 185.268 222.689C185.268 271.64 145.585 311.323 96.6342 311.323Z" fill="white" fill-opacity="0.1"/>
<path fill-rule="evenodd" clip-rule="evenodd" d="M12.9555 222.689C12.9555 268.904 50.4197 306.368 96.6342 306.368C142.849 306.368 180.313 268.904 180.313 222.689C180.313 176.475 142.849 139.011 96.6342 139.011C50.4197 139.011 12.9555 176.475 12.9555 222.689ZM8.00089 222.689C8.00089 271.64 47.6834 311.323 96.6342 311.323C145.585 311.323 185.268 271.64 185.268 222.689C185.268 173.739 145.585 134.056 96.6342 134.056C47.6834 134.056 8.00089 173.739 8.00089 222.689Z" fill="#1800DE"/>
<path d="M335.636 298.991C288.926 296.97 252.698 257.466 254.719 210.755C256.74 164.045 296.244 127.817 342.955 129.838C389.665 131.859 425.893 171.363 423.872 218.074C421.851 264.784 382.346 301.012 335.636 298.991Z" fill="white" fill-opacity="0.1"/>
<path fill-rule="evenodd" clip-rule="evenodd" d="M259.669 210.969C257.766 254.946 291.874 292.139 335.85 294.041C379.827 295.944 417.019 261.836 418.922 217.86C420.825 173.883 386.717 136.691 342.74 134.788C298.764 132.885 261.571 166.993 259.669 210.969ZM254.719 210.755C252.698 257.466 288.926 296.97 335.636 298.991C382.346 301.012 421.851 264.784 423.872 218.074C425.893 171.363 389.665 131.859 342.955 129.838C296.244 127.817 256.74 164.045 254.719 210.755Z" fill="#1800DE"/>
<path d="M220.952 258.143C151.877 258.143 95.8804 202.147 95.8804 133.072C95.8804 63.9964 151.877 8 220.952 8C290.027 8 346.023 63.9964 346.023 133.072C346.023 202.147 290.027 258.143 220.952 258.143Z" fill="white" fill-opacity="0.1"/>
<path fill-rule="evenodd" clip-rule="evenodd" d="M100.835 133.072C100.835 199.41 154.613 253.188 220.952 253.188C287.291 253.188 341.069 199.41 341.069 133.072C341.069 66.7328 287.291 12.9546 220.952 12.9546C154.613 12.9546 100.835 66.7328 100.835 133.072ZM95.8804 133.072C95.8804 202.147 151.877 258.143 220.952 258.143C290.027 258.143 346.023 202.147 346.023 133.072C346.023 63.9964 290.027 8 220.952 8C151.877 8 95.8804 63.9964 95.8804 133.072Z" fill="#1800DE"/>
</g>
<defs>
<filter id="filter0_f_102_474" x="0.5" y="0.5" width="430.953" height="318.323" filterUnits="userSpaceOnUse" color-interpolation-filters="sRGB">
<feFlood flood-opacity="0" result="BackgroundImageFix"/>
<feBlend mode="normal" in="SourceGraphic" in2="BackgroundImageFix" result="shape"/>
<feGaussianBlur stdDeviation="3.75" result="effect1_foregroundBlur_102_474"/>
</filter>
</defs>
</svg>
