<svg width="417" height="426" viewBox="0 0 417 426" fill="none" xmlns="http://www.w3.org/2000/svg">
<g filter="url(#filter0_f_102_434)">
<path d="M159.523 267.919C159.523 309.761 125.603 343.681 83.7613 343.681C41.9195 343.681 8 309.761 8 267.919C8 226.077 41.9195 192.158 83.7613 192.158C125.603 192.158 159.523 226.077 159.523 267.919Z" fill="white" fill-opacity="0.05"/>
<path fill-rule="evenodd" clip-rule="evenodd" d="M83.7613 338.726C122.867 338.726 154.568 307.025 154.568 267.919C154.568 228.814 122.867 197.113 83.7613 197.113C44.6559 197.113 12.9546 228.814 12.9546 267.919C12.9546 307.025 44.6559 338.726 83.7613 338.726ZM83.7613 343.681C125.603 343.681 159.523 309.761 159.523 267.919C159.523 226.077 125.603 192.158 83.7613 192.158C41.9195 192.158 8 226.077 8 267.919C8 309.761 41.9195 343.681 83.7613 343.681Z" fill="#1800DE"/>
<path d="M408.952 87.258C408.952 131.031 373.467 166.516 329.694 166.516C285.921 166.516 250.436 131.031 250.436 87.258C250.436 43.4851 285.921 8.00003 329.694 8.00003C373.467 8.00003 408.952 43.4851 408.952 87.258Z" fill="white" fill-opacity="0.05"/>
<path fill-rule="evenodd" clip-rule="evenodd" d="M329.694 161.561C370.73 161.561 403.997 128.295 403.997 87.258C403.997 46.2214 370.73 12.9546 329.694 12.9546C288.657 12.9546 255.39 46.2214 255.39 87.258C255.39 128.295 288.657 161.561 329.694 161.561ZM329.694 166.516C373.467 166.516 408.952 131.031 408.952 87.258C408.952 43.4851 373.467 8.00003 329.694 8.00003C285.921 8.00003 250.436 43.4851 250.436 87.258C250.436 131.031 285.921 166.516 329.694 166.516Z" fill="#1800DE"/>
<path d="M408.952 270.25C408.952 352.003 342.679 418.276 260.926 418.276C179.174 418.276 112.9 352.003 112.9 270.25C112.9 188.498 179.174 122.224 260.926 122.224C342.679 122.224 408.952 188.498 408.952 270.25Z" fill="white" fill-opacity="0.05"/>
<path fill-rule="evenodd" clip-rule="evenodd" d="M260.926 413.322C339.943 413.322 403.998 349.267 403.998 270.25C403.998 191.234 339.943 127.179 260.926 127.179C181.91 127.179 117.855 191.234 117.855 270.25C117.855 349.267 181.91 413.322 260.926 413.322ZM260.926 418.276C342.679 418.276 408.952 352.003 408.952 270.25C408.952 188.498 342.679 122.224 260.926 122.224C179.174 122.224 112.9 188.498 112.9 270.25C112.9 352.003 179.174 418.276 260.926 418.276Z" fill="#1800DE"/>
</g>
<defs>
<filter id="filter0_f_102_434" x="0.5" y="0.500031" width="415.953" height="425.276" filterUnits="userSpaceOnUse" color-interpolation-filters="sRGB">
<feFlood flood-opacity="0" result="BackgroundImageFix"/>
<feBlend mode="normal" in="SourceGraphic" in2="BackgroundImageFix" result="shape"/>
<feGaussianBlur stdDeviation="3.75" result="effect1_foregroundBlur_102_434"/>
</filter>
</defs>
</svg>
