<svg width="559" height="547" viewBox="0 0 559 547" fill="none" xmlns="http://www.w3.org/2000/svg">
<g filter="url(#filter0_f_102_460)">
<path d="M351.953 338.072C407.323 338.072 452.208 382.958 452.208 438.328C452.208 493.698 407.323 538.583 351.953 538.583C296.583 538.583 251.697 493.698 251.697 438.328C251.697 382.958 296.583 338.072 351.953 338.072Z" fill="white" fill-opacity="0.05"/>
<path fill-rule="evenodd" clip-rule="evenodd" d="M447.254 438.328C447.254 385.695 404.586 343.027 351.953 343.027C299.32 343.027 256.652 385.695 256.652 438.328C256.652 490.961 299.32 533.629 351.953 533.629C404.586 533.629 447.254 490.961 447.254 438.328ZM452.208 438.328C452.208 382.958 407.323 338.072 351.953 338.072C296.583 338.072 251.697 382.958 251.697 438.328C251.697 493.698 296.583 538.583 351.953 538.583C407.323 538.583 452.208 493.698 452.208 438.328Z" fill="#1800DE"/>
<path d="M112.881 8.00006C170.806 8.00006 217.764 54.9577 217.764 112.883C217.764 170.808 170.806 217.766 112.881 217.766C54.9557 217.766 7.99805 170.808 7.99805 112.883C7.99805 54.9577 54.9557 8.00006 112.881 8.00006Z" fill="white" fill-opacity="0.05"/>
<path fill-rule="evenodd" clip-rule="evenodd" d="M212.809 112.883C212.809 57.694 168.07 12.9547 112.881 12.9547C57.692 12.9547 12.9527 57.694 12.9527 112.883C12.9527 168.072 57.692 212.811 112.881 212.811C168.07 212.811 212.809 168.072 212.809 112.883ZM217.764 112.883C217.764 54.9577 170.806 8.00006 112.881 8.00006C54.9557 8.00006 7.99805 54.9577 7.99805 112.883C7.99805 170.808 54.9557 217.766 112.881 217.766C170.806 217.766 217.764 170.808 217.764 112.883Z" fill="#1800DE"/>
<path d="M355.038 8.00001C463.222 8.00001 550.922 95.7003 550.922 203.884C550.922 312.068 463.222 399.768 355.038 399.768C246.855 399.768 159.154 312.068 159.154 203.884C159.154 95.7003 246.855 8.00002 355.038 8.00001Z" fill="white" fill-opacity="0.05"/>
<path fill-rule="evenodd" clip-rule="evenodd" d="M545.968 203.884C545.968 98.4366 460.486 12.9546 355.038 12.9546C249.591 12.9546 164.109 98.4366 164.109 203.884C164.109 309.331 249.591 394.814 355.038 394.814C460.486 394.814 545.968 309.331 545.968 203.884ZM550.922 203.884C550.922 95.7003 463.222 8.00001 355.038 8.00001C246.855 8.00002 159.154 95.7003 159.154 203.884C159.154 312.068 246.855 399.768 355.038 399.768C463.222 399.768 550.922 312.068 550.922 203.884Z" fill="#1800DE"/>
</g>
<defs>
<filter id="filter0_f_102_460" x="0.498047" y="0.500015" width="557.924" height="545.583" filterUnits="userSpaceOnUse" color-interpolation-filters="sRGB">
<feFlood flood-opacity="0" result="BackgroundImageFix"/>
<feBlend mode="normal" in="SourceGraphic" in2="BackgroundImageFix" result="shape"/>
<feGaussianBlur stdDeviation="3.75" result="effect1_foregroundBlur_102_460"/>
</filter>
</defs>
</svg>
