<svg width="432" height="319" viewBox="0 0 432 319" fill="none" xmlns="http://www.w3.org/2000/svg">
<g filter="url(#filter0_f_102_413)">
<path d="M334.897 8C383.848 8 423.53 47.6825 423.53 96.6333C423.53 145.584 383.848 185.267 334.897 185.267C285.946 185.267 246.264 145.584 246.264 96.6333C246.264 47.6825 285.946 8 334.897 8Z" fill="white" fill-opacity="0.05"/>
<path fill-rule="evenodd" clip-rule="evenodd" d="M418.576 96.6333C418.576 50.4189 381.112 12.9546 334.897 12.9546C288.683 12.9546 251.218 50.4189 251.218 96.6333C251.218 142.848 288.683 180.312 334.897 180.312C381.112 180.312 418.576 142.848 418.576 96.6333ZM423.53 96.6333C423.53 47.6825 383.848 8 334.897 8C285.946 8 246.264 47.6825 246.264 96.6333C246.264 145.584 285.946 185.267 334.897 185.267C383.848 185.267 423.53 145.584 423.53 96.6333Z" fill="#1800DE"/>
<path d="M95.8952 20.3314C142.606 22.3524 178.834 61.857 176.813 108.567C174.792 155.278 135.287 191.506 88.5767 189.485C41.8663 187.464 5.63831 147.959 7.65927 101.249C9.68024 54.5384 49.1848 18.3105 95.8952 20.3314Z" fill="white" fill-opacity="0.05"/>
<path fill-rule="evenodd" clip-rule="evenodd" d="M171.863 108.353C173.765 64.3766 139.658 27.1841 95.6811 25.2814C51.7044 23.3787 14.5119 57.4864 12.6092 101.463C10.7066 145.44 44.8142 182.632 88.7908 184.535C132.767 186.438 169.96 152.33 171.863 108.353ZM176.813 108.567C178.834 61.857 142.606 22.3524 95.8952 20.3314C49.1848 18.3105 9.68024 54.5384 7.65927 101.249C5.63831 147.959 41.8663 187.464 88.5767 189.485C135.287 191.506 174.792 155.278 176.813 108.567Z" fill="#1800DE"/>
<path d="M210.579 61.1798C279.654 61.1798 335.651 117.176 335.651 186.251C335.651 255.326 279.654 311.323 210.579 311.323C141.504 311.323 85.5078 255.326 85.5078 186.251C85.5078 117.176 141.504 61.1798 210.579 61.1798Z" fill="white" fill-opacity="0.05"/>
<path fill-rule="evenodd" clip-rule="evenodd" d="M330.696 186.251C330.696 119.913 276.918 66.1344 210.579 66.1344C144.241 66.1344 90.4624 119.913 90.4624 186.251C90.4624 252.59 144.241 306.368 210.579 306.368C276.918 306.368 330.696 252.59 330.696 186.251ZM335.651 186.251C335.651 117.176 279.654 61.1798 210.579 61.1798C141.504 61.1798 85.5078 117.176 85.5078 186.251C85.5078 255.326 141.504 311.323 210.579 311.323C279.654 311.323 335.651 255.326 335.651 186.251Z" fill="#1800DE"/>
</g>
<defs>
<filter id="filter0_f_102_413" x="0.078125" y="0.5" width="430.953" height="318.323" filterUnits="userSpaceOnUse" color-interpolation-filters="sRGB">
<feFlood flood-opacity="0" result="BackgroundImageFix"/>
<feBlend mode="normal" in="SourceGraphic" in2="BackgroundImageFix" result="shape"/>
<feGaussianBlur stdDeviation="3.75" result="effect1_foregroundBlur_102_413"/>
</filter>
</defs>
</svg>
