<svg width="302" height="303" viewBox="0 0 302 303" fill="none" xmlns="http://www.w3.org/2000/svg">
<g clip-path="url(#clip0_87_1410)">
<path d="M53.4033 30.4623L54.7278 29.4877L65.0985 34.3107L65.1485 34.2607L63.4242 23.0903L64.7736 22.1157L66.8228 35.86C67.0227 37.2345 67.0477 38.309 66.9227 39.0587C66.7978 39.8084 66.323 40.5081 65.4733 41.1079L64.4987 41.8326L63.6991 40.733L64.5487 40.1083C65.0485 39.7584 65.3484 39.3336 65.4983 38.8588C65.6233 38.409 65.6233 37.7343 65.4983 36.8346L65.3734 35.985L53.4033 30.4123V30.4623Z" fill="white"/>
<path d="M74.7195 34.5606L68.9219 25.1895L76.1939 20.7163L76.8686 21.8159L70.7961 25.5643L75.894 33.8359L74.6945 34.5606H74.7195Z" fill="white"/>
<path d="M81.8411 25.3395L79.667 18.8422L86.6891 15.2437L91.712 25.0646L90.4625 25.6893L86.0394 17.0429L81.2913 19.4669L83.0406 24.7147C83.5654 26.2641 83.7653 27.4386 83.6903 28.2383C83.6154 29.0629 83.1655 29.6627 82.3909 30.0625C82.166 30.1875 81.9161 30.2624 81.6912 30.2874H81.5662L80.9665 29.1379C81.1414 29.1379 81.3913 29.0379 81.6662 28.913C82.141 28.6631 82.3659 28.2633 82.3409 27.6885C82.2909 27.0887 82.116 26.2891 81.8161 25.3395H81.8411Z" fill="white"/>
<path d="M103.332 14.3691L103.582 15.1938L94.0857 18.9422C94.2106 19.2421 94.5605 19.6419 95.1102 20.0668C95.4351 20.3167 95.785 20.5416 96.1848 20.7165C96.6096 20.8914 97.1094 20.9914 97.7092 20.9914C98.3089 20.9914 98.9087 20.8664 99.5084 20.6165C99.9332 20.4416 100.333 20.2417 100.708 19.9668C101.058 19.7169 101.358 19.442 101.533 19.1671C101.907 18.6673 102.132 18.2425 102.207 17.9426L102.282 17.7177L103.857 17.093C103.857 17.093 103.857 17.3179 103.832 17.4429C103.832 17.6178 103.732 17.9177 103.582 18.3425C103.432 18.7923 103.232 19.1921 103.007 19.542C102.757 19.9418 102.382 20.3417 101.857 20.7665C101.333 21.2163 100.733 21.5661 100.033 21.841C98.4089 22.4908 96.8845 22.5158 95.4851 21.916C94.0607 21.3412 93.0361 20.2417 92.4114 18.6673C91.7866 17.093 91.8116 15.5936 92.4613 14.1942C93.1111 12.7948 94.2106 11.7952 95.81 11.1705C97.4093 10.5457 98.9087 10.5207 100.333 11.0955C101.757 11.6702 102.757 12.7698 103.382 14.3441L103.332 14.3691ZM93.5609 17.7177L101.807 14.4691C101.483 13.6444 100.808 12.9697 99.7583 12.4449C98.7087 11.9201 97.5592 11.9201 96.2598 12.4449C94.9603 12.9447 94.1107 13.7444 93.7108 14.8439C93.311 15.9435 93.261 16.8931 93.5859 17.7177H93.5609Z" fill="white"/>
<path d="M117.902 15.8185L116.102 16.3433L108.006 12.9447L109.53 18.2425L108.181 18.6423L105.132 8.0467L106.481 7.67185L107.981 12.8697L112.629 5.89758L114.428 5.3728L109.805 12.3699L117.927 15.8435L117.902 15.8185Z" fill="white"/>
<path d="M129.547 13.5444L128.197 13.7943L126.398 4.42317H126.348L121.35 15.0938L119.426 15.4686L117.352 4.64808L118.701 4.39818L120.5 13.7693H120.55L125.548 3.09872L127.472 2.72388L129.547 13.5444Z" fill="white"/>
<path d="M134.019 11.5951C132.82 10.6455 132.17 9.32109 131.995 7.62179C131.845 5.9225 132.27 4.49809 133.27 3.34856C134.244 2.19904 135.594 1.54931 137.318 1.37438C138.068 1.29941 138.767 1.37438 139.467 1.52432C140.167 1.67426 140.742 1.92415 141.216 2.24902C141.666 2.57388 142.066 2.92374 142.416 3.29858C143.041 4.02328 143.39 4.698 143.44 5.32275L141.991 5.44769C141.991 5.29776 141.866 5.04786 141.691 4.74798C141.516 4.44811 141.241 4.12324 140.916 3.79838C140.567 3.42353 140.067 3.14865 139.467 2.92374C138.817 2.69883 138.143 2.62386 137.418 2.69883C136.093 2.82378 135.069 3.32357 134.344 4.2232C133.619 5.12283 133.295 6.19738 133.42 7.44687C133.52 8.69635 134.019 9.69593 134.919 10.4456C135.794 11.2203 136.893 11.5452 138.218 11.4202C138.942 11.3453 139.617 11.1453 140.192 10.8205C140.767 10.4956 141.191 10.1208 141.466 9.69594C141.991 8.87128 142.241 8.27152 142.216 7.89668L143.665 7.77173C143.715 8.19656 143.615 8.72134 143.315 9.37107C143.016 10.0208 142.591 10.6455 142.016 11.1953C141.616 11.5951 141.066 11.945 140.417 12.2199C139.767 12.4948 139.067 12.6697 138.318 12.7447C136.618 12.8946 135.169 12.4948 133.994 11.5452L134.019 11.5951Z" fill="white"/>
<path d="M147.689 7.69691L148.839 0.949707L156.735 1.07466L156.56 12.0951H155.161L155.311 2.34913L149.963 2.27416L149.039 7.7219C148.764 9.32124 148.414 10.4708 147.939 11.1455C147.464 11.8202 146.815 12.1701 145.94 12.1451C145.665 12.1451 145.44 12.0951 145.215 12.0201L145.115 11.9701V10.6707C145.315 10.7456 145.54 10.7956 145.865 10.7956C146.39 10.7956 146.79 10.5457 147.039 10.021C147.289 9.47118 147.514 8.6965 147.689 7.69691Z" fill="white"/>
<path d="M167.98 6.69727C168.73 7.37199 169.055 8.3216 168.93 9.49611C168.805 10.6706 168.305 11.5203 167.43 12.0451C166.556 12.5698 165.331 12.7448 163.807 12.5698L159.934 12.145L161.108 1.17456L162.483 1.3245L162.083 5.14791L164.557 5.4228C166.081 5.59773 167.231 6.02255 167.98 6.69727ZM166.506 10.9955C167.056 10.6956 167.381 10.1458 167.455 9.34618C167.53 8.5715 167.356 7.94676 166.856 7.52193C166.356 7.09711 165.531 6.82222 164.382 6.69727L161.908 6.42239L161.408 10.9955L163.882 11.2704C165.031 11.3953 165.906 11.2954 166.481 10.9955H166.506ZM170.729 13.3195L171.904 2.34907L173.303 2.49901L172.129 13.4695L170.729 13.3195Z" fill="white"/>
<path d="M185.523 16.2184L184.174 15.9185L186.173 6.59736H186.123L177.377 14.4441L175.478 14.0443L177.802 3.27373L179.151 3.57361L177.152 12.8947H177.202L185.973 5.02301L187.872 5.42284L185.548 16.1934L185.523 16.2184ZM185.423 2.77394C184.824 3.04882 184.074 3.0988 183.174 2.89889C182.275 2.69897 181.625 2.3741 181.2 1.87431C180.775 1.37452 180.625 0.774766 180.775 0.0500666V-0.0249023L182.025 0.249984V0.299963C181.95 0.649818 182.025 0.949694 182.275 1.22458C182.525 1.49947 182.899 1.69938 183.424 1.79934C183.949 1.8993 184.374 1.8993 184.699 1.74936C185.024 1.59942 185.248 1.34953 185.323 0.999673V0.949694L186.548 1.22458V1.29955C186.373 2.02425 185.998 2.49905 185.423 2.77394Z" fill="white"/>
<path d="M193.895 18.6923L197.543 8.29663L205.615 11.1205L205.19 12.345L198.443 9.97094L195.219 19.1421L193.895 18.6923Z" fill="white"/>
<path d="M204.065 19.0921C204.515 18.1175 205.29 17.5678 206.389 17.4428C207.489 17.3179 208.713 17.5678 210.038 18.1675C210.738 18.4924 211.362 18.8672 211.937 19.342C212.487 19.8168 212.862 20.1667 213.062 20.4666L213.361 20.9414L214.186 19.0921C214.561 18.2675 214.536 17.4928 214.111 16.7931C213.686 16.0934 212.987 15.5186 212.062 15.1188C211.162 14.719 210.288 14.544 209.438 14.619C208.613 14.694 208.064 14.9938 207.814 15.5436L206.539 14.9689C206.939 14.1442 207.689 13.6194 208.763 13.3445C209.838 13.0696 211.112 13.2446 212.562 13.8943C213.861 14.4691 214.811 15.2937 215.411 16.2933C216.01 17.3179 216.035 18.4424 215.486 19.6669L213.586 23.9151C213.361 24.3899 213.287 24.7648 213.361 25.0397C213.411 25.3146 213.636 25.5145 213.986 25.6644C214.211 25.7644 214.411 25.8144 214.561 25.8393H214.636L214.136 26.9389C213.911 26.9389 213.611 26.8639 213.262 26.714C212.637 26.4391 212.237 26.0892 212.087 25.6644C211.937 25.2646 211.862 24.9647 211.887 24.7898V24.6648L211.862 24.6398C211.787 24.6898 211.512 24.7398 211.062 24.7898C210.738 24.8398 210.438 24.8398 210.113 24.8398C209.338 24.8398 208.439 24.6149 207.464 24.19C206.089 23.5653 205.065 22.8156 204.39 21.941C203.715 21.0663 203.616 20.1167 204.065 19.1171V19.0921ZM205.39 19.6919C204.865 20.8664 205.79 21.9909 208.164 23.0655C208.863 23.3904 209.563 23.5653 210.263 23.6403C210.937 23.6902 211.412 23.7152 211.662 23.6403C211.912 23.5903 212.087 23.5403 212.237 23.4903L212.862 22.0659C212.862 22.0659 212.762 21.841 212.612 21.5911C212.437 21.3412 212.087 21.0163 211.587 20.5915C211.062 20.1417 210.463 19.7669 209.763 19.467C208.364 18.8422 207.239 18.6173 206.389 18.8422C205.915 18.9672 205.565 19.2421 205.365 19.6919H205.39Z" fill="white"/>
<path d="M225.707 30.0127C225.157 30.9873 224.332 31.4621 223.258 31.4621C222.183 31.4621 220.984 31.0622 219.634 30.2876C216.635 28.5883 215.711 26.789 216.785 24.8648L216.935 24.6149L218.16 25.3146L218.01 25.5645C217.66 26.1893 217.66 26.789 218.06 27.3638C218.435 27.9385 219.184 28.5633 220.284 29.163C222.458 30.3875 223.857 30.4625 224.507 29.3379C225.157 28.1884 224.407 27.0139 222.283 25.7894L220.609 24.8398L221.258 23.7153L223.108 24.7648C224.982 25.7644 226.181 25.7644 226.756 24.7648C227.356 23.7153 226.631 22.5907 224.607 21.4412C223.607 20.8665 222.758 20.5916 222.083 20.5916C221.383 20.5916 220.909 20.8415 220.609 21.3662L220.559 21.4412L219.334 20.7415L219.384 20.6665C219.909 19.7669 220.684 19.2921 221.758 19.2671C222.808 19.2421 223.982 19.592 225.282 20.3167C226.581 21.0414 227.481 21.866 228.006 22.7407C228.53 23.6153 228.53 24.5149 228.006 25.4146C227.706 25.9394 227.331 26.2892 226.831 26.4641C226.331 26.6391 225.931 26.689 225.582 26.6141L225.057 26.5141C225.257 26.739 225.432 26.9639 225.607 27.2138C225.782 27.4637 225.906 27.7136 226.006 27.9635C226.106 28.2384 226.131 28.5633 226.106 28.9631C226.056 29.3629 225.956 29.7128 225.757 30.0626L225.707 30.0127Z" fill="white"/>
<path d="M232.803 36.7097C232.578 35.2103 232.953 33.7609 233.978 32.4115C235.002 31.062 236.277 30.2874 237.801 30.1124C239.3 29.9125 240.75 30.3373 242.124 31.3869C242.724 31.8367 243.224 32.3615 243.624 32.9363C244.024 33.511 244.298 34.0858 244.423 34.6605C244.548 35.2103 244.598 35.7351 244.598 36.2599C244.598 37.2095 244.373 37.9592 243.999 38.459L242.824 37.5843C242.924 37.4594 242.999 37.2095 243.074 36.8596C243.149 36.5098 243.174 36.1099 243.149 35.6351C243.149 35.1354 242.974 34.5856 242.674 34.0108C242.349 33.4111 241.899 32.9113 241.325 32.4615C240.275 31.6618 239.176 31.3619 238.026 31.5368C236.876 31.7118 235.927 32.3115 235.177 33.2861C234.427 34.2857 234.128 35.3603 234.253 36.5098C234.377 37.6593 234.977 38.6339 236.027 39.4336C236.602 39.8834 237.226 40.1833 237.901 40.3332C238.526 40.4831 239.101 40.4831 239.6 40.3332C240.55 40.0833 241.15 39.8084 241.375 39.5085L242.549 40.3832C242.324 40.733 241.874 41.0579 241.2 41.3328C240.55 41.6327 239.8 41.7826 239.001 41.8076C238.426 41.8076 237.801 41.7326 237.126 41.5077C236.452 41.2828 235.827 40.933 235.227 40.4831C233.853 39.4586 233.053 38.1841 232.828 36.6847L232.803 36.7097Z" fill="white"/>
<path d="M250.421 38.4091L248.147 40.8831C246.898 42.2575 247.098 43.7069 248.797 45.2562L251.096 47.3554L255.244 42.8322L256.269 43.7819L248.822 51.9035L247.797 50.9539L250.221 48.305L247.922 46.2059C245.548 44.0318 245.273 41.9326 247.123 39.9334L249.397 37.4595L250.421 38.4091Z" fill="white"/>
<path d="M258.118 61.9244L257.194 60.8998L264.266 54.5025H264.241L252.546 55.7269L251.246 54.2775L259.418 46.8806L260.342 47.9052L253.27 54.3025H253.295L265.015 53.0531L266.315 54.5025L258.143 61.8994L258.118 61.9244Z" fill="white"/>
<path d="M268.164 56.7765L274.487 65.123L273.437 65.9227L270.688 62.2992L262.941 68.1467L262.092 67.0222L269.839 61.1746L267.115 57.5511L268.164 56.7515V56.7765Z" fill="white"/>
<path d="M268.639 70.7207C269.538 70.1459 270.488 70.1209 271.488 70.6457C272.462 71.1705 273.362 72.0451 274.136 73.2696C274.536 73.9193 274.861 74.5941 275.086 75.2938C275.286 75.9935 275.386 76.5183 275.411 76.8431V77.3929L277.11 76.3183C277.86 75.8435 278.26 75.1688 278.31 74.3442C278.335 73.5195 278.085 72.6699 277.535 71.7952C277.01 70.9456 276.361 70.3208 275.636 69.921C274.911 69.5212 274.286 69.4712 273.762 69.796L273.012 68.6215C273.787 68.1717 274.711 68.1217 275.761 68.4966C276.81 68.8714 277.76 69.7211 278.61 71.0455C279.384 72.27 279.734 73.4445 279.659 74.6191C279.584 75.7936 278.984 76.7432 277.86 77.4679L273.912 79.9668C273.462 80.2417 273.187 80.5166 273.112 80.7665C273.012 81.0164 273.062 81.3163 273.287 81.6411C273.412 81.8411 273.562 82.016 273.687 82.1159H273.762L272.737 82.7907C272.537 82.6657 272.337 82.4408 272.137 82.1159C271.762 81.5162 271.638 81.0164 271.737 80.5916C271.837 80.1668 271.937 79.8919 272.037 79.7419L272.137 79.642V79.592C272.012 79.592 271.737 79.492 271.363 79.2921C271.088 79.1422 270.813 78.9922 270.563 78.8173C269.913 78.3925 269.289 77.7178 268.714 76.7931C267.914 75.5187 267.464 74.3192 267.389 73.2196C267.314 72.1201 267.739 71.2704 268.664 70.6957L268.639 70.7207ZM269.413 71.9452C268.314 72.6449 268.464 74.0693 269.863 76.2934C270.263 76.9431 270.763 77.4929 271.288 77.9177C271.837 78.3425 272.212 78.6174 272.462 78.7174C272.687 78.8173 272.887 78.8673 273.012 78.9173L274.311 78.0926C274.311 78.0926 274.361 77.8427 274.361 77.5678C274.361 77.268 274.261 76.7931 274.062 76.1684C273.862 75.5187 273.562 74.8689 273.162 74.2192C272.337 72.9198 271.513 72.1201 270.713 71.8452C270.238 71.6703 269.813 71.7203 269.388 71.9951L269.413 71.9452Z" fill="white"/>
<path d="M283.607 92.2117L282.808 92.5366L278.235 83.3904C277.935 83.5403 277.585 83.9152 277.21 84.5149C276.985 84.8648 276.81 85.2396 276.66 85.6394C276.51 86.0643 276.46 86.589 276.535 87.1888C276.61 87.7886 276.76 88.3633 277.06 88.9381C277.26 89.3629 277.51 89.7377 277.81 90.0876C278.11 90.4125 278.385 90.6873 278.659 90.8373C279.209 91.1622 279.634 91.3621 279.934 91.3871L280.159 91.437L280.908 92.9364C280.908 92.9364 280.684 92.9364 280.559 92.9364C280.384 92.9364 280.084 92.8615 279.659 92.7615C279.209 92.6365 278.784 92.4866 278.41 92.2867C278.01 92.0868 277.56 91.7369 277.085 91.2371C276.61 90.7623 276.185 90.1876 275.861 89.5128C275.086 87.9635 274.911 86.4391 275.386 84.9897C275.836 83.5153 276.835 82.3908 278.335 81.6411C279.859 80.8914 281.333 80.7665 282.783 81.2912C284.232 81.816 285.332 82.8406 286.106 84.365C286.881 85.8893 287.031 87.3887 286.581 88.8631C286.131 90.3375 285.132 91.437 283.607 92.1867V92.2117ZM279.409 82.7656L283.357 90.6874C284.157 90.2875 284.757 89.5378 285.207 88.4633C285.632 87.3887 285.532 86.2142 284.907 84.9647C284.282 83.7152 283.407 82.9406 282.283 82.6157C281.158 82.3158 280.184 82.3408 279.409 82.7406V82.7656Z" fill="white"/>
<path d="M289.33 91.5872L293.178 101.333L291.954 101.808L290.279 97.5847L281.233 101.158L280.733 99.8587L289.78 96.2852L288.105 92.062L289.33 91.5872Z" fill="white"/>
<path d="M284.982 107.306C285.681 105.956 286.856 105.032 288.48 104.532C290.104 104.032 291.579 104.182 292.928 104.932C294.253 105.656 295.177 106.856 295.652 108.505C295.877 109.23 295.952 109.929 295.952 110.629C295.952 111.329 295.802 111.954 295.577 112.503C295.352 113.003 295.077 113.478 294.777 113.878C294.203 114.628 293.603 115.102 292.978 115.302L292.553 113.903C292.703 113.853 292.903 113.703 293.178 113.478C293.428 113.228 293.703 112.928 293.953 112.528C294.228 112.104 294.428 111.579 294.528 110.929C294.628 110.254 294.553 109.58 294.353 108.88C293.978 107.63 293.278 106.706 292.229 106.181C291.179 105.656 290.079 105.556 288.88 105.906C287.68 106.256 286.806 106.956 286.231 107.98C285.656 108.98 285.556 110.129 285.931 111.404C286.131 112.104 286.456 112.703 286.906 113.228C287.331 113.728 287.78 114.053 288.255 114.253C289.155 114.603 289.805 114.752 290.179 114.628L290.604 116.027C290.204 116.177 289.655 116.152 288.955 116.027C288.255 115.877 287.58 115.577 286.906 115.127C286.431 114.802 285.981 114.353 285.581 113.778C285.181 113.203 284.857 112.553 284.657 111.829C284.157 110.179 284.282 108.705 284.982 107.356V107.306Z" fill="white"/>
<path d="M287.356 121.1L287.056 119.575L291.704 121.325C291.704 121.075 291.804 120.775 291.904 120.4C292.004 120.1 292.154 119.8 292.328 119.575C292.528 119.3 292.803 119.026 293.178 118.776C293.553 118.526 293.978 118.351 294.428 118.251C295.527 118.026 296.452 118.251 297.201 118.876C297.951 119.5 298.451 120.5 298.726 121.874L299.675 126.597L288.855 128.747L288.58 127.372L292.503 126.597L291.754 122.774L287.331 121.1H287.356ZM298.126 125.473L297.451 122.124C297.077 120.225 296.152 119.4 294.727 119.7C293.278 120 292.753 121.05 293.103 122.899L293.778 126.348L298.101 125.498L298.126 125.473Z" fill="white"/>
<path d="M291.505 138.468C292.504 137.293 293.854 136.643 295.528 136.543C297.227 136.443 298.627 136.893 299.776 137.943C300.901 138.967 301.526 140.342 301.625 142.066C301.725 143.765 301.301 145.215 300.301 146.389C299.301 147.564 297.977 148.189 296.278 148.314C294.578 148.413 293.179 147.964 292.029 146.914C290.905 145.89 290.28 144.515 290.18 142.791C290.08 141.091 290.505 139.642 291.505 138.468ZM291.505 142.716C291.58 144.04 292.079 145.09 292.979 145.84C293.879 146.614 294.928 146.939 296.178 146.864C297.427 146.789 298.427 146.314 299.226 145.44C300.001 144.565 300.351 143.466 300.276 142.141C300.201 140.817 299.701 139.792 298.827 139.017C297.927 138.243 296.852 137.893 295.628 137.968C294.404 138.043 293.379 138.518 292.579 139.392C291.78 140.267 291.43 141.366 291.53 142.691L291.505 142.716Z" fill="white"/>
<path d="M287.981 150.713L288.031 149.313L292.154 149.438V150.313C292.104 151.088 293.054 151.637 295.003 151.962L301.775 153.037L301.55 160.808L291.83 160.509L291.78 162.233L287.656 162.108L287.706 160.709L290.505 160.783L290.805 150.788L288.006 150.713H287.981ZM300.251 159.359L300.401 154.161L294.928 153.287C294.179 153.162 293.554 153.012 293.079 152.837C292.579 152.662 292.304 152.512 292.229 152.387L292.104 152.187H292.054L291.855 159.084L300.251 159.334V159.359Z" fill="white"/>
<path d="M288.931 174.603L289.106 173.228L294.104 173.853L295.053 166.406L290.055 165.781L290.23 164.407L301.176 165.781L301.001 167.156L296.353 166.556L295.403 174.003L300.051 174.603L299.876 175.977L288.931 174.603Z" fill="white"/>
<path d="M286.031 187.997L286.331 186.648L295.627 188.772V188.722L287.88 179.876L288.305 177.976L299.051 180.425L298.751 181.775L289.455 179.651V179.701L297.202 188.547L296.777 190.446L286.031 187.997Z" fill="white"/>
<path d="M290.605 204.615V204.565L285.682 198.918L286.307 197.143L293.679 195.719V195.669L284.733 192.595L285.182 191.271L295.603 194.844L294.903 196.893L287.032 198.343V198.393L292.329 204.39L291.63 206.439L281.209 202.866L281.659 201.542L290.605 204.615Z" fill="white"/>
<path d="M273.062 219.934L273.686 218.709L282.183 223.058V223.008L276.86 212.512L277.76 210.763L287.581 215.786L286.956 217.01L278.459 212.662V212.712L283.782 223.208L282.882 224.957L273.062 219.934Z" fill="white"/>
<path d="M268.664 232.654C267.714 232.054 267.264 231.204 267.339 230.13C267.414 229.055 267.864 227.881 268.689 226.556C270.538 223.657 272.387 222.808 274.261 224.007L274.511 224.157L273.761 225.332L273.512 225.182C272.912 224.807 272.312 224.782 271.687 225.132C271.088 225.482 270.438 226.181 269.763 227.256C268.414 229.355 268.289 230.78 269.363 231.454C270.463 232.154 271.687 231.479 273.012 229.405L274.036 227.806L275.136 228.505L273.986 230.305C272.887 232.104 272.837 233.328 273.811 233.953C274.836 234.603 275.986 233.953 277.235 231.979C277.86 231.004 278.185 230.18 278.235 229.48C278.285 228.78 278.035 228.281 277.535 227.956L277.46 227.906L278.21 226.731L278.285 226.781C279.159 227.331 279.584 228.156 279.559 229.205C279.559 230.255 279.134 231.429 278.335 232.654C277.535 233.903 276.685 234.778 275.761 235.253C274.836 235.727 273.961 235.677 273.087 235.128C272.587 234.803 272.262 234.403 272.112 233.878C271.962 233.378 271.937 232.954 272.037 232.629L272.187 232.104H272.162C271.962 232.279 271.737 232.454 271.487 232.604C271.237 232.754 270.963 232.879 270.713 232.979C270.438 233.079 270.088 233.079 269.713 233.029C269.338 232.979 268.963 232.829 268.639 232.629L268.664 232.654Z" fill="white"/>
<path d="M261.267 237.602L269.788 244.599L264.366 251.196L263.366 250.371L267.889 244.849L260.367 238.676L261.242 237.602H261.267Z" fill="white"/>
<path d="M257.593 248.597L261.766 254.045L256.293 259.742L248.347 252.096L249.321 251.096L256.318 257.843L260.017 253.995L256.643 249.597C255.644 248.322 255.069 247.273 254.869 246.473C254.694 245.673 254.869 244.973 255.494 244.324C255.669 244.124 255.869 243.999 256.068 243.874L256.168 243.824L257.118 244.724C256.943 244.799 256.768 244.949 256.518 245.173C256.143 245.548 256.068 246.023 256.293 246.548C256.518 247.098 256.943 247.797 257.568 248.597H257.593Z" fill="white"/>
<path d="M248.247 256.344C248.947 257.144 249.097 258.093 248.747 259.143C248.372 260.192 247.647 261.192 246.523 262.142C245.948 262.641 245.323 263.041 244.674 263.366C244.024 263.666 243.524 263.841 243.174 263.916L242.625 263.991L243.949 265.515C244.524 266.19 245.248 266.49 246.073 266.415C246.898 266.315 247.697 265.94 248.472 265.29C249.222 264.64 249.747 263.916 250.046 263.141C250.346 262.366 250.296 261.742 249.897 261.267L250.946 260.367C251.521 261.092 251.696 261.967 251.471 263.066C251.271 264.166 250.546 265.24 249.347 266.265C248.247 267.189 247.123 267.714 245.948 267.814C244.774 267.914 243.749 267.464 242.874 266.44L239.851 262.916C239.501 262.516 239.201 262.291 238.926 262.241C238.651 262.192 238.376 262.291 238.076 262.541C237.877 262.691 237.752 262.866 237.677 262.991V263.066L236.877 262.142C236.977 261.942 237.152 261.692 237.452 261.442C237.976 260.992 238.451 260.792 238.901 260.817C239.326 260.842 239.626 260.917 239.776 260.992L239.876 261.067L239.926 261.017C239.926 261.017 239.976 260.642 240.126 260.217C240.226 259.917 240.351 259.618 240.475 259.343C240.8 258.643 241.375 257.918 242.2 257.219C243.349 256.219 244.474 255.619 245.548 255.394C246.623 255.169 247.523 255.469 248.247 256.294V256.344ZM247.148 257.294C246.298 256.319 244.899 256.669 242.924 258.368C242.35 258.868 241.875 259.418 241.525 260.017C241.175 260.617 240.975 261.042 240.9 261.292C240.85 261.542 240.8 261.717 240.775 261.867L241.775 263.041C241.775 263.041 242.025 263.041 242.3 263.016C242.6 262.966 243.049 262.791 243.649 262.516C244.274 262.241 244.874 261.842 245.448 261.342C246.623 260.342 247.273 259.418 247.448 258.568C247.548 258.093 247.448 257.643 247.123 257.294H247.148Z" fill="white"/>
<path d="M232.179 275.361C231.829 274.886 231.679 274.386 231.679 273.912C231.679 273.437 231.779 273.087 231.954 272.862L232.229 272.487L232.179 272.437C232.029 272.537 231.754 272.637 231.354 272.737C231.054 272.787 230.78 272.812 230.505 272.812C230.205 272.812 229.88 272.687 229.555 272.487C229.205 272.287 228.93 272.012 228.68 271.637C227.506 269.988 228.131 268.314 230.53 266.64L235.253 263.316L241.6 272.337L237.102 275.486C236.077 276.211 235.128 276.56 234.278 276.56C233.428 276.56 232.729 276.161 232.179 275.386V275.361ZM234.878 265.165L231.304 267.689C229.68 268.839 229.205 269.913 229.905 270.913C230.605 271.912 231.754 271.837 233.353 270.713L236.977 268.164L234.878 265.19V265.165ZM233.253 274.461C233.928 275.411 234.953 275.386 236.352 274.386L239.701 272.037L237.702 269.188L234.178 271.662C233.553 272.112 233.154 272.562 233.004 273.037C232.829 273.512 232.904 273.986 233.229 274.436L233.253 274.461Z" fill="white"/>
<path d="M215.485 275.811L216.71 275.111L219.209 279.484L225.731 275.761L223.232 271.388L224.457 270.688L229.904 280.259L228.705 280.959L226.381 276.885L219.859 280.609L222.183 284.682L220.983 285.382L215.535 275.811H215.485Z" fill="white"/>
<path d="M202.466 281.758L206.889 291.854L205.615 292.404L201.191 282.308L202.466 281.758ZM208.139 286.132C207.139 285.907 206.414 285.257 205.939 284.157C205.465 283.058 205.49 282.083 205.989 281.209C206.514 280.334 207.464 279.559 208.863 278.96L212.437 277.41L216.86 287.506L215.585 288.056L214.061 284.532L211.787 285.532C210.388 286.157 209.163 286.331 208.164 286.107L208.139 286.132ZM207.289 281.683C206.964 282.233 206.964 282.858 207.289 283.608C207.614 284.332 208.064 284.757 208.713 284.907C209.338 285.032 210.213 284.857 211.262 284.382L213.536 283.383L211.712 279.184L209.438 280.184C208.363 280.659 207.664 281.159 207.314 281.708L207.289 281.683Z" fill="white"/>
<path d="M194.645 296.102L193.12 296.602L195.469 290.33L189.247 286.257L190.771 285.757L195.944 289.13L198.118 283.358L199.643 282.858L197.019 289.83L202.617 293.503L201.092 294.003L196.544 291.03L194.645 296.102Z" fill="white"/>
<path d="M172.679 289.88L174.053 289.605L175.902 299.151L183.049 297.777L181.2 288.231L182.575 287.956L184.674 298.776L174.803 300.676L172.704 289.855L172.679 289.88Z" fill="white"/>
<path d="M164.332 302.125C162.683 302.275 161.258 301.875 160.059 300.9C158.884 299.926 158.21 298.601 158.06 296.927C157.91 295.253 158.335 293.828 159.309 292.679C160.309 291.504 161.633 290.854 163.282 290.705C165.182 290.505 166.731 291.054 167.881 292.329L167.931 292.404H168.031L167.456 286.031L168.855 285.906L170.255 301.375L168.855 301.5L168.68 299.601H168.605L168.555 299.701C167.606 301.175 166.206 301.975 164.332 302.125ZM160.434 293.578C159.684 294.503 159.384 295.552 159.484 296.802C159.584 298.051 160.109 299.051 160.983 299.801C161.883 300.55 162.983 300.875 164.307 300.75C165.607 300.625 166.631 300.126 167.381 299.251C168.131 298.351 168.455 297.277 168.355 295.977C168.255 294.678 167.731 293.678 166.831 292.954C165.931 292.204 164.832 291.904 163.532 292.004C162.208 292.129 161.183 292.629 160.434 293.553V293.578Z" fill="white"/>
<path d="M144.34 291.379H145.714L145.564 300.925H145.614L152.687 291.504H154.636L154.461 302.55H153.086L153.236 292.979H153.186L146.114 302.4H144.165L144.34 291.354V291.379Z" fill="white"/>
<path d="M138.568 302.025L138.917 298.676C139.117 296.827 138.068 295.777 135.794 295.553L132.695 295.228L132.07 301.35L130.671 301.2L131.82 290.23L133.22 290.38L132.845 293.928L135.944 294.253C139.142 294.578 140.617 296.102 140.317 298.826L139.967 302.175L138.568 302.025Z" fill="white"/>
<path d="M118.351 287.756L119.7 288.031L117.826 297.377H117.876L126.522 289.405L128.447 289.78L126.273 300.601L124.923 300.326L126.797 290.98H126.747L118.101 298.976L116.177 298.601L118.351 287.781V287.756Z" fill="white"/>
<path d="M105.156 283.882L106.481 284.282L105.006 289.105L112.178 291.304L113.653 286.481L114.977 286.881L111.754 297.427L110.429 297.027L111.804 292.554L104.631 290.355L103.257 294.828L101.933 294.428L105.156 283.882Z" fill="white"/>
<path d="M97.0093 280.734L92.4862 290.805L84.6895 287.306L85.2142 286.106L91.7365 289.03L95.7099 280.159L96.9844 280.734H97.0093Z" fill="white"/>
<path d="M85.4645 280.059L81.2913 285.507L74.3691 281.708L79.6669 272.037L80.8914 272.712L76.2184 281.234L80.8914 283.807L84.24 279.409C85.2146 278.11 86.0643 277.285 86.789 276.885C87.5137 276.486 88.2634 276.51 89.0131 276.935C89.238 277.06 89.4379 277.21 89.5878 277.385L89.6628 277.485L89.0381 278.635C88.9131 278.485 88.7382 278.335 88.4633 278.185C87.9885 277.935 87.5387 277.985 87.0639 278.335C86.5891 278.71 86.0393 279.284 85.4146 280.109L85.4645 280.059Z" fill="white"/>
<path d="M74.9443 270.713C75.2692 272.212 74.9443 273.687 73.9947 275.086C73.0451 276.485 71.7956 277.31 70.2713 277.56C68.7719 277.81 67.2975 277.46 65.8731 276.485C64.4487 275.511 63.599 274.286 63.2742 272.787C62.9493 271.288 63.2742 269.838 64.2488 268.439C65.1984 267.039 66.4479 266.215 67.9472 265.965C69.4466 265.715 70.921 266.065 72.3454 267.039C73.7698 268.014 74.6195 269.238 74.9443 270.738V270.713ZM71.5957 268.114C70.4962 267.364 69.3716 267.114 68.2221 267.339C67.0726 267.564 66.148 268.189 65.4483 269.238C64.7486 270.263 64.4987 271.363 64.6986 272.512C64.8985 273.662 65.5482 274.611 66.6478 275.361C67.7473 276.111 68.8469 276.361 70.0214 276.136C71.1709 275.911 72.1205 275.286 72.8202 274.261C73.5199 273.237 73.7698 272.137 73.5699 270.988C73.37 269.838 72.7203 268.889 71.6207 268.139L71.5957 268.114Z" fill="white"/>
<path d="M52.3035 268.064C53.0033 268.639 53.703 269.039 54.4277 269.239C55.1524 269.439 55.8271 269.439 56.4518 269.264C57.6013 268.939 58.6009 268.289 59.4006 267.314L59.3506 267.264C59.3506 267.264 59.1757 267.339 59.0507 267.389C58.9508 267.439 58.7009 267.489 58.3011 267.564C57.8762 267.639 57.5014 267.664 57.1265 267.614C56.7017 267.589 56.2019 267.439 55.6522 267.214C55.0774 266.965 54.5276 266.615 53.9529 266.14C52.7534 265.115 52.0536 263.916 51.9287 262.491C51.8038 261.092 52.2286 259.817 53.2032 258.643C54.2028 257.468 55.4023 256.844 56.8267 256.769C58.2511 256.694 59.6255 257.219 60.925 258.318C62.2994 259.468 62.9991 260.867 63.0241 262.541C63.0491 264.191 62.4243 265.79 61.1249 267.314L60.5251 268.039C59.2507 269.538 57.8263 270.438 56.2269 270.713C54.6276 270.988 53.0782 270.488 51.5788 269.239C50.0795 267.964 48.9799 267.739 48.2802 268.564L47.1807 267.639C47.7304 266.965 48.4551 266.64 49.2798 266.615C50.1294 266.615 51.129 267.089 52.2786 268.064H52.3035ZM57.0016 258.218C55.952 258.293 55.0524 258.743 54.3277 259.593C53.603 260.442 53.3031 261.392 53.4031 262.441C53.528 263.516 54.0778 264.466 55.0524 265.29C55.952 266.065 56.9766 266.415 58.0762 266.365C59.2007 266.315 60.1003 265.865 60.8 265.04C61.5247 264.191 61.7996 263.216 61.6497 262.117C61.4997 261.017 60.975 260.092 60.0753 259.318C59.1007 258.493 58.0512 258.118 57.0016 258.193V258.218Z" fill="white"/>
<path d="M52.6034 255.344C51.8287 256.094 50.9041 256.319 49.8295 256.019C48.755 255.719 47.7304 255.044 46.7058 253.995C46.1811 253.445 45.7312 252.845 45.3814 252.221C45.0315 251.596 44.8316 251.096 44.7566 250.771L44.6317 250.221L43.1823 251.621C42.5326 252.246 42.2827 252.97 42.4076 253.795C42.5575 254.62 42.9824 255.394 43.6821 256.119C44.3818 256.844 45.1315 257.319 45.9312 257.543C46.7308 257.793 47.3556 257.693 47.7804 257.269L48.755 258.268C48.0803 258.868 47.1806 259.118 46.1061 258.968C45.0065 258.818 43.882 258.193 42.7825 257.044C41.7829 256.019 41.2081 254.92 41.0332 253.745C40.8583 252.57 41.2581 251.521 42.2077 250.596L45.5563 247.348C45.9312 246.973 46.1311 246.673 46.181 246.398C46.231 246.123 46.1061 245.848 45.8312 245.573C45.6563 245.398 45.5063 245.274 45.3564 245.199H45.2814L46.1561 244.349C46.381 244.424 46.6309 244.599 46.9057 244.899C47.3806 245.398 47.6304 245.873 47.6055 246.298C47.6055 246.723 47.5555 247.023 47.4805 247.198L47.4055 247.298L47.4555 247.348C47.4555 247.348 47.8304 247.348 48.2552 247.498C48.5551 247.573 48.8549 247.673 49.1548 247.797C49.8795 248.072 50.6292 248.622 51.3789 249.397C52.4285 250.471 53.1032 251.546 53.4031 252.62C53.7029 253.67 53.453 254.595 52.6534 255.369L52.6034 255.344ZM51.6038 254.32C52.5284 253.42 52.0786 252.046 50.2544 250.171C49.7296 249.622 49.1298 249.197 48.5051 248.872C47.8803 248.572 47.4555 248.372 47.2056 248.322C46.9557 248.272 46.7808 248.247 46.6309 248.247L45.5313 249.322C45.5313 249.322 45.5313 249.572 45.6063 249.847C45.6813 250.146 45.8812 250.571 46.181 251.171C46.5059 251.771 46.9307 252.346 47.4555 252.895C48.5301 253.995 49.4797 254.595 50.3543 254.72C50.8541 254.795 51.2539 254.645 51.6038 254.32Z" fill="white"/>
<path d="M41.0082 244.774L35.0607 248.197L30.1377 242.025L38.7591 235.153L39.6338 236.252L32.0369 242.325L35.3605 246.498L40.1585 243.724C41.558 242.899 42.6825 242.475 43.4822 242.375C44.2818 242.275 44.9815 242.6 45.5313 243.274C45.7062 243.474 45.8062 243.699 45.9062 243.899V243.999L44.9066 244.824C44.8566 244.649 44.7316 244.449 44.5567 244.174C44.2319 243.774 43.782 243.624 43.2073 243.774C42.6325 243.924 41.8828 244.274 41.0082 244.774Z" fill="white"/>
<path d="M27.1891 229.33C27.2391 228.305 27.7638 227.481 28.7384 226.831C29.738 226.181 30.6876 226.031 31.6622 226.356C32.6368 226.706 33.5364 227.531 34.3861 228.805L36.7101 232.329L27.5139 238.426L26.7393 237.252L29.9379 235.128L28.3636 232.753C27.5139 231.479 27.1141 230.33 27.1641 229.305L27.1891 229.33ZM31.4373 227.731C30.8376 227.506 30.2128 227.606 29.5631 228.055C28.9134 228.48 28.5635 229.03 28.5385 229.68C28.5385 230.33 28.8384 231.129 29.4881 232.104L31.0625 234.478L34.8859 231.954L33.3115 229.58C32.6618 228.605 32.0371 228.005 31.4373 227.756V227.731Z" fill="white"/>
<path d="M25.3899 213.362L26.0396 214.586L21.5915 216.985L25.14 223.607L29.5882 221.208L30.2379 222.433L20.5169 227.656L19.8672 226.431L23.9905 224.207L20.442 217.585L16.3187 219.809L15.6689 218.584L25.3649 213.362H25.3899Z" fill="white"/>
<path d="M22.166 209.638C21.6163 211.088 20.5417 212.112 18.9923 212.762C17.443 213.412 15.9436 213.412 14.5192 212.812C13.1198 212.187 12.0952 211.088 11.4205 209.513C10.7708 207.939 10.7208 206.414 11.2705 204.99C11.8203 203.566 12.8949 202.516 14.4692 201.866C16.0436 201.217 17.518 201.192 18.9174 201.816C20.3168 202.441 21.3414 203.541 22.0161 205.115C22.6658 206.689 22.7158 208.214 22.166 209.638ZM20.7916 205.64C20.2918 204.415 19.4921 203.591 18.3926 203.141C17.2931 202.716 16.1685 202.716 15.019 203.191C13.8695 203.666 13.0698 204.44 12.595 205.515C12.1452 206.589 12.1702 207.739 12.67 208.963C13.1698 210.188 13.9694 211.013 15.069 211.462C16.1685 211.912 17.2931 211.887 18.4426 211.412C19.5921 210.938 20.3918 210.163 20.8666 209.063C21.3414 207.989 21.3164 206.839 20.7916 205.615V205.64Z" fill="white"/>
<path d="M18.6419 196.868L8.12121 200.167L5.57227 192.02L6.82175 191.621L8.94587 198.443L18.217 195.544L18.6419 196.868Z" fill="white"/>
<path d="M14.1438 186.648C13.3441 187.972 12.1196 188.822 10.4703 189.172C8.821 189.547 7.34661 189.297 6.07214 188.447C4.79767 187.597 3.97301 186.348 3.59816 184.674C3.22332 182.999 3.44822 181.5 4.2229 180.2C5.02257 178.901 6.24707 178.051 7.89638 177.676C9.5457 177.302 11.0201 177.551 12.2946 178.401C13.569 179.251 14.3937 180.5 14.7685 182.175C15.1434 183.849 14.9185 185.348 14.1438 186.648ZM13.4691 182.474C13.1692 181.175 12.5445 180.225 11.5449 179.601C10.5453 178.976 9.44574 178.801 8.22125 179.076C6.99675 179.351 6.07214 179.976 5.42241 180.95C4.79767 181.925 4.62274 183.074 4.89762 184.374C5.17251 185.648 5.82224 186.623 6.82183 187.247C7.82141 187.872 8.94595 188.047 10.1455 187.772C11.345 187.497 12.2696 186.873 12.9193 185.873C13.569 184.898 13.744 183.749 13.4441 182.449L13.4691 182.474Z" fill="white"/>
<path d="M11.2957 158.309L11.4206 159.709L1.72462 160.508L2.32437 167.755L12.0204 166.956L12.1453 168.355L1.14985 169.255L0.325195 159.234L11.3206 158.334L11.2957 158.309Z" fill="white"/>
<path d="M9.79586 153.636C8.69631 154.736 7.32188 155.261 5.62259 155.236C3.92329 155.211 2.54886 154.636 1.49929 153.511C0.474719 152.387 -0.0250737 150.962 -8.40752e-05 149.238C0.0249056 147.514 0.574678 146.114 1.64923 145.04C2.72379 143.94 4.12321 143.416 5.8225 143.441C7.5218 143.466 8.89623 144.04 9.9458 145.165C10.9954 146.289 11.4952 147.714 11.4702 149.413C11.4452 151.112 10.8954 152.537 9.82085 153.611L9.79586 153.636ZM10.1207 149.413C10.1207 148.089 9.74588 147.014 8.92122 146.164C8.09656 145.34 7.047 144.915 5.8225 144.89C4.57302 144.89 3.52346 145.265 2.67381 146.064C1.82416 146.864 1.39934 147.939 1.37435 149.263C1.37435 150.588 1.74919 151.662 2.57385 152.487C3.39851 153.336 4.44807 153.761 5.67257 153.786C6.92205 153.786 7.97161 153.411 8.82126 152.587C9.67091 151.787 10.1207 150.713 10.1457 149.388L10.1207 149.413Z" fill="white"/>
<path d="M0.450195 141.441L1.52475 131.021L2.82421 131.146L2.34941 135.669L12.0204 136.668L11.8705 138.043L2.19947 137.043L1.74966 141.566L0.450195 141.441Z" fill="white"/>
<path d="M9.37123 118.701L10.1959 118.926L8.29667 128.947C8.62154 129.021 9.12133 128.922 9.79605 128.672C10.1959 128.522 10.5707 128.347 10.9206 128.097C11.2954 127.847 11.6453 127.447 11.9452 126.947C12.27 126.448 12.4699 125.873 12.5949 125.248C12.6949 124.798 12.7198 124.323 12.6949 123.899C12.6699 123.449 12.5949 123.074 12.4699 122.774C12.245 122.174 12.0201 121.774 11.7952 121.55L11.6453 121.375L11.9702 119.725C11.9702 119.725 12.1701 119.85 12.245 119.925C12.395 120.05 12.5949 120.275 12.8698 120.625C13.1697 121 13.3946 121.375 13.5695 121.774C13.7694 122.199 13.8944 122.724 13.9943 123.399C14.0943 124.074 14.0693 124.773 13.9193 125.498C13.5945 127.222 12.7948 128.522 11.5703 129.396C10.3208 130.296 8.84645 130.571 7.19713 130.271C5.52282 129.946 4.27334 129.146 3.44868 127.872C2.62402 126.597 2.34914 125.098 2.674 123.424C2.99887 121.749 3.77355 120.45 5.02303 119.575C6.27251 118.701 7.72191 118.401 9.39622 118.726L9.37123 118.701ZM6.99721 128.747L8.64653 120.05C7.77189 119.875 6.82228 120.1 5.84769 120.7C4.8481 121.3 4.22336 122.299 3.97346 123.674C3.72357 125.048 3.92348 126.198 4.64818 127.122C5.34789 128.047 6.14756 128.597 7.0222 128.772L6.99721 128.747Z" fill="white"/>
<path d="M18.3677 107.206L17.9678 108.555L8.64671 105.806L6.59756 112.778L15.9187 115.527L15.5189 116.877L4.94824 113.753L7.79706 104.107L18.3677 107.231V107.206Z" fill="white"/>
<path d="M15.8438 101.758L9.94629 98.2592L12.8951 90.9373L23.1158 95.0606L22.5911 96.36L13.5698 92.7365L11.5706 97.6845L16.3186 100.508C17.7181 101.333 18.6427 102.083 19.1175 102.757C19.5923 103.432 19.6673 104.182 19.3424 104.981C19.2424 105.231 19.1175 105.431 18.9676 105.606L18.8926 105.681L17.6681 105.181C17.793 105.056 17.918 104.832 18.0429 104.557C18.2429 104.057 18.1429 103.607 17.7431 103.182C17.3182 102.757 16.6685 102.283 15.7939 101.758H15.8438Z" fill="white"/>
<path d="M24.8901 79.3172L25.6148 79.767L20.8917 88.8133C21.1916 88.9632 21.6914 89.0382 22.4161 88.9882C22.8409 88.9882 23.2407 88.8883 23.6406 88.7633C24.0654 88.6384 24.5152 88.3635 24.965 87.9636C25.4148 87.5638 25.7897 87.089 26.0896 86.5142C26.3145 86.0894 26.4644 85.6646 26.5644 85.2398C26.6643 84.8149 26.7143 84.4151 26.6893 84.0902C26.6393 83.4655 26.5394 82.9907 26.3894 82.7408L26.2895 82.5409L27.0642 81.0415C27.0642 81.0415 27.2141 81.2164 27.2641 81.3164C27.364 81.4663 27.489 81.7412 27.6639 82.141C27.8388 82.5659 27.9388 83.0157 28.0138 83.4405C28.0887 83.8903 28.0638 84.4651 27.9388 85.1148C27.8388 85.7895 27.6139 86.4643 27.2641 87.114C26.4644 88.6634 25.3149 89.6629 23.8655 90.1627C22.4161 90.6625 20.9167 90.5126 19.4173 89.7129C17.918 88.9382 16.9434 87.7887 16.5185 86.3143C16.0937 84.8399 16.2686 83.3406 17.0683 81.8412C17.868 80.3168 18.9925 79.3172 20.4419 78.8424C21.8913 78.3676 23.3657 78.5176 24.8901 79.2922V79.3172ZM19.7172 88.2635L23.8155 80.4168C23.0158 79.9919 22.0662 79.942 20.9417 80.2168C19.8172 80.5167 18.9175 81.2664 18.2928 82.5159C17.6681 83.7654 17.5181 84.9149 17.918 86.0144C18.3178 87.114 18.9175 87.8637 19.7172 88.2885V88.2635Z" fill="white"/>
<path d="M36.9843 70.7207L36.2096 71.8952L31.9863 69.1213L27.863 75.3937L32.0613 78.1676L31.2866 79.3421L22.0654 73.2696L22.8401 72.0951L26.7385 74.669L30.8618 68.3966L26.9634 65.8227L27.7381 64.6482L36.9593 70.7207H36.9843Z" fill="white"/>
<path d="M45.4315 60.0003L44.5568 61.0748L37.1349 55.0773H37.1099L40.1836 66.4726L38.9591 67.9969L30.3877 61.0748L31.2623 60.0003L38.6843 65.9978H38.7092L35.6355 54.6025L36.86 53.0781L45.4315 60.0003Z" fill="white"/>
<path d="M48.5803 56.6015L47.5057 57.7011L46.3062 52.8781C46.0813 53.003 45.8064 53.128 45.4316 53.2279C45.1067 53.3279 44.8068 53.3529 44.507 53.3529C44.1571 53.3529 43.7823 53.2529 43.3574 53.103C42.9326 52.9281 42.5578 52.6782 42.2329 52.3533C41.4332 51.5786 41.0834 50.704 41.1583 49.7294C41.2583 48.7548 41.7831 47.7802 42.7577 46.7806L46.1063 43.332L54.003 51.0288L53.0284 52.0284L50.1546 49.2296L47.4307 52.0034L48.5553 56.6015H48.5803ZM46.0813 45.2312L43.7073 47.6802C42.3578 49.0796 42.2079 50.2792 43.2575 51.3037C44.307 52.3283 45.5065 52.1784 46.806 50.8039L49.255 48.305L46.0813 45.2312Z" fill="white"/>
</g>
<defs>
<clipPath id="clip0_87_1410">
<rect width="301.75" height="302.575" fill="white"/>
</clipPath>
</defs>
</svg>
