<svg width="612" height="686" viewBox="0 0 612 686" fill="none" xmlns="http://www.w3.org/2000/svg">
<g clip-path="url(#clip0_87_1317)">
<path d="M140.056 531.509L141.365 532.359L133.037 545.116L141.687 550.741L150.015 537.983L151.324 538.833L142.239 552.791L130.967 545.427L140.053 531.469L140.056 531.509Z" fill="white"/>
<path d="M134.849 529.491C135.101 531.097 134.674 532.617 133.61 534.046C132.545 535.474 131.186 536.276 129.554 536.47C127.941 536.641 126.422 536.215 124.968 535.092C123.518 534.01 122.677 532.654 122.425 531.047C122.174 529.441 122.601 527.921 123.665 526.492C124.73 525.064 126.107 524.24 127.721 524.068C129.334 523.897 130.853 524.323 132.306 525.446C133.756 526.528 134.598 527.884 134.849 529.491ZM131.443 526.594C130.317 525.749 129.15 525.397 127.925 525.598C126.701 525.799 125.671 526.391 124.881 527.451C124.092 528.512 123.776 529.636 123.918 530.886C124.077 532.114 124.709 533.14 125.816 534.006C126.942 534.851 128.088 535.185 129.334 535.003C130.58 534.82 131.589 534.21 132.378 533.149C133.167 532.088 133.483 530.964 133.342 529.715C133.182 528.487 132.569 527.438 131.443 526.594Z" fill="white"/>
<path d="M111.5 519.648C111.909 519.167 112.374 518.886 112.874 518.784C113.375 518.682 113.742 518.693 114.038 518.832L114.48 519.02L114.517 518.976C114.364 518.846 114.201 518.595 114.007 518.204C113.882 517.909 113.778 517.633 113.737 517.372C113.692 517.07 113.703 516.703 113.854 516.304C114.005 515.906 114.2 515.544 114.497 515.194C115.912 513.575 117.782 513.809 120.103 515.858L124.698 519.879L116.984 528.641L112.607 524.806C111.603 523.952 111.021 523.043 110.788 522.167C110.595 521.288 110.812 520.456 111.485 519.71L111.5 519.648ZM122.665 519.882L119.183 516.808C117.586 515.412 116.369 515.205 115.53 516.148C114.694 517.131 115.031 518.284 116.606 519.661L120.131 522.772L122.665 519.882ZM112.71 520.526C111.911 521.466 112.197 522.5 113.536 523.714L116.796 526.561L119.218 523.802L115.823 520.802C115.212 520.283 114.639 519.983 114.107 519.945C113.553 519.888 113.122 520.086 112.71 520.526Z" fill="white"/>
<path d="M103.805 509.716C103.618 508.653 103.987 507.687 104.87 506.782C105.753 505.876 106.741 505.511 107.811 505.668C108.881 505.826 109.991 506.468 111.161 507.614L114.079 510.51L105.881 518.822L104.842 517.788L107.68 514.893L105.801 513.032C104.631 511.886 103.992 510.778 103.805 509.716ZM107.847 507.13C107.188 507.021 106.557 507.275 105.975 507.872C105.393 508.468 105.158 509.097 105.273 509.759C105.409 510.44 105.897 511.193 106.78 512.058L108.659 513.919L112.061 510.449L110.182 508.588C109.299 507.724 108.526 507.217 107.866 507.108L107.847 507.13ZM105.862 502.43L97.6638 510.743L96.6245 509.708L104.823 501.395L105.862 502.43Z" fill="white"/>
<path d="M100.26 498.531L96.7154 494.425L88.9408 501.178L87.9758 500.056L95.7318 493.325L92.1874 489.219L84.4313 495.951L83.4663 494.829L92.267 487.179L102.288 498.713L93.4874 506.362L92.5224 505.241L100.297 498.488L100.26 498.531Z" fill="white"/>
<path d="M78.0659 478.039L78.8198 477.55L85.2543 486.222C85.5427 486.016 85.8302 485.545 86.12 484.85C86.2895 484.43 86.4186 484.012 86.4854 483.58C86.549 483.107 86.5034 482.541 86.3333 481.945C86.1632 481.348 85.8719 480.762 85.4626 480.225C85.1657 479.822 84.8535 479.482 84.4637 479.188C84.1143 478.891 83.7529 478.696 83.4165 478.561C82.7875 478.327 82.3081 478.183 81.9662 478.231L81.7205 478.21L80.6705 476.79C80.6705 476.79 80.9097 476.73 81.0309 476.72C81.2112 476.685 81.5377 476.699 82.0074 476.722C82.4989 476.764 82.9532 476.849 83.4108 476.975C83.8902 477.119 84.4012 477.403 84.9624 477.805C85.5641 478.203 86.0761 478.752 86.5727 479.362C87.6883 480.838 88.1168 482.37 87.9019 483.994C87.687 485.618 86.8802 486.965 85.4412 488.038C84.0022 489.11 82.4893 489.518 80.8806 489.242C79.2718 488.965 77.9408 488.097 76.8689 486.658C75.7752 485.201 75.3468 483.67 75.5431 482.067C75.7394 480.465 76.5679 479.136 78.0255 478.042L78.0659 478.039ZM84.1845 487.082L78.5753 479.564C77.8279 480.133 77.3305 481.027 77.0798 482.207C76.8323 483.427 77.1507 484.601 78.0413 485.811C78.9102 487.001 79.9792 487.647 81.2079 487.751C82.4366 487.854 83.4372 487.651 84.1845 487.082Z" fill="white"/>
<path d="M75.021 462.725L75.8122 463.963L71.3261 466.849L75.648 473.536L80.1342 470.65L80.9254 471.888L71.1249 478.235L70.3337 476.998L74.491 474.321L70.1909 467.653L66.0336 470.329L65.2423 469.092L75.0428 462.744L75.021 462.725Z" fill="white"/>
<path d="M67.7263 449.933L68.44 451.218L63.7879 453.812L67.663 460.759L72.315 458.165L73.0287 459.449L62.8495 465.136L62.1359 463.852L66.4558 461.427L62.5807 454.48L58.2608 456.905L57.5471 455.62L67.7263 449.933Z" fill="white"/>
<path d="M56.6214 442.372C56.8415 441.317 57.4885 440.512 58.6465 439.991C59.7827 439.451 60.84 439.447 61.7747 439.941C62.7312 440.453 63.5434 441.445 64.2515 442.913L66.0158 446.634L55.4547 451.62L54.8186 450.288L58.4817 448.547L57.3535 446.157C56.6454 444.689 56.4199 443.406 56.64 442.35L56.6214 442.372ZM61.3163 441.32C60.7398 440.98 60.0495 440.996 59.2859 441.363C58.5222 441.73 58.0949 442.232 57.9668 442.914C57.8572 443.574 58.0719 444.472 58.5891 445.589L59.7173 447.979L64.1069 445.914L62.9787 443.524C62.4616 442.407 61.8743 441.682 61.2978 441.342L61.3163 441.32ZM61.0895 436.233L50.5284 441.219L49.8923 439.887L60.4534 434.902L61.0895 436.233Z" fill="white"/>
<path d="M54.9997 421.228L55.5364 422.588L46.1305 426.259L46.1523 426.278L58.1828 429.431L58.9268 431.344L48.0613 435.581L47.5246 434.221L56.9306 430.55L56.9087 430.531L44.8782 427.378L44.1342 425.465L54.9997 421.228ZM43.1712 429.164C43.7696 429.522 44.2291 430.177 44.5869 431.083C44.9447 431.99 45.0284 432.776 44.8381 433.443C44.6477 434.109 44.1985 434.593 43.4688 434.876L43.4316 434.92L42.9233 433.659C43.2958 433.486 43.5187 433.224 43.6107 432.851C43.7026 432.477 43.6668 432.033 43.441 431.502C43.237 430.989 42.9619 430.605 42.6409 430.407C42.3199 430.209 41.99 430.155 41.6361 430.306L41.1124 429.107L41.1496 429.064C41.9011 428.799 42.5543 428.828 43.1341 429.208L43.1712 429.164Z" fill="white"/>
<path d="M41.6233 418.286L41.1544 416.757L49.6787 409.212L49.635 409.174L38.4032 407.604L37.9562 406.094L51.3286 407.979C52.9963 408.231 54.2413 408.536 55.1073 408.934C55.9732 409.332 56.5321 409.957 56.7808 410.771C56.9225 411.268 56.9736 411.651 56.9407 411.999L56.9537 412.161L55.6243 412.574C55.6758 412.203 55.6181 411.74 55.4513 411.184C55.3128 410.728 54.9569 410.35 54.4087 410.109C53.8201 409.872 52.9486 409.658 51.7975 409.508L51.5703 409.465L41.6452 418.304L41.6233 418.286Z" fill="white"/>
<path d="M35.6859 397.613C35.2848 395.917 35.5062 394.374 36.3283 392.964C37.1722 391.574 38.4626 390.676 40.1808 390.293C41.9177 389.887 43.4609 390.108 44.8323 390.973C46.2038 391.838 47.0824 393.15 47.4835 394.846C47.9882 396.819 47.6367 398.515 46.4477 399.914L46.392 399.979L46.3985 400.06L52.9854 398.509L53.3266 399.966L37.3376 403.724L37.0183 402.285L38.9758 401.842L38.9475 401.742L38.882 401.687C37.1752 400.95 36.1098 399.593 35.6673 397.635L35.6859 397.613ZM44.0628 392.276C42.9938 391.631 41.8208 391.461 40.5438 391.768C39.2668 392.075 38.2835 392.745 37.6156 393.796C36.9477 394.846 36.7811 396.06 37.0939 397.418C37.4067 398.776 38.0758 399.759 39.1262 400.426C40.1766 401.093 41.3495 401.263 42.6855 400.931C44.0215 400.599 45.0048 399.929 45.6323 398.881C46.2816 397.852 46.4482 396.639 46.1354 395.281C45.8226 393.923 45.1317 392.922 44.0628 392.276Z" fill="white"/>
<path d="M43.5903 384.646C42.6624 386.003 41.325 386.823 39.5566 387.089C37.7881 387.354 36.2569 387.031 34.938 386.06C33.6409 385.107 32.8366 383.708 32.5503 381.921C32.2639 380.134 32.5661 378.584 33.4941 377.227C34.4035 375.893 35.7626 375.091 37.5278 374.785C39.3149 374.497 40.8275 374.843 42.1464 375.814C43.4435 376.766 44.2478 378.165 44.5341 379.952C44.8205 381.74 44.5183 383.29 43.5903 384.646ZM43.1294 380.188C42.916 378.802 42.2623 377.757 41.249 377.046C40.2358 376.335 39.0563 376.085 37.7728 376.311C36.4893 376.537 35.4591 377.129 34.7257 378.124C33.9923 379.119 33.7416 380.299 33.9768 381.704C34.2088 383.068 34.8221 384.117 35.8354 384.828C36.8704 385.557 38.0281 385.789 39.3148 385.603C40.5983 385.377 41.6286 384.785 42.3806 383.768C43.114 382.773 43.3832 381.571 43.1513 380.207L43.1294 380.188Z" fill="white"/>
<path d="M33.3836 361.473C34.0084 361.402 34.5469 361.521 34.9738 361.771C35.4007 362.021 35.6879 362.303 35.8133 362.598L36.0108 363.029L36.0916 363.022C36.0916 363.022 36.1334 362.531 36.2406 362.095C36.3391 361.802 36.4594 361.528 36.6233 361.291C36.8058 361.032 37.0506 360.789 37.4199 360.576C37.7892 360.363 38.1868 360.249 38.6499 360.191C40.7887 359.977 42.0036 361.424 42.2915 364.493L42.9045 370.586L31.3033 371.75L30.7163 365.981C30.5903 364.669 30.7481 363.598 31.193 362.81C31.638 362.021 32.3765 361.595 33.3836 361.473ZM41.3728 369.245L40.8989 364.626C40.6891 362.528 39.9578 361.529 38.6678 361.675C37.3778 361.82 36.8344 362.901 37.0627 364.978L37.5399 369.638L41.3728 369.245ZM33.644 362.936C32.413 363.056 31.9002 364.013 32.0872 365.829L32.5165 370.147L36.1691 369.789L35.7235 365.269C35.6584 364.461 35.426 363.849 35.0702 363.471C34.711 363.053 34.2316 362.909 33.6658 362.955L33.644 362.936Z" fill="white"/>
<path d="M35.3326 344.758L36.25 344.785L36.6313 355.575C36.9765 355.567 37.4888 355.363 38.1062 354.947C38.4722 354.693 38.8164 354.421 39.1355 354.09C39.4513 353.719 39.7202 353.27 39.9357 352.663C40.1512 352.055 40.2236 351.439 40.2086 350.749C40.1881 350.242 40.1305 349.779 39.992 349.322C39.8535 348.866 39.7029 348.512 39.4966 348.224C39.1059 347.665 38.7904 347.284 38.5131 347.124L38.3384 346.975L38.2574 345.212C38.3819 345.243 38.4878 345.295 38.5937 345.347C38.7837 345.434 39.0425 345.616 39.3918 345.913C39.763 346.229 40.1157 346.567 40.3875 346.911C40.7029 347.292 40.9692 347.819 41.1862 348.493C41.4436 349.164 41.5831 349.885 41.6078 350.697C41.6735 352.522 41.1474 354.07 40.0851 355.275C39.0043 356.501 37.5699 357.126 35.7666 357.211C33.9818 357.275 32.5152 356.743 31.3263 355.619C30.1778 354.492 29.5505 353.017 29.4662 351.213C29.4005 349.388 29.9113 347.903 30.9922 346.676C32.073 345.449 33.5074 344.824 35.2922 344.761L35.3326 344.758ZM35.2573 355.686L34.9091 346.318C33.9763 346.353 33.0575 346.814 32.168 347.638C31.2785 348.463 30.8662 349.656 30.9244 351.136C30.9827 352.616 31.4813 353.755 32.4202 354.554C33.3591 355.352 34.3245 355.721 35.2573 355.686Z" fill="white"/>
<path d="M41.4932 330.345L41.4488 331.813L36.1275 331.655L35.9139 339.605L41.2352 339.763L41.1907 341.232L29.5313 340.916L29.5757 339.448L34.53 339.595L34.7655 331.664L29.8112 331.517L29.8556 330.048L41.5151 330.364L41.4932 330.345Z" fill="white"/>
<path d="M35.8404 317.746C36.5464 316.915 37.5373 316.591 38.7878 316.713C40.0384 316.836 40.9326 317.333 41.5144 318.241C42.0775 319.172 42.2811 320.437 42.147 322.055L41.7527 326.5L30.1373 325.47L30.2626 323.995L34.2971 324.339L34.5662 321.368C34.7002 319.75 35.1312 318.535 35.859 317.724L35.8404 317.746ZM40.3921 319.207C40.0604 318.624 39.4653 318.306 38.6254 318.232C37.7855 318.157 37.1519 318.371 36.706 318.896C36.2601 319.42 36.0052 320.295 35.9008 321.524L35.6536 324.514L40.4876 324.935L40.7567 321.964C40.861 320.735 40.7457 319.809 40.414 319.226L40.3921 319.207Z" fill="white"/>
<path d="M41.8376 306.092C40.0009 307.279 37.8534 307.636 35.3765 307.186C32.8995 306.736 31.0203 305.627 29.7203 303.882C28.4203 302.136 27.9866 300.036 28.4379 297.558C28.6941 296.195 29.1501 295.039 29.8431 294.048C30.5579 293.074 31.3327 292.34 32.1739 291.926C32.9933 291.494 33.7853 291.226 34.5248 291.064C35.2643 290.903 35.9328 290.869 36.4712 290.988L36.1876 292.516C35.7114 292.412 34.9905 292.552 33.9811 292.898C33.3879 293.109 32.8416 293.398 32.3205 293.745C31.7993 294.092 31.2944 294.642 30.8211 295.331C30.3697 296.039 30.0307 296.88 29.8631 297.829C29.4973 299.852 29.8766 301.53 30.9637 302.906C32.0728 304.301 33.6495 305.19 35.6536 305.577C37.6762 305.942 39.4447 305.676 40.9776 304.759C42.5104 303.841 43.4504 302.382 43.8195 300.399C43.9871 299.45 43.9963 298.554 43.8066 297.715C43.617 296.876 43.3192 296.209 42.9721 295.688C42.6065 295.189 42.1818 294.715 41.7233 294.325C40.9372 293.656 40.2765 293.283 39.8222 293.198L40.1059 291.669C40.6629 291.767 41.2547 292.044 41.8968 292.439C42.5202 292.857 43.1753 293.414 43.7779 294.077C44.4023 294.758 44.8846 295.696 45.203 296.87C45.5213 298.044 45.5414 299.304 45.3037 300.645C44.8493 303.082 43.6961 304.925 41.8562 306.071L41.8376 306.092Z" fill="white"/>
<path d="M45.5939 287.339C43.6634 288.37 41.481 288.547 39.0686 287.889C36.6562 287.23 34.8666 285.972 33.7217 284.132C32.5551 282.274 32.3235 280.157 32.9647 277.766C33.6059 275.375 34.912 273.662 36.8425 272.631C38.7949 271.619 40.9587 271.463 43.3678 272.082C45.7803 272.74 47.5698 273.999 48.7146 275.838C49.8813 277.696 50.1129 279.813 49.4717 282.204C48.8119 284.617 47.5244 286.308 45.5939 287.339ZM47.3806 276.699C46.3863 275.213 44.921 274.193 42.9443 273.641C40.9491 273.112 39.1676 273.216 37.566 274.037C35.9829 274.837 34.8933 276.206 34.3779 278.14C33.8625 280.073 34.0801 281.764 35.0558 283.272C36.0315 284.779 37.4968 285.799 39.492 286.329C41.4873 286.859 43.2874 286.733 44.8704 285.933C46.4753 285.152 47.5245 283.786 48.0585 281.831C48.5958 279.916 48.3563 278.206 47.3806 276.699Z" fill="white"/>
<path d="M56.7456 259.138L52.3005 271.621L51.0862 271.191C50.4168 270.961 49.837 270.581 49.3687 270.069C48.9004 269.558 48.5467 268.956 48.3516 268.301C47.9208 266.993 47.7009 265.526 47.6668 263.841C47.6206 262.258 47.4411 260.788 47.1283 259.43C46.9735 258.771 46.7258 258.222 46.3416 257.745C45.9574 257.267 45.4835 256.94 44.9167 256.721C43.8487 256.34 42.9225 256.456 42.0571 257.075C41.1917 257.694 40.5392 258.683 40.0558 260.004C39.5756 261.365 39.4866 262.531 39.7919 263.544C40.0972 264.557 40.8057 265.272 41.936 265.668L42.3968 265.834L41.8642 267.301L41.4033 267.135C39.8745 266.588 38.8821 265.631 38.4229 264.224C37.9671 262.858 38.0421 261.265 38.6918 259.484C39.3415 257.702 40.2541 256.408 41.4516 255.619C42.6491 254.83 43.9795 254.682 45.4243 255.195C46.1997 255.478 46.8449 255.914 47.3634 256.543C47.8819 257.172 48.2235 257.877 48.4317 258.694C48.7347 259.93 48.9774 261.68 49.0757 263.91C49.1027 264.497 49.1451 265.023 49.1995 265.445C49.2539 265.868 49.3334 266.35 49.4533 266.828C49.5732 267.307 49.7084 267.723 49.8775 268.055C50.0467 268.387 50.2748 268.694 50.5401 268.957C50.8458 269.217 51.1296 269.459 51.525 269.569L55.422 258.615L56.7827 259.095L56.7456 259.138Z" fill="white"/>
<path d="M56.5326 238.327C57.1026 238.586 57.5175 238.939 57.7772 239.386C58.0151 239.814 58.1067 240.193 58.0705 240.501L58.0069 240.974L58.0506 241.011C58.137 240.821 58.3413 240.581 58.6637 240.29C58.9117 240.087 59.1412 239.906 59.3957 239.783C59.6689 239.639 60.0293 239.569 60.4367 239.577C60.8441 239.585 61.2799 239.692 61.6817 239.883C63.6255 240.783 63.9369 242.629 62.638 245.439L60.0739 250.976L49.4707 246.101L51.8927 240.819C52.4667 239.613 53.1322 238.786 53.9298 238.335C54.7274 237.884 55.5607 237.877 56.4889 238.29L56.5326 238.327ZM59.473 249.073L61.4106 244.847C62.293 242.925 62.1734 241.694 60.9711 241.161C59.7688 240.628 58.7855 241.297 57.8999 243.179L55.9252 247.448L59.4326 249.076L59.473 249.073ZM56.012 239.692C54.8938 239.193 53.963 239.756 53.2009 241.405L51.3836 245.356L54.7196 246.875L56.6233 242.734C56.9502 241.995 57.063 241.376 56.9803 240.854C56.8757 240.313 56.5602 239.932 56.012 239.692Z" fill="white"/>
<path d="M65.6813 232.215C64.6997 231.644 64.2021 230.769 64.1884 229.591C64.1748 228.412 64.5621 227.16 65.3284 225.817C65.7395 225.112 66.1974 224.485 66.7427 223.932C67.288 223.38 67.7284 223.039 68.0387 222.851L68.5663 222.584L66.7122 221.535C65.8802 221.053 65.0839 221.016 64.2799 221.386C63.4976 221.775 62.819 222.44 62.2845 223.379C61.7685 224.295 61.495 225.192 61.4858 226.088C61.4766 226.983 61.7275 227.573 62.2822 227.894L61.5312 229.176C60.7178 228.672 60.2234 227.837 60.0481 226.672C59.8729 225.506 60.1946 224.199 61.032 222.728C61.7797 221.406 62.7436 220.494 63.8612 219.976C65.0192 219.455 66.1857 219.543 67.4228 220.257L71.7076 222.696C72.1967 222.961 72.5735 223.093 72.875 223.048C73.1765 223.004 73.4059 222.822 73.6005 222.461C73.724 222.227 73.8105 222.037 73.8378 221.872L73.8313 221.791L74.9407 222.433C74.9198 222.679 74.8214 222.972 74.6082 223.355C74.2529 223.994 73.8344 224.354 73.3963 224.471C72.9583 224.588 72.6569 224.632 72.4515 224.608L72.3052 224.559L72.268 224.603C72.268 224.603 72.3596 224.982 72.3583 225.47C72.3657 225.815 72.3513 226.142 72.3151 226.45C72.2405 227.29 71.9047 228.171 71.3548 229.172C70.5513 230.559 69.6563 231.568 68.6883 232.175C67.7017 232.804 66.6848 232.805 65.6813 232.215ZM66.4291 230.894C67.6226 231.57 68.8758 230.716 70.2696 228.324C70.6806 227.62 70.9485 226.907 71.0734 226.185C71.1983 225.463 71.2805 224.968 71.2391 224.707C71.1977 224.446 71.1814 224.244 71.1498 224.104L69.7227 223.304C69.7227 223.304 69.4649 223.386 69.1917 223.53C68.9 223.696 68.5186 224.012 68.0291 224.499C67.5209 225.008 67.0412 225.617 66.6487 226.299C65.8266 227.708 65.5137 228.873 65.6476 229.777C65.7303 230.299 65.9835 230.665 66.4323 230.934L66.4291 230.894Z" fill="white"/>
<path d="M65.2679 215.977L71.2918 206.681L72.4514 207.441L69.8477 211.476L78.4757 217.082L77.6811 218.326L69.053 212.721L66.4493 216.756L65.2897 215.995L65.2679 215.977Z" fill="white"/>
<path d="M81.0366 196.107L80.9994 196.151L84.1884 203.418L82.9971 205.04L75.1137 204.134L75.0766 204.177L83.1431 210.134L82.2829 211.322L72.8975 204.395L74.2746 202.554L82.6777 203.602L82.7149 203.558L79.2629 195.803L80.6215 193.985L90.0069 200.912L89.1467 202.101L81.0802 196.144L81.0366 196.107Z" fill="white"/>
<path d="M91.9886 195.972C90.372 196.103 88.8868 195.593 87.5298 194.401C86.176 193.25 85.4711 191.822 85.3998 190.18C85.31 188.56 85.9016 187.068 87.0939 185.71C88.2862 184.353 89.689 183.588 91.3056 183.457C92.9222 183.326 94.4074 183.836 95.7644 185.027C97.1215 186.219 97.8231 187.606 97.8944 189.248C97.9842 190.868 97.3926 192.36 96.2003 193.718C95.0298 195.094 93.6052 195.84 91.9886 195.972ZM95.1489 192.786C96.0593 191.716 96.4968 190.582 96.3958 189.329C96.2949 188.076 95.7438 187.043 94.7579 186.167C93.7535 185.313 92.6418 184.894 91.4261 184.952C90.1918 185.032 89.1179 185.587 88.1857 186.639C87.2753 187.709 86.8564 188.821 86.917 190.077C87.0179 191.33 87.5504 192.386 88.5363 193.262C89.5407 194.116 90.6306 194.516 91.8867 194.454C93.1428 194.393 94.2167 193.838 95.1489 192.786Z" fill="white"/>
<path d="M102.183 184.425C100.56 184.476 99.1088 183.881 97.8293 182.643C96.5498 181.404 95.9039 179.951 95.8949 178.325C95.8891 176.739 96.5026 175.265 97.779 173.941C98.3429 173.367 98.9383 172.932 99.5993 172.553C100.264 172.214 100.897 172 101.522 171.929C102.106 171.861 102.657 171.878 103.232 171.953C104.24 172.095 104.975 172.381 105.462 172.871L104.394 173.995C104.263 173.883 104.029 173.76 103.674 173.646C103.319 173.533 102.905 173.444 102.414 173.403C101.882 173.364 101.279 173.454 100.648 173.708C99.9776 173.966 99.4007 174.379 98.8554 174.932C97.8795 175.947 97.4203 177.062 97.4371 178.281C97.4758 179.519 97.9898 180.596 98.9166 181.497C99.8653 182.417 100.94 182.879 102.181 182.88C103.403 182.903 104.52 182.385 105.496 181.37C106.042 180.817 106.419 180.197 106.671 179.546C106.884 178.898 106.978 178.301 106.914 177.757C106.77 176.731 106.575 176.075 106.288 175.794L107.378 174.688C107.706 174.967 107.991 175.472 108.214 176.227C108.434 176.942 108.518 177.728 108.425 178.59C108.371 179.184 108.181 179.851 107.869 180.527C107.557 181.203 107.099 181.83 106.554 182.383C105.296 183.685 103.865 184.35 102.242 184.4L102.183 184.425Z" fill="white"/>
<path d="M112.866 173.633C111.221 173.664 109.763 172.989 108.555 171.623C107.347 170.257 106.84 168.772 107.034 167.129C107.227 165.486 108.083 163.993 109.517 162.616L106.342 159.049L107.442 158.065L110.636 161.61C112.158 160.306 113.733 159.65 115.399 159.637C117.066 159.624 118.484 160.302 119.711 161.647C120.919 163.013 121.447 164.516 121.232 166.14C121.039 167.783 120.183 169.276 118.748 170.654L121.786 174.028L120.686 175.012L117.648 171.638C116.126 172.941 114.551 173.598 112.885 173.611L112.866 173.633ZM119.717 166.019C119.84 164.768 119.466 163.66 118.551 162.656C117.636 161.652 116.599 161.146 115.336 161.127C114.074 161.107 112.835 161.635 111.576 162.672L117.768 169.594C118.939 168.482 119.594 167.27 119.717 166.019ZM116.668 170.579L110.476 163.657C109.286 164.79 108.65 165.981 108.527 167.232C108.404 168.483 108.8 169.61 109.692 170.595C110.585 171.58 111.645 172.105 112.907 172.124C114.17 172.144 115.431 171.635 116.668 170.579Z" fill="white"/>
<path d="M132.112 151.976L132.6 152.73L124.041 159.343C124.247 159.631 124.718 159.918 125.431 160.186C125.851 160.355 126.265 160.444 126.72 160.529C127.192 160.592 127.736 160.528 128.351 160.336C128.966 160.143 129.513 159.855 130.068 159.424C130.471 159.126 130.809 158.774 131.084 158.405C131.381 158.056 131.576 157.694 131.712 157.358C131.946 156.729 132.05 156.252 132.024 155.929L132.026 155.705L133.443 154.614C133.443 154.614 133.503 154.853 133.513 154.974C133.548 155.155 133.555 155.5 133.51 155.951C133.468 156.442 133.405 156.915 133.257 157.355C133.113 157.834 132.85 158.364 132.448 158.925C132.049 159.527 131.544 160.077 130.912 160.555C129.457 161.69 127.929 162.16 126.308 161.986C124.687 161.813 123.322 161.028 122.232 159.612C121.142 158.195 120.713 156.663 120.95 155.058C121.187 153.452 122.034 152.102 123.469 150.989C124.905 149.876 126.433 149.406 128.036 149.601C129.656 149.775 131.003 150.581 132.093 151.998L132.112 151.976ZM123.182 158.273L130.612 152.545C130.043 151.798 129.149 151.301 127.932 151.095C126.734 150.866 125.541 151.207 124.354 152.117C123.166 153.027 122.56 154.093 122.456 155.322C122.351 156.551 122.595 157.548 123.182 158.273Z" fill="white"/>
<path d="M136.986 141.289C138.453 140.315 139.973 139.989 141.581 140.265C143.171 140.563 144.465 141.475 145.456 142.92C146.451 144.406 146.776 145.925 146.437 147.519C146.098 149.113 145.204 150.385 143.736 151.359C142.08 152.51 140.374 152.791 138.636 152.179L138.571 152.123L138.496 152.211L142.264 157.824L141.029 158.657L131.896 145.017L133.131 144.184L134.241 145.844L134.297 145.778L134.312 145.716C134.448 143.874 135.326 142.399 137.007 141.307L136.986 141.289ZM144.931 147.255C145.157 146.016 144.9 144.857 144.163 143.778C143.425 142.699 142.455 142.025 141.232 141.737C140.012 141.491 138.835 141.769 137.656 142.536C136.517 143.3 135.824 144.291 135.555 145.493C135.308 146.713 135.564 147.872 136.327 149.01C137.089 150.148 138.059 150.822 139.297 151.047C140.496 151.276 141.695 151.016 142.833 150.252C143.991 149.467 144.683 148.475 144.931 147.255Z" fill="white"/>
<path d="M158.996 135.008L159.388 135.831L150.019 141.228C150.207 141.538 150.622 141.891 151.26 142.246C151.644 142.459 152.064 142.629 152.481 142.757C152.939 142.883 153.489 142.899 154.111 142.788C154.732 142.677 155.326 142.466 155.928 142.112C156.356 141.874 156.759 141.577 157.078 141.246C157.419 140.933 157.654 140.568 157.815 140.291C158.133 139.695 158.299 139.235 158.314 138.908L158.356 138.681L159.892 137.804C159.892 137.804 159.912 138.046 159.922 138.167C159.916 138.351 159.883 138.699 159.798 139.154C159.694 139.63 159.568 140.088 159.358 140.511C159.17 140.954 158.823 141.45 158.337 141.977C157.873 142.524 157.28 142.999 156.601 143.4C154.987 144.324 153.421 144.573 151.846 144.212C150.268 143.812 149.03 142.834 148.132 141.28C147.233 139.725 147.026 138.156 147.49 136.592C147.953 135.029 148.953 133.809 150.527 132.888C152.081 131.989 153.666 131.718 155.244 132.119C156.823 132.52 158.039 133.479 158.937 135.033L158.996 135.008ZM149.293 140.046L157.417 135.36C156.945 134.544 156.144 133.938 154.954 133.566C153.784 133.173 152.559 133.374 151.274 134.089C149.993 134.844 149.216 135.802 148.965 136.981C148.718 138.201 148.799 139.212 149.271 140.028L149.293 140.046Z" fill="white"/>
<path d="M176.04 122.134L175.276 130.067L173.45 130.887L166.996 126.264L171.109 135.409L169.756 136.027L164.934 125.414L167.015 124.473L173.865 129.47L174.627 121.008L176.707 120.066L181.528 130.679L180.175 131.297L176.024 122.196L176.04 122.134Z" fill="white"/>
<path d="M185.758 127.387C184.263 126.755 183.192 125.581 182.589 123.901C181.946 122.224 182.002 120.653 182.696 119.173C183.413 117.712 184.609 116.659 186.308 116.033C188.007 115.407 189.593 115.4 191.087 116.032C192.582 116.663 193.632 117.819 194.257 119.517C194.9 121.194 194.844 122.765 194.149 124.245C193.433 125.706 192.237 126.759 190.538 127.385C188.839 128.011 187.253 128.018 185.758 127.387ZM190.045 126.063C191.368 125.569 192.257 124.744 192.757 123.625C193.275 122.485 193.262 121.306 192.816 120.061C192.369 118.816 191.567 117.945 190.446 117.406C189.306 116.888 188.105 116.884 186.801 117.356C185.497 117.828 184.588 118.674 184.089 119.793C183.57 120.933 183.565 122.134 184.03 123.357C184.495 124.58 185.279 125.473 186.419 125.991C187.54 126.53 188.762 126.553 190.063 126.041L190.045 126.063Z" fill="white"/>
<path d="M215.327 119.252L213.419 119.814L205.212 116.147L206.843 121.751L205.433 122.17L203.802 116.567L198.857 124.107L196.949 124.669L201.928 117.044L194.125 113.344L196.032 112.783L203.755 116.489L202.152 110.985L203.562 110.565L205.165 116.07L209.682 108.767L211.589 108.206L207.035 115.552L215.348 119.271L215.327 119.252Z" fill="white"/>
<path d="M227.054 110.816L227.188 111.721L216.614 114.022C216.684 114.383 216.984 114.826 217.496 115.375C217.786 115.697 218.136 115.994 218.501 116.229C218.909 116.501 219.41 116.664 220.048 116.754C220.686 116.845 221.314 116.814 221.994 116.678C222.495 116.576 222.929 116.419 223.339 116.203C223.749 115.986 224.096 115.755 224.341 115.511C224.812 115.046 225.125 114.634 225.223 114.341L225.328 114.129L227.068 113.764C227.068 113.764 227.007 114.013 226.976 114.138C226.93 114.325 226.791 114.621 226.56 115.026C226.309 115.453 226.056 115.84 225.759 116.189C225.443 116.561 224.962 116.905 224.36 117.259C223.739 117.635 223.05 117.914 222.27 118.079C220.471 118.469 218.865 118.233 217.497 117.409C216.107 116.565 215.229 115.253 214.843 113.495C214.457 111.736 214.719 110.189 215.647 108.833C216.556 107.498 217.89 106.637 219.668 106.229C221.426 105.842 223.032 106.078 224.381 106.924C225.771 107.768 226.65 109.079 227.036 110.838L227.054 110.816ZM216.283 112.686L225.459 110.702C225.263 109.782 224.647 108.957 223.674 108.243C222.679 107.51 221.444 107.325 220.006 107.645C218.567 107.965 217.525 108.66 216.919 109.726C216.313 110.792 216.09 111.807 216.305 112.705L216.283 112.686Z" fill="white"/>
<path d="M227.707 104.783L238.672 103.04L238.904 104.404L234.164 105.155L235.774 115.296L234.329 115.535L232.719 105.394L227.979 106.144L227.747 104.78L227.707 104.783Z" fill="white"/>
<path d="M258.317 112.857L256.862 112.975L256.051 102.912L256.029 102.893L249.525 113.55L247.464 113.717L246.548 102.096L248.003 101.978L248.814 112.041L248.836 112.06L255.34 101.403L257.401 101.236L258.317 112.857Z" fill="white"/>
<path d="M272.248 109.307C272.284 110.504 271.805 111.377 270.793 111.947C269.822 112.514 268.482 112.806 266.878 112.834C263.243 112.905 261.401 111.753 261.355 109.417L261.351 109.113L262.834 109.094L262.838 109.399C262.838 110.151 263.188 110.713 263.864 111.024C264.54 111.335 265.53 111.499 266.87 111.472C269.51 111.421 270.835 110.703 270.809 109.363C270.779 107.982 269.482 107.294 266.861 107.323L264.831 107.366L264.801 105.985L267.055 105.945C269.284 105.845 270.411 105.184 270.372 103.947C270.349 102.647 269.099 102.036 266.621 102.075C265.402 102.092 264.482 102.289 263.84 102.646C263.219 103.022 262.913 103.514 262.903 104.146L262.91 104.227L261.427 104.245L261.42 104.164C261.391 103.048 261.851 102.197 262.819 101.59C263.769 101.004 265.024 100.679 266.588 100.654C268.171 100.607 269.434 100.89 270.391 101.403C271.347 101.915 271.82 102.731 271.827 103.829C271.835 104.438 271.676 104.98 271.304 105.417C270.951 105.832 270.607 106.104 270.25 106.214L269.716 106.4L269.737 106.419C269.99 106.52 270.282 106.619 270.556 106.739C270.852 106.877 271.108 107.02 271.326 107.205C271.566 107.409 271.773 107.698 271.964 108.048C272.136 108.421 272.228 108.8 272.242 109.226L272.248 109.307Z" fill="white"/>
<path d="M287.364 103.036L287.342 103.018L283.062 109.731L281.062 109.65L277.423 102.602L277.401 102.583L276.928 112.609L275.457 112.525L276.002 100.866L278.288 100.966L282.091 108.529L282.113 108.547L286.658 101.344L288.944 101.444L288.398 113.102L286.927 113.018L287.382 103.015L287.364 103.036Z" fill="white"/>
<path d="M304.706 109.013L304.535 109.922L293.818 108.676C293.785 109.025 293.908 109.543 294.209 110.251C294.385 110.664 294.638 111.03 294.891 111.396C295.207 111.777 295.618 112.09 296.173 112.411C296.725 112.691 297.35 112.885 298.029 112.972C298.52 113.014 299.008 113.015 299.471 112.957C299.935 112.899 300.332 112.785 300.646 112.638C301.254 112.365 301.657 112.068 301.88 111.805L302.029 111.631L303.796 111.853C303.722 111.941 303.651 112.069 303.598 112.175C303.468 112.328 303.264 112.568 302.923 112.88C302.563 113.215 302.179 113.49 301.769 113.706C301.341 113.944 300.766 114.133 300.086 114.27C299.387 114.428 298.637 114.469 297.856 114.369C296.03 114.172 294.588 113.434 293.551 112.176C292.514 110.918 292.107 109.405 292.309 107.619C292.511 105.833 293.274 104.449 294.558 103.47C295.842 102.491 297.398 102.121 299.203 102.3C301.007 102.479 302.431 103.238 303.446 104.478C304.483 105.736 304.89 107.249 304.688 109.035L304.706 109.013ZM293.909 107.286L303.23 108.36C303.339 107.436 303.036 106.464 302.324 105.444C301.611 104.423 300.508 103.862 299.049 103.675C297.571 103.51 296.397 103.829 295.467 104.657C294.537 105.485 294.018 106.361 293.909 107.286Z" fill="white"/>
<path d="M318.003 117.271L316.537 117.004L317.498 111.759L309.675 110.339L308.714 115.584L307.248 115.316L309.334 103.838L310.799 104.105L309.909 108.958L317.732 110.377L318.641 105.503L320.107 105.771L318.021 117.249L318.003 117.271Z" fill="white"/>
<path d="M332.273 120.711L330.881 120.356L333.327 110.577L333.305 110.558L323.763 118.594L321.749 118.086L324.578 106.751L325.97 107.106L323.505 116.906L323.527 116.925L333.069 108.889L335.083 109.397L332.254 120.732L332.273 120.711Z" fill="white"/>
<path d="M337.891 110.166L348.47 113.478L348.068 114.792L343.479 113.374L340.405 123.183L339.007 122.748L342.081 112.938L337.492 111.521L337.895 110.207L337.891 110.166Z" fill="white"/>
<path d="M357.065 121.954C357.646 122.863 357.709 123.895 357.275 125.07C356.841 126.244 356.106 126.975 355.075 127.302C354.022 127.611 352.75 127.471 351.218 126.883L347.023 125.311L351.085 114.385L352.468 114.883L351.045 118.68L353.854 119.713C355.364 120.282 356.439 121.008 357.043 121.936L357.065 121.954ZM354.439 125.971C355.076 125.797 355.566 125.31 355.849 124.534C356.132 123.759 356.099 123.09 355.726 122.51C355.336 121.952 354.563 121.445 353.411 121.03L350.602 119.997L348.914 124.548L351.723 125.581C352.875 125.996 353.78 126.126 354.439 125.971Z" fill="white"/>
<path d="M366.473 120.316L367.909 120.973L367.931 132.362L367.975 132.399L376.612 124.986L378.048 125.642L367.771 134.409C366.497 135.509 365.436 136.225 364.551 136.602C363.666 136.979 362.833 136.986 362.073 136.64C361.609 136.434 361.284 136.196 361.041 135.951L360.91 135.84L361.481 134.593C361.706 134.86 362.114 135.132 362.643 135.394C363.067 135.604 363.593 135.561 364.142 135.313C364.71 135.043 365.442 134.536 366.335 133.752L366.484 133.577L366.473 120.316Z" fill="white"/>
<path d="M385.951 129.578C387.502 130.408 388.514 131.608 389.005 133.154C389.496 134.701 389.296 136.263 388.465 137.815C387.616 139.389 386.416 140.402 384.866 140.853C383.294 141.286 381.754 141.106 380.202 140.275C378.398 139.344 377.352 137.964 377.102 136.133L377.096 136.052L377.03 135.997L373.809 141.953L372.512 141.265L380.296 126.803L381.593 127.491L380.638 129.277L380.704 129.332L380.778 129.245C382.467 128.498 384.184 128.603 385.929 129.559L385.951 129.578ZM384.382 139.387C385.571 139.006 386.467 138.262 387.085 137.093C387.703 135.924 387.854 134.773 387.511 133.54C387.17 132.347 386.383 131.414 385.131 130.763C383.919 130.109 382.727 129.962 381.534 130.302C380.341 130.643 379.427 131.409 378.772 132.621C378.136 133.812 377.988 135.004 378.368 136.193C378.727 137.364 379.514 138.297 380.726 138.951C381.96 139.624 383.17 139.75 384.341 139.39L384.382 139.387Z" fill="white"/>
<path d="M390.332 144.071C389.941 142.496 390.221 140.927 391.158 139.427C392.114 137.906 393.382 136.989 394.982 136.656C396.583 136.323 398.114 136.646 399.657 137.619C401.178 138.574 402.156 139.857 402.547 141.433C402.938 143.008 402.655 144.536 401.699 146.058C400.744 147.579 399.476 148.496 397.875 148.829C396.275 149.162 394.744 148.839 393.201 147.866C391.658 146.892 390.702 145.627 390.311 144.052L390.332 144.071ZM393.98 146.684C395.158 147.422 396.357 147.65 397.574 147.368C398.792 147.087 399.732 146.38 400.456 145.263C401.139 144.15 401.371 142.992 401.13 141.771C400.871 140.572 400.14 139.574 398.962 138.835C397.783 138.097 396.585 137.868 395.367 138.15C394.149 138.432 393.191 139.161 392.486 140.255C391.781 141.35 391.571 142.526 391.833 143.766C392.093 144.965 392.824 145.964 394.002 146.702L393.98 146.684Z" fill="white"/>
<path d="M414.51 151.832C414.145 152.35 413.724 152.669 413.248 152.83C412.773 152.99 412.388 153.001 412.095 152.903L411.637 152.777L411.6 152.821C411.753 152.951 411.975 153.177 412.188 153.546C412.353 153.838 412.476 154.093 412.539 154.372C412.624 154.67 412.613 155.037 412.524 155.451C412.435 155.865 412.263 156.246 411.987 156.614C410.743 158.342 408.849 158.312 406.343 156.482L401.398 152.916L408.242 143.452L412.95 146.854C414.029 147.62 414.707 148.46 414.999 149.311C415.291 150.162 415.136 151.009 414.551 151.829L414.51 151.832ZM403.39 152.653L407.147 155.359C408.874 156.602 410.081 156.687 410.852 155.648C411.622 154.609 411.146 153.489 409.44 152.264L405.639 149.521L403.39 152.653ZM413.248 151.06C413.963 150.087 413.574 149.041 412.105 147.98L408.585 145.438L406.425 148.42L410.098 151.092C410.747 151.568 411.335 151.805 411.904 151.8C412.433 151.798 412.902 151.556 413.23 151.082L413.248 151.06Z" fill="white"/>
<path d="M425.667 164.332L425.029 164.994L416.686 158.124C416.463 158.386 416.281 158.91 416.178 159.65C416.111 160.083 416.107 160.531 416.142 160.975C416.182 161.46 416.364 161.954 416.674 162.519C416.984 163.083 417.408 163.558 417.932 164.003C418.303 164.319 418.73 164.569 419.154 164.779C419.578 164.988 419.973 165.099 420.303 165.153C420.981 165.241 421.469 165.242 421.786 165.135L422.025 165.075L423.379 166.226C423.379 166.226 423.184 166.323 423.066 166.373C422.889 166.449 422.569 166.515 422.127 166.592C421.646 166.672 421.161 166.711 420.71 166.666C420.218 166.625 419.658 166.487 418.985 166.216C418.312 165.945 417.674 165.59 417.062 165.07C415.665 163.882 414.842 162.505 414.631 160.894C414.438 159.263 414.909 157.78 416.057 156.385C417.206 154.99 418.59 154.248 420.207 154.116C421.823 153.985 423.33 154.514 424.725 155.662C426.119 156.81 426.923 158.209 427.112 159.801C427.302 161.392 426.835 162.915 425.686 164.31L425.667 164.332ZM417.534 157.039L424.767 163.001C425.38 162.28 425.647 161.303 425.586 160.047C425.529 158.831 424.931 157.72 423.799 156.795C422.663 155.829 421.474 155.458 420.25 155.659C419.025 155.86 418.125 156.299 417.512 157.02L417.534 157.039Z" fill="white"/>
<path d="M432.358 178.454L431.282 177.464L434.934 173.567L429.127 168.14L425.475 172.036L424.398 171.045L432.378 162.547L433.455 163.537L430.084 167.147L435.891 172.574L439.261 168.965L440.338 169.956L432.38 178.473L432.358 178.454Z" fill="white"/>
<path d="M445.524 182.573C445.649 183.621 445.261 184.608 444.353 185.455C443.426 186.323 442.457 186.666 441.406 186.487C440.332 186.29 439.26 185.604 438.127 184.414L435.058 181.165L443.521 173.115L444.524 174.193L441.576 176.995L443.643 179.167C444.754 180.337 445.396 181.485 445.543 182.552L445.524 182.573ZM441.41 185.023C442.073 185.172 442.703 184.918 443.307 184.34C443.912 183.762 444.167 183.151 444.072 182.468C443.976 181.784 443.485 180.99 442.642 180.122L440.575 177.951L437.061 181.287L439.128 183.458C439.974 184.366 440.747 184.873 441.41 185.023Z" fill="white"/>
<path d="M449.359 194.832C449.512 193.193 450.297 191.827 451.692 190.718C453.087 189.608 454.597 189.16 456.221 189.374C457.845 189.588 459.192 190.394 460.322 191.808C461.453 193.221 461.941 194.727 461.788 196.367C461.636 198.007 460.869 199.35 459.455 200.482C458.041 201.613 456.532 202.061 454.948 201.844C453.324 201.63 451.978 200.824 450.847 199.41C449.716 197.997 449.228 196.491 449.381 194.851L449.359 194.832ZM451.932 198.488C452.813 199.576 453.86 200.203 455.089 200.307C456.317 200.411 457.47 200.073 458.502 199.257C459.535 198.441 460.122 197.397 460.289 196.183C460.433 194.951 460.075 193.78 459.194 192.692C458.313 191.604 457.266 190.977 456.037 190.874C454.786 190.751 453.656 191.108 452.623 191.924C451.591 192.74 451.004 193.784 450.859 195.016C450.714 196.248 451.073 197.419 451.954 198.507L451.932 198.488Z" fill="white"/>
<path d="M463.011 215.591L461.864 213.975L462.481 204.711L457.707 208.068L456.857 206.856L466.404 200.142L467.254 201.354L462.558 204.664L471.158 206.896L472.306 208.511L463.705 206.28L463.033 215.609L463.011 215.591Z" fill="white"/>
<path d="M474.957 223.755L474.157 224.165L468.473 214.965C468.163 215.153 467.831 215.586 467.498 216.244C467.285 216.627 467.156 217.045 467.048 217.481C466.944 217.957 466.946 218.486 467.057 219.107C467.169 219.729 467.419 220.318 467.773 220.92C468.029 221.327 468.345 221.708 468.676 222.027C469.007 222.346 469.331 222.584 469.649 222.741C470.262 223.037 470.723 223.203 471.068 223.196L471.314 223.216L472.249 224.727C472.249 224.727 472.007 224.747 471.886 224.756C471.684 224.773 471.376 224.737 470.903 224.673C470.408 224.592 469.95 224.466 469.53 224.297C469.088 224.109 468.573 223.784 468.049 223.339C467.503 222.874 467.01 222.304 466.591 221.647C465.63 220.077 465.32 218.495 465.641 216.924C465.98 215.33 466.915 214.054 468.426 213.118C469.937 212.182 471.5 211.892 473.081 212.333C474.659 212.734 475.897 213.712 476.876 215.26C477.855 216.807 478.144 218.371 477.783 219.946C477.443 221.539 476.509 222.815 474.976 223.733L474.957 223.755ZM469.633 214.22L474.566 222.18C475.36 221.688 475.942 220.827 476.295 219.66C476.649 218.492 476.426 217.249 475.654 215.989C474.881 214.73 473.886 213.997 472.67 213.791C471.453 213.584 470.446 213.706 469.652 214.198L469.633 214.22Z" fill="white"/>
<path d="M474.157 227.705C475.172 227.175 476.152 227.217 477.159 227.848C478.165 228.478 479.037 229.445 479.738 230.832C480.102 231.555 480.384 232.285 480.567 233.043C480.729 233.782 480.815 234.345 480.782 234.693L480.728 235.287L482.621 234.3C483.459 233.846 483.936 233.197 484.047 232.313C484.141 231.451 483.945 230.531 483.44 229.576C482.958 228.638 482.312 227.938 481.583 227.469C480.831 226.98 480.193 226.89 479.629 227.2L478.934 225.893C479.815 225.476 480.773 225.5 481.848 225.962C482.922 226.424 483.855 227.406 484.648 228.908C485.346 230.255 485.612 231.535 485.467 232.767C485.282 234.003 484.586 234.954 483.338 235.625L478.99 237.951C478.503 238.214 478.199 238.483 478.057 238.738C477.936 239.012 477.981 239.314 478.172 239.664C478.291 239.879 478.428 240.071 478.559 240.182L478.625 240.238L477.492 240.818C477.317 240.669 477.114 240.421 476.901 240.052C476.545 239.41 476.459 238.847 476.606 238.408C476.735 237.991 476.874 237.695 477.004 237.542L477.097 237.433L477.075 237.414C476.973 237.402 476.699 237.282 476.312 237.029C476.013 236.85 475.754 236.667 475.514 236.463C474.862 235.946 474.253 235.202 473.724 234.188C472.979 232.763 472.61 231.471 472.618 230.311C472.626 229.151 473.167 228.293 474.161 227.745L474.157 227.705ZM474.856 229.051C473.645 229.679 473.688 231.221 474.984 233.679C475.366 234.38 475.823 234.994 476.372 235.498C476.899 235.984 477.311 236.297 477.544 236.42C477.778 236.544 477.968 236.63 478.114 236.679L479.558 235.911C479.558 235.911 479.638 235.64 479.655 235.354C479.67 235.028 479.609 234.524 479.472 233.843C479.333 233.123 479.072 232.411 478.69 231.71C477.923 230.267 477.139 229.375 476.295 228.996C475.831 228.789 475.365 228.807 474.896 229.048L474.856 229.051Z" fill="white"/>
<path d="M482.884 252.707L482.288 251.372L487.156 249.187L483.886 241.926L479.018 244.111L478.423 242.776L489.059 237.968L489.655 239.303L485.141 241.337L488.41 248.597L492.925 246.563L493.542 247.917L482.906 252.725L482.884 252.707Z" fill="white"/>
<path d="M486.156 256.957C486.788 255.461 487.963 254.39 489.643 253.786C491.32 253.141 492.89 253.197 494.37 253.891C495.831 254.606 496.883 255.802 497.508 257.501C498.133 259.199 498.139 260.785 497.507 262.281C496.875 263.776 495.719 264.826 494.02 265.452C492.343 266.096 490.773 266.041 489.293 265.347C487.832 264.632 486.78 263.435 486.155 261.737C485.53 260.038 485.524 258.452 486.156 256.957ZM487.478 261.243C487.971 262.566 488.795 263.455 489.913 263.954C491.053 264.472 492.232 264.458 493.477 264.011C494.722 263.564 495.593 262.761 496.133 261.639C496.652 260.499 496.657 259.299 496.185 257.994C495.714 256.69 494.868 255.782 493.75 255.283C492.61 254.766 491.41 254.761 490.186 255.227C488.962 255.692 488.07 256.476 487.551 257.617C487.011 258.738 486.988 259.961 487.499 261.262L487.478 261.243Z" fill="white"/>
<path d="M500.663 277.727C500.066 277.898 499.519 277.922 499.036 277.737C498.575 277.571 498.233 277.355 498.07 277.104L497.795 276.719L497.758 276.763C497.758 276.763 497.797 277.248 497.749 277.659C497.712 277.967 497.636 278.278 497.534 278.53C497.395 278.826 497.194 279.107 496.89 279.376C496.587 279.644 496.195 279.839 495.761 279.996C493.717 280.63 492.238 279.448 491.348 276.469L489.576 270.633L500.733 267.246L502.402 272.806C502.789 274.077 502.833 275.131 502.538 276.009C502.261 276.865 501.616 277.447 500.663 277.727ZM500.145 276.346C501.316 275.986 501.638 274.943 501.113 273.216L499.863 269.066L496.35 270.144L497.656 274.493C497.902 275.266 498.23 275.809 498.664 276.14C499.097 276.471 499.592 276.553 500.166 276.364L500.145 276.346ZM491.324 271.63L492.658 276.078C493.269 278.103 494.189 278.924 495.419 278.539C496.65 278.155 496.963 276.99 496.355 275.005L494.995 270.498L491.302 271.612L491.324 271.63Z" fill="white"/>
<path d="M490.511 285.019L492.742 284.431C493.04 284.346 493.207 284.149 493.262 283.819C493.317 283.489 493.565 283.286 493.981 283.151C494.261 283.087 494.507 283.108 494.722 283.253C494.937 283.399 495.115 283.588 495.159 283.889C495.333 284.526 495.023 284.978 494.268 285.202C493.271 285.446 492.407 285.577 491.67 285.515C490.933 285.452 490.553 285.28 490.471 285.022L490.511 285.019Z" fill="white"/>
<path d="M498.852 292.6C499.973 292.387 500.917 292.738 501.679 293.612C502.441 294.486 502.986 295.703 503.272 297.225C503.418 298.027 503.461 298.817 503.42 299.573C503.339 300.332 503.242 300.889 503.146 301.222L502.928 301.789L505.031 301.395C505.973 301.217 506.624 300.716 506.967 299.916C507.309 299.115 507.396 298.172 507.19 297.131C506.984 296.09 506.611 295.246 506.027 294.561C505.464 293.895 504.869 293.577 504.229 293.71L503.95 292.268C504.895 292.131 505.814 292.422 506.709 293.184C507.604 293.945 508.212 295.177 508.526 296.799C508.808 298.281 508.691 299.613 508.17 300.713C507.652 301.853 506.69 302.542 505.289 302.818L500.441 303.74C499.9 303.845 499.527 304.017 499.32 304.217C499.134 304.436 499.076 304.725 499.149 305.126C499.19 305.387 499.269 305.605 499.341 305.741L499.406 305.797L498.145 306.042C498.007 305.849 497.882 305.554 497.809 305.154C497.669 304.433 497.726 303.879 498.002 303.511C498.255 303.124 498.46 302.884 498.615 302.79L498.733 302.739L498.726 302.659C498.726 302.659 498.443 302.417 498.109 302.058C497.865 301.813 497.681 301.543 497.496 301.274C497.015 300.601 496.679 299.713 496.445 298.572C496.134 296.991 496.17 295.666 496.526 294.538C496.883 293.411 497.624 292.761 498.786 292.545L498.852 292.6ZM499.134 294.083C497.791 294.334 497.383 295.832 497.906 298.535C498.052 299.337 498.313 300.048 498.67 300.69C499.026 301.333 499.323 301.736 499.501 301.925C499.698 302.092 499.851 302.222 499.982 302.333L501.604 302.018C501.604 302.018 501.727 301.785 501.848 301.511C501.965 301.196 502.047 300.701 502.113 300.004C502.175 299.267 502.135 298.518 501.989 297.716C501.697 296.112 501.202 295.013 500.503 294.419C500.11 294.085 499.653 293.959 499.152 294.061L499.134 294.083Z" fill="white"/>
<path d="M510.527 310.285L511.74 321.293L510.369 321.444L509.842 316.667L499.621 317.801L499.463 316.349L509.684 315.215L509.157 310.437L510.527 310.285Z" fill="white"/>
<path d="M503.419 323.289C504.554 323.238 505.445 323.694 506.092 324.659C506.721 325.645 507.108 326.916 507.192 328.455C507.238 329.285 507.179 330.063 507.035 330.807C506.851 331.554 506.692 332.096 506.534 332.413L506.25 332.925L508.377 332.813C509.328 332.756 510.048 332.352 510.496 331.604C510.944 330.856 511.156 329.944 511.09 328.871C511.045 327.817 510.75 326.925 510.302 326.168C509.836 325.433 509.278 325.072 508.65 325.102L508.573 323.644C509.528 323.628 510.397 324.066 511.178 324.918C511.962 325.81 512.389 327.077 512.504 328.756C512.606 330.273 512.303 331.559 511.613 332.591C510.945 333.642 509.893 334.216 508.475 334.29L503.575 334.565C503.028 334.589 502.631 334.703 502.423 334.903C502.193 335.084 502.117 335.396 502.128 335.781C502.129 336.046 502.185 336.244 502.261 336.421L502.326 336.477L501.029 336.541C500.911 336.327 500.844 336.007 500.812 335.603C500.771 334.854 500.913 334.334 501.232 334.003C501.529 333.653 501.777 333.45 501.954 333.375L502.094 333.343L502.087 333.262C502.087 333.262 501.803 333.021 501.566 332.593C501.381 332.323 501.215 332.031 501.049 331.74C500.664 330.998 500.446 330.06 500.395 328.925C500.306 327.305 500.506 326.007 501.009 324.929C501.512 323.851 502.343 323.316 503.497 323.242L503.419 323.289ZM503.521 324.806C502.166 324.896 501.546 326.289 501.708 329.062C501.755 329.892 501.916 330.632 502.195 331.321C502.475 332.01 502.712 332.439 502.872 332.649C503.031 332.86 503.165 333.012 503.275 333.105L504.894 333.014C504.894 333.014 505.08 332.796 505.222 332.54C505.361 332.244 505.528 331.783 505.674 331.08C505.821 330.376 505.902 329.617 505.837 328.809C505.747 327.189 505.41 326.036 504.804 325.333C504.467 324.933 504.025 324.745 503.521 324.806Z" fill="white"/>
<path d="M500.915 349.507L500.939 347.532L506.784 340.305L500.966 340.289L500.97 338.824L512.647 338.854L512.643 340.318L506.905 340.296L512.618 347.073L512.594 349.048L506.841 342.274L500.915 349.507Z" fill="white"/>
<path d="M499.683 368.3L499.828 366.315L506.124 359.886L500.295 359.484L500.38 358.012L506.209 358.414L500.865 351.159L500.991 349.196L506.382 356.529L512.589 350.513L512.463 352.476L506.293 358.448L512.019 358.838L511.935 360.309L506.208 359.919L511.473 366.693L511.327 368.678L506.038 361.845L499.646 368.344L499.683 368.3Z" fill="white"/>
<path d="M503.472 382.251L502.582 382.059L504.119 371.357C503.771 371.325 503.23 371.429 502.541 371.709C502.128 371.885 501.759 372.098 501.393 372.351C501.008 372.627 500.677 373.06 500.334 373.597C500.012 374.152 499.837 374.756 499.728 375.415C499.646 375.91 499.644 376.399 499.702 376.862C499.76 377.325 499.833 377.726 499.98 378.039C500.253 378.648 500.531 379.073 500.753 379.299L500.927 379.447L500.645 381.24C500.557 381.165 500.429 381.094 500.342 381.02C500.189 380.89 499.949 380.686 499.655 380.323C499.34 379.942 499.065 379.558 498.849 379.148C498.611 378.72 498.444 378.164 498.326 377.461C498.187 376.74 498.169 376.01 498.309 375.225C498.57 373.414 499.33 371.99 500.632 370.989C501.913 369.97 503.451 369.622 505.218 369.844C506.988 370.108 508.353 370.892 509.294 372.219C510.235 373.546 510.583 375.084 510.322 376.895C510.061 378.706 509.298 380.09 508.014 381.069C506.752 382.067 505.195 382.437 503.425 382.174L503.472 382.251ZM505.494 371.51L504.148 380.793C505.093 380.92 506.069 380.657 507.071 379.966C508.073 379.274 508.719 378.205 508.906 376.746C509.112 375.265 508.834 374.087 508.025 373.136C507.217 372.184 506.359 371.644 505.454 371.514L505.494 371.51Z" fill="white"/>
<path d="M493.59 400.464L493.943 399.032L503.937 401.394L505.713 393.907L495.719 391.545L496.072 390.113L507.432 392.771L504.991 403.119L493.649 400.439L493.59 400.464Z" fill="white"/>
<path d="M493.616 405.831C495.038 405.045 496.592 404.899 498.323 405.429C500.032 405.942 501.252 406.941 502 408.406C502.727 409.852 502.835 411.45 502.304 413.182C501.772 414.913 500.797 416.192 499.376 416.979C497.954 417.765 496.4 417.911 494.669 417.381C492.938 416.85 491.74 415.869 490.992 414.404C490.265 412.958 490.157 411.36 490.688 409.628C491.22 407.897 492.195 406.618 493.616 405.831ZM492.043 410.027C491.621 411.363 491.719 412.576 492.317 413.686C492.915 414.797 493.847 415.515 495.099 415.902C496.351 416.288 497.523 416.193 498.655 415.613C499.748 415.036 500.525 414.078 500.906 412.746C501.327 411.41 501.229 410.197 500.631 409.086C500.033 407.976 499.101 407.258 497.849 406.871C496.598 406.485 495.426 406.58 494.293 407.16C493.179 407.718 492.423 408.694 492.021 410.009L492.043 410.027Z" fill="white"/>
<path d="M492.479 431.105C491.891 430.868 491.479 430.555 491.201 430.13C490.923 429.705 490.812 429.348 490.827 429.022L490.85 428.552L490.806 428.515C490.72 428.705 490.537 428.964 490.259 429.291C490.054 429.532 489.803 429.695 489.552 429.857C489.279 430.002 488.921 430.112 488.517 430.145C488.113 430.177 487.681 430.111 487.238 429.923C485.245 429.169 484.772 427.336 485.881 424.439L488.043 418.711L498.952 422.83L496.888 428.266C496.42 429.524 495.798 430.388 495.044 430.876C494.29 431.365 493.423 431.455 492.498 431.083L492.479 431.105ZM492.894 429.688C494.028 430.125 494.952 429.48 495.568 427.783L497.092 423.734L493.651 422.426L492.04 426.665C491.754 427.401 491.685 428.057 491.83 428.595C491.975 429.132 492.327 429.469 492.854 429.691L492.894 429.688ZM488.784 420.583L487.161 424.925C486.425 426.897 486.625 428.122 487.862 428.571C489.057 429.023 490.034 428.272 490.773 426.341L492.434 421.955L488.824 420.58L488.784 420.583Z" fill="white"/>
<path d="M486.723 434.379L492.817 438.318L489.384 445.94L478.746 441.148L479.351 439.817L488.72 444.021L491.031 438.87L486.118 435.709C484.682 434.788 483.721 433.971 483.255 433.236C482.789 432.501 482.745 431.711 483.106 430.889C483.208 430.636 483.353 430.421 483.521 430.225L483.595 430.137L484.863 430.726C484.733 430.879 484.565 431.075 484.427 431.371C484.183 431.879 484.284 432.38 484.687 432.835C485.112 433.309 485.785 433.844 486.686 434.422L486.723 434.379Z" fill="white"/>
<path d="M472.027 454.182L472.715 452.885L481.636 457.572L481.673 457.528L476.156 446.362L477.107 444.535L487.429 449.963L486.759 451.238L477.817 446.532L477.78 446.576L483.319 457.761L482.367 459.587L472.045 454.16L472.027 454.182Z" fill="white"/>
<path d="M469.542 458.431L470.386 457.04L472.757 461.73C472.924 461.533 473.216 461.367 473.567 461.176C473.859 461.01 474.175 460.903 474.495 460.836C474.856 460.766 475.263 460.774 475.736 460.837C476.209 460.9 476.651 461.088 477.078 461.338C478.104 461.947 478.679 462.775 478.801 463.782C478.944 464.808 478.61 465.954 477.855 467.194L475.215 471.538L465.248 465.471L466.021 464.208L469.637 466.417L471.773 462.888L469.52 458.412L469.542 458.431ZM474.832 469.555L476.718 466.453C477.796 464.697 477.652 463.407 476.306 462.601C474.959 461.795 473.795 462.235 472.753 463.947L470.833 467.133L474.832 469.555Z" fill="white"/>
<path d="M473.719 473.917L467.461 483.089L466.32 482.307L469.03 478.324L460.528 472.525L461.367 471.318L469.868 477.117L472.578 473.135L473.719 473.917Z" fill="white"/>
<path d="M456.819 488.834C455.784 489.121 454.77 488.899 453.794 488.144C452.796 487.37 452.295 486.455 452.31 485.376C452.324 484.297 452.839 483.116 453.833 481.815L456.556 478.258L465.812 485.338L464.93 486.508L461.721 484.043L459.898 486.408C458.904 487.709 457.89 488.503 456.856 488.79L456.819 488.834ZM453.736 485.158C453.707 485.812 454.021 486.417 454.713 486.93C455.365 487.447 456.028 487.596 456.683 487.401C457.317 487.187 458.042 486.599 458.775 485.604L460.598 483.239L456.741 480.297L454.918 482.662C454.163 483.639 453.783 484.483 453.736 485.158Z" fill="white"/>
<path d="M437.802 500.709L438.794 499.632L442.743 503.217L448.065 497.314L444.115 493.729L445.106 492.652L453.77 500.472L452.779 501.549L449.094 498.227L443.773 504.13L447.458 507.452L446.466 508.529L437.802 500.709Z" fill="white"/>
<path d="M437.825 505.284C438.602 506.095 438.864 507.071 438.529 508.217C438.213 509.341 437.489 510.457 436.395 511.522C435.81 512.078 435.177 512.557 434.516 512.936C433.833 513.296 433.343 513.519 432.964 513.611L432.383 513.719L433.868 515.246C434.533 515.924 435.308 516.207 436.151 516.057C437.033 515.904 437.831 515.453 438.624 514.697C439.377 513.945 439.884 513.171 440.121 512.318C440.379 511.484 440.264 510.822 439.84 510.348L440.896 509.326C441.543 510.027 441.783 510.983 441.631 512.135C441.502 513.305 440.803 514.48 439.617 515.654C438.523 516.719 437.371 517.321 436.147 517.522C434.9 517.705 433.789 517.286 432.812 516.267L429.375 512.742C428.997 512.346 428.654 512.13 428.365 512.072C428.097 512.032 427.802 512.158 427.499 512.427C427.331 512.623 427.183 512.798 427.112 512.926L427.1 513.029L426.191 512.106C426.275 511.875 426.457 511.616 426.758 511.307C427.284 510.776 427.775 510.553 428.244 510.576C428.692 510.581 429 510.617 429.19 510.703L429.299 510.796L429.355 510.73C429.327 510.631 429.385 510.341 429.511 509.884C429.606 509.551 429.683 509.239 429.821 508.943C430.127 508.186 430.693 507.388 431.505 506.61C432.654 505.479 433.777 504.778 434.911 504.462C436.045 504.147 437.001 504.395 437.822 505.243L437.825 505.284ZM436.731 506.349C435.779 505.389 434.31 505.833 432.33 507.763C431.744 508.319 431.308 508.965 430.953 509.604C430.619 510.262 430.431 510.704 430.373 510.994C430.334 511.261 430.309 511.467 430.301 511.61L431.452 512.777C431.452 512.777 431.735 512.754 432.015 512.691C432.335 512.624 432.785 512.405 433.39 512.091C434.033 511.734 434.628 511.299 435.214 510.743C436.364 509.613 437.035 508.602 437.143 507.678C437.204 507.165 437.065 506.708 436.691 506.352L436.731 506.349Z" fill="white"/>
<path d="M417.713 532.34L417.75 532.296L416.509 524.464L418.075 523.198L425.465 526.057L425.502 526.013L419.22 518.224L420.367 517.317L427.708 526.383L425.913 527.831L418.034 524.707L417.997 524.75L419.383 533.12L417.606 534.545L410.265 525.479L411.413 524.573L417.695 532.362L417.713 532.34Z" fill="white"/>
<path d="M398.3 533.976L399.494 533.146L405.264 541.404L405.301 541.361L405.517 528.895L407.211 527.7L413.9 537.266L412.706 538.096L406.914 529.819L406.877 529.863L406.661 542.328L404.967 543.524L398.278 533.957L398.3 533.976Z" fill="white"/>
<path d="M395.967 549.461C394.475 550.375 392.93 550.643 391.355 550.282C389.78 549.922 388.524 548.966 387.607 547.433C386.69 545.901 386.423 544.356 386.828 542.818C387.23 541.24 388.208 540.001 389.7 539.087C391.422 537.991 393.117 537.813 394.839 538.487L394.904 538.543L395 538.474L391.503 532.676L392.762 531.903L401.278 545.958L400.018 546.732L398.964 545.007L398.908 545.073L398.893 545.135C398.676 546.983 397.733 548.402 396.004 549.417L395.967 549.461ZM388.297 543.126C388.028 544.328 388.225 545.512 388.885 546.638C389.586 547.761 390.518 548.479 391.723 548.788C392.927 549.097 394.13 548.877 395.312 548.151C396.494 547.424 397.231 546.47 397.563 545.284C397.872 544.079 397.675 542.895 396.971 541.731C396.267 540.568 395.313 539.832 394.112 539.563C392.929 539.273 391.726 539.492 390.544 540.219C389.362 540.945 388.607 541.921 388.338 543.123L388.297 543.126Z" fill="white"/>
<path d="M381.162 545.943C382.724 546.406 383.925 547.427 384.746 549.028C385.566 550.63 385.712 552.184 385.186 553.732C384.66 555.28 383.594 556.444 381.974 557.288C380.354 558.131 378.781 558.299 377.218 557.836C375.655 557.373 374.473 556.33 373.634 554.75C372.813 553.149 372.668 551.595 373.194 550.047C373.72 548.499 374.785 547.334 376.406 546.491C378.007 545.67 379.599 545.48 381.162 545.943ZM377.057 547.76C375.806 548.391 375.007 549.33 374.635 550.52C374.263 551.709 374.398 552.878 375.003 554.07C375.604 555.221 376.502 556.023 377.673 556.416C378.844 556.809 380.053 556.67 381.304 556.04C382.555 555.41 383.354 554.47 383.707 553.303C384.079 552.113 383.963 550.923 383.362 549.771C382.76 548.62 381.862 547.818 380.691 547.425C379.52 547.032 378.289 547.152 377.06 547.801L377.057 547.76Z" fill="white"/>
<path d="M362.222 562.815C361.971 562.225 361.889 561.703 362.011 561.205C362.115 560.729 362.31 560.367 362.518 560.167L362.877 559.833L362.833 559.796C362.833 559.796 362.373 559.894 361.948 559.908C361.621 559.894 361.335 559.877 361.064 559.797C360.753 559.72 360.454 559.541 360.145 559.241C359.836 558.94 359.586 558.615 359.388 558.183C358.538 556.218 359.528 554.613 362.378 553.385L367.997 550.936L372.682 561.621L367.358 563.944C366.141 564.49 365.074 564.638 364.206 564.464C363.338 564.291 362.661 563.715 362.263 562.812L362.222 562.815ZM363.529 562.119C364.006 563.24 365.079 563.437 366.768 562.69L370.736 560.945L369.266 557.586L365.121 559.407C364.394 559.73 363.876 560.118 363.589 560.589C363.301 561.06 363.3 561.548 363.548 562.097L363.529 562.119ZM367.174 552.833L362.93 554.683C361.005 555.53 360.293 556.544 360.795 557.724C361.297 558.903 362.51 559.069 364.417 558.243L368.72 556.369L367.174 552.833Z" fill="white"/>
<path d="M349.924 565.419C348.903 565.116 348.173 564.382 347.752 563.196C347.331 562.009 347.43 560.964 348.008 560.063C348.627 559.158 349.687 558.442 351.209 557.891L355.063 556.5L359 567.49L357.596 567.991L356.211 564.177L353.72 565.071C352.198 565.621 350.905 565.726 349.865 565.445L349.924 565.419ZM349.338 560.667C348.954 561.206 348.907 561.881 349.196 562.692C349.482 563.462 349.95 563.973 350.594 564.145C351.261 564.335 352.165 564.2 353.311 563.782L355.802 562.888L354.153 558.324L351.662 559.217C350.516 559.636 349.722 560.127 349.319 560.689L349.338 560.667ZM344.253 560.408L348.189 571.398L346.785 571.898L342.849 560.908L344.253 560.408Z" fill="white"/>
<path d="M329.314 570.895L329.139 569.993L339.54 567.055C339.452 566.716 339.111 566.276 338.562 565.771C338.234 565.493 337.885 565.196 337.502 564.983C337.075 564.733 336.555 564.592 335.92 564.541C335.286 564.491 334.639 564.544 333.984 564.739C333.505 564.859 333.074 565.057 332.646 565.295C332.217 565.533 331.932 565.78 331.669 566.046C331.223 566.57 330.929 566.96 330.852 567.271L330.747 567.483L329.036 567.947C329.036 567.947 329.056 567.702 329.087 567.577C329.133 567.39 329.25 567.076 329.441 566.674C329.67 566.228 329.902 565.823 330.177 565.455C330.493 565.083 330.908 564.684 331.507 564.289C332.084 563.876 332.77 563.556 333.547 563.351C335.317 562.861 336.913 562.976 338.359 563.754C339.804 564.531 340.739 565.778 341.243 567.486C341.728 569.216 341.569 570.775 340.747 572.184C339.925 573.593 338.637 574.532 336.907 575.018C335.158 575.526 333.581 575.389 332.135 574.612C330.711 573.853 329.755 572.588 329.251 570.879L329.314 570.895ZM339.952 568.384L330.925 570.947C331.18 571.842 331.814 572.644 332.864 573.312C333.915 573.979 335.125 574.105 336.557 573.704C337.989 573.303 338.966 572.552 339.506 571.431C340.046 570.309 340.211 569.319 339.934 568.406L339.952 568.384Z" fill="white"/>
<path d="M310.033 574.187L315.142 573.224L315.414 574.585L310.305 575.548C310.445 576.269 310.929 576.983 311.806 577.766C312.243 578.137 312.794 578.418 313.479 578.586C314.164 578.754 314.876 578.758 315.597 578.618C316.358 578.475 317.047 578.195 317.624 577.782C318.183 577.391 318.595 576.951 318.842 576.483C319.317 575.57 319.529 574.922 319.435 574.503L320.957 574.217C321.052 574.636 320.977 575.212 320.771 575.94C320.565 576.669 320.132 577.355 319.575 578.01C319.185 578.469 318.67 578.897 318.028 579.254C317.385 579.612 316.634 579.876 315.872 580.019C314.089 580.347 312.52 580.067 311.189 579.199C309.836 578.312 309.017 576.975 308.671 575.213C308.326 573.451 308.65 571.92 309.56 570.585C310.491 569.269 311.847 568.426 313.63 568.099C314.41 567.934 315.181 567.912 315.922 568.014C316.662 568.117 317.288 568.31 317.821 568.613C318.332 568.897 318.787 569.247 319.184 569.621C319.911 570.315 320.352 570.991 320.466 571.653L318.943 571.939C318.87 571.538 318.442 571.024 317.653 570.315C317.238 569.962 316.709 569.7 316.024 569.532C315.339 569.364 314.605 569.342 313.844 569.485C313.082 569.628 312.412 569.886 311.835 570.299C311.258 570.712 310.827 571.174 310.565 571.703C310.074 572.679 309.875 573.488 310.011 574.169L310.033 574.187Z" fill="white"/>
<path d="M293.628 571.267L295.58 571.007L303.499 575.897L302.769 570.118L304.24 569.938L305.7 581.495L304.229 581.675L303.506 575.978L297.525 582.524L295.573 582.784L301.573 576.216L293.65 571.285L293.628 571.267Z" fill="white"/>
<path d="M291.178 572.91C292.422 573.968 293.105 575.377 293.249 577.156C293.373 578.956 292.863 580.441 291.8 581.646C290.716 582.832 289.267 583.52 287.445 583.627C285.645 583.752 284.122 583.286 282.859 582.249C281.614 581.191 280.931 579.782 280.828 578C280.704 576.2 281.193 574.696 282.277 573.51C283.379 572.301 284.811 571.636 286.633 571.529C288.454 571.422 289.974 571.848 291.218 572.906L291.178 572.91ZM286.706 572.947C285.31 573.04 284.214 573.576 283.416 574.516C282.617 575.455 282.26 576.582 282.346 577.897C282.431 579.213 282.945 580.29 283.866 581.11C284.804 581.908 285.953 582.283 287.349 582.19C288.745 582.097 289.841 581.561 290.662 580.64C291.479 579.679 291.836 578.552 291.75 577.236C291.665 575.921 291.151 574.844 290.23 574.024C289.31 573.204 288.139 572.81 286.725 572.925L286.706 572.947Z" fill="white"/>
<path d="M275.827 573.748C276.976 574.875 277.581 576.331 277.585 578.141C277.588 579.951 276.993 581.403 275.844 582.533C274.694 583.664 273.213 584.211 271.384 584.237C270.591 584.241 269.829 584.119 269.119 583.892C268.409 583.665 267.814 583.347 267.337 582.979C266.879 582.589 266.501 582.193 266.16 581.752C265.567 580.946 265.262 580.198 265.247 579.508L266.793 579.504C266.793 579.504 266.888 579.924 267.057 580.256C267.226 580.588 267.457 580.935 267.773 581.317C268.132 581.735 268.587 582.085 269.219 582.359C269.874 582.651 270.577 582.798 271.37 582.794C272.772 582.782 273.896 582.345 274.761 581.462C275.625 580.578 276.044 579.466 276.039 578.144C276.035 576.823 275.601 575.739 274.755 574.831C273.891 573.945 272.776 573.487 271.373 573.499C270.58 573.502 269.881 573.66 269.232 573.937C268.605 574.232 268.125 574.576 267.793 575.01C267.146 575.815 266.831 576.45 266.842 576.836L265.297 576.839C265.261 576.395 265.439 575.831 265.813 575.17C266.187 574.509 266.707 573.898 267.355 573.357C267.833 572.972 268.416 572.64 269.13 572.42C269.845 572.199 270.606 572.056 271.399 572.052C273.209 572.048 274.698 572.599 275.846 573.726L275.827 573.748Z" fill="white"/>
<path d="M251.222 571.533L252.674 571.639L252.042 581.718L252.064 581.736L259.993 572.103L262.059 572.241L261.33 583.894L259.877 583.788L260.509 573.709L260.487 573.69L252.54 583.345L250.474 583.208L251.203 571.555L251.222 571.533Z" fill="white"/>
<path d="M246.05 572.481C247.047 573.743 247.454 575.256 247.211 577.045C246.969 578.834 246.225 580.196 244.941 581.175C243.657 582.154 242.119 582.502 240.311 582.283C239.53 582.184 238.802 581.978 238.104 581.648C237.428 581.337 236.867 580.935 236.446 580.501C236.046 580.086 235.702 579.606 235.461 579.137C234.963 578.262 234.777 577.464 234.846 576.807L236.368 577.009C236.368 577.009 236.382 577.435 236.532 577.789C236.642 578.146 236.855 578.516 237.093 578.944C237.375 579.409 237.815 579.821 238.391 580.161C239.011 580.537 239.681 580.768 240.462 580.867C241.858 581.039 243.014 580.742 243.969 579.973C244.924 579.204 245.511 578.159 245.671 576.865C245.831 575.57 245.535 574.415 244.804 573.416C244.072 572.418 243.01 571.853 241.632 571.66C240.851 571.561 240.123 571.62 239.449 571.837C238.794 572.033 238.269 572.339 237.873 572.717C237.138 573.448 236.736 574.01 236.688 574.42L235.166 574.218C235.193 573.789 235.433 573.241 235.873 572.636C236.312 572.03 236.92 571.493 237.636 571.048C238.139 570.723 238.791 570.487 239.512 570.347C240.233 570.207 241.004 570.185 241.785 570.285C243.593 570.504 244.976 571.267 245.991 572.506L246.05 572.481Z" fill="white"/>
<path d="M232.601 580.996L221.701 578.992L221.957 577.629L226.684 578.486L228.553 568.368L230.019 568.635L228.149 578.754L232.876 579.611L232.62 580.974L232.601 580.996Z" fill="white"/>
<path d="M209.348 570.068L209.624 569.212L220.141 571.755C220.215 571.404 220.15 570.86 219.93 570.145C219.795 569.729 219.619 569.316 219.385 568.928C219.128 568.522 218.75 568.126 218.214 567.783C217.678 567.44 217.108 567.181 216.442 566.991C215.966 566.887 215.493 566.824 215.005 566.823C214.538 566.84 214.134 566.873 213.799 567.002C213.165 567.216 212.715 567.435 212.489 567.657L212.297 567.795L210.575 567.385C210.575 567.385 210.743 567.189 210.817 567.101C210.947 566.948 211.195 566.745 211.561 566.492C211.964 566.195 212.374 565.978 212.787 565.802C213.24 565.623 213.8 565.497 214.527 565.438C215.254 565.379 215.992 565.441 216.757 565.602C218.541 566.027 219.875 566.936 220.757 568.288C221.62 569.663 221.868 571.229 221.439 572.972C221.01 574.716 220.116 575.988 218.698 576.815C217.299 577.62 215.729 577.829 213.946 577.404C212.203 576.976 210.868 576.067 209.986 574.715C209.123 573.341 208.897 571.793 209.326 570.049L209.348 570.068ZM219.863 573.1L210.756 570.889C210.545 571.802 210.707 572.805 211.302 573.876C211.878 574.968 212.891 575.679 214.342 576.009C215.792 576.339 217.02 576.178 218.022 575.487C219.042 574.774 219.671 573.99 219.882 573.078L219.863 573.1Z" fill="white"/>
<path d="M193.629 569.614L193.651 569.632L199.503 564.256L201.402 564.854L203.085 572.61L203.106 572.629L206.16 563.065L207.557 563.501L204.04 574.627L201.849 573.931L200.124 565.65L200.102 565.631L193.875 571.404L191.705 570.726L195.223 559.599L196.62 560.035L193.586 569.577L193.629 569.614Z" fill="white"/>
<path d="M181.876 561.577C181.294 560.668 181.25 559.614 181.706 558.458C182.181 557.281 182.937 556.568 183.972 556.281C185.028 556.012 186.322 556.172 187.814 556.763L191.638 558.283L187.305 569.13L185.938 568.57L187.445 564.807L185.007 563.825C183.493 563.215 182.455 562.445 181.873 561.536L181.876 561.577ZM184.608 557.613C183.949 557.768 183.478 558.233 183.154 559.012C182.831 559.791 182.864 560.459 183.236 561.039C183.608 561.619 184.382 562.126 185.537 562.582L187.975 563.564L189.787 559.044L187.349 558.062C186.194 557.606 185.307 557.454 184.626 557.591L184.608 557.613ZM180.984 554.042L176.63 564.87L175.262 564.31L179.595 553.463L180.962 554.023L180.984 554.042Z" fill="white"/>
</g>
<defs>
<clipPath id="clip0_87_1317">
<rect width="485.792" height="487.221" fill="white" transform="translate(296.069 685.868) rotate(-139.622)"/>
</clipPath>
</defs>
</svg>
