<svg width="462" height="480" viewBox="0 0 462 480" fill="none" xmlns="http://www.w3.org/2000/svg">
<g clip-path="url(#clip0_87_1475)">
<path d="M240.865 3.82013L233.579 9.81549L233.739 6.10155L241.078 -0.0529785L244.109 0.053134L242.886 32.7358L239.802 32.6297L240.918 3.76707L240.865 3.82013Z" fill="white"/>
<path d="M266.819 12.256L265.542 19.1002C264.851 22.9203 266.819 25.2548 271.499 26.1037L277.881 27.2709L280.221 14.6966L283.093 15.2271L278.891 37.723L276.019 37.1924L277.402 29.8707L271.02 28.7034C264.425 27.4831 261.66 24.0875 262.724 18.5166L264 11.6724L266.872 12.2029L266.819 12.256Z" fill="white"/>
<path d="M311.652 35.919L310.96 37.5637L290.804 30.9317C290.591 31.6214 290.644 32.6295 290.963 34.1151C291.176 34.964 291.442 35.7598 291.814 36.5557C292.24 37.4046 292.931 38.2004 293.888 38.9963C294.846 39.7921 295.963 40.3757 297.239 40.8002C298.143 41.1185 299.1 41.2777 300.005 41.3307C300.909 41.3838 301.706 41.3307 302.398 41.1716C303.674 40.8532 304.578 40.4818 305.11 40.1104L305.482 39.8452L308.78 40.9593C308.78 40.9593 308.461 41.3307 308.248 41.4899C307.982 41.7552 307.45 42.1266 306.652 42.551C305.801 43.0285 304.951 43.453 304.1 43.7183C303.196 43.9835 302.025 44.1427 300.643 44.1427C299.207 44.1427 297.771 43.9305 296.282 43.453C292.825 42.3388 290.378 40.3227 288.889 37.5107C287.4 34.6987 287.187 31.6214 288.304 28.2789C289.421 24.9363 291.389 22.6019 294.314 21.2224C297.186 19.8429 300.324 19.7368 303.727 20.851C307.131 21.9652 309.524 23.9283 311.067 26.7403C312.556 29.5522 312.768 32.6295 311.652 35.9721V35.919ZM291.548 28.2789L309.046 34.062C309.631 32.3112 309.418 30.295 308.461 28.1197C307.503 25.8914 305.642 24.3527 302.876 23.4508C300.111 22.5488 297.664 22.6549 295.59 23.8752C293.463 25.0955 292.133 26.5811 291.548 28.2789Z" fill="white"/>
<path d="M318.672 41.8613L326.809 30.189L341.541 37.4046L331.436 57.9374L328.83 56.664L337.712 38.5719L327.713 33.6907L321.119 43.1347C319.204 45.8936 317.502 47.6975 316.013 48.5995C314.524 49.4484 312.982 49.5014 311.386 48.7056C310.907 48.4403 310.482 48.175 310.11 47.8567L309.95 47.6975L311.12 45.2569C311.386 45.5222 311.812 45.8406 312.343 46.1589C313.301 46.6364 314.311 46.4772 315.215 45.7344C316.173 44.9386 317.289 43.6653 318.513 41.9144L318.672 41.8613Z" fill="white"/>
<path d="M341.222 60.3779C340.53 57.2476 341.222 54.2234 343.136 51.3053C345.051 48.3872 347.657 46.6363 350.848 46.1058C353.986 45.5752 357.017 46.2649 359.995 48.2811C362.974 50.2442 364.782 52.7909 365.473 55.9212C366.165 59.0515 365.473 62.0757 363.505 64.9938C361.538 67.9119 358.985 69.6628 355.847 70.1933C352.709 70.7239 349.678 70.0341 346.7 68.018C343.721 66.0549 341.913 63.5082 341.275 60.3779H341.222ZM348.242 65.7366C350.529 67.2752 352.869 67.8058 355.262 67.2752C357.655 66.7977 359.57 65.4713 361.006 63.296C362.442 61.1738 362.974 58.8923 362.495 56.5048C362.069 54.1173 360.687 52.1542 358.4 50.6156C356.113 49.0769 353.773 48.5464 351.38 49.0239C348.986 49.5014 347.019 50.8278 345.583 53.0031C344.147 55.1253 343.668 57.4068 344.094 59.8473C344.519 62.2349 345.902 64.198 348.189 65.7366H348.242Z" fill="white"/>
<path d="M387.704 78.7885C386.853 79.6905 386.002 80.2741 384.991 80.4863C384.034 80.6985 383.29 80.6455 382.705 80.3802L381.854 80.0088L381.747 80.1149C382.013 80.3802 382.386 80.8577 382.758 81.6535C383.024 82.2372 383.183 82.7677 383.29 83.2983C383.396 83.935 383.29 84.6247 383.077 85.4205C382.811 86.2164 382.386 86.9061 381.8 87.5958C378.982 90.7262 375.312 90.2487 370.792 86.2164L361.804 78.2579L377.067 61.1738L385.576 68.7609C387.544 70.5117 388.714 72.2626 389.087 73.9604C389.459 75.7112 388.98 77.3029 387.704 78.7885ZM365.792 78.1518L372.6 84.2002C375.684 86.9592 378.078 87.3836 379.78 85.5267C381.481 83.6697 380.79 81.3352 377.759 78.6293L370.845 72.5279L365.792 78.1518ZM385.417 77.0377C387.012 75.2337 386.481 73.1645 383.821 70.777L377.439 65.1L372.653 70.4587L379.301 76.401C380.471 77.4621 381.588 78.0457 382.651 78.1518C383.715 78.2579 384.619 77.8866 385.417 77.0377Z" fill="white"/>
<path d="M405.839 107.014L404.403 108.076L390.575 91.9464C390.043 92.4239 389.511 93.3259 389.033 94.7584C388.767 95.5543 388.554 96.4032 388.501 97.3051C388.448 98.2601 388.607 99.3213 389.033 100.488C389.458 101.656 390.096 102.717 390.947 103.778C391.586 104.521 392.277 105.157 393.022 105.688C393.766 106.219 394.457 106.59 395.149 106.802C396.425 107.227 397.382 107.333 398.021 107.28H398.499L400.786 109.933C400.573 110.039 400.308 110.092 400.095 110.145C399.723 110.251 399.084 110.251 398.18 110.251C397.223 110.251 396.266 110.145 395.415 109.933C394.457 109.72 393.394 109.243 392.224 108.5C391.001 107.757 389.884 106.855 388.873 105.635C386.533 102.876 385.416 99.9049 385.629 96.7215C385.842 93.5381 387.225 90.7792 389.937 88.4978C392.596 86.2164 395.574 85.2083 398.765 85.5266C401.956 85.845 404.669 87.3305 407.009 90.0364C409.349 92.7423 410.412 95.6604 410.2 98.8437C409.987 102.027 408.604 104.733 405.892 107.067L405.839 107.014ZM392.596 90.0895L404.562 104.096C405.998 102.876 406.849 101.072 407.168 98.6846C407.487 96.297 406.69 94.0156 404.828 91.7873C402.967 89.5589 400.786 88.4447 398.393 88.3917C395.947 88.3386 394.032 88.9222 392.649 90.0895H392.596Z" fill="white"/>
<path d="M412.061 137.044L409.934 133.808L411.742 115.663L402.116 121.923L400.521 119.483L419.72 106.961L421.315 109.402L411.848 115.557L428.548 120.491L430.675 123.727L413.923 118.793L411.955 136.991L412.061 137.044Z" fill="white"/>
<path d="M426.58 168.56L425.464 165.907L444.078 158.055L438.174 144.154L419.56 152.006L418.443 149.353L439.557 140.44L447.747 159.646L426.634 168.56H426.58Z" fill="white"/>
<path d="M454.714 181.028C455.618 184.371 455.246 187.395 453.704 190.207C452.108 192.966 449.662 194.823 446.258 195.672C442.854 196.573 439.823 196.202 437.057 194.61C434.345 192.966 432.484 190.472 431.633 187.183C430.569 183.362 431.154 180.02 433.388 177.208L433.494 177.102V176.943L420.571 180.338L419.826 177.526L451.045 169.25L451.789 172.061L447.96 173.07V173.229H448.173C451.523 174.661 453.704 177.261 454.661 181.028H454.714ZM438.547 192.011C440.674 193.231 443.014 193.496 445.513 192.806C448.013 192.117 449.875 190.79 451.151 188.668C452.374 186.599 452.64 184.211 451.949 181.559C451.257 178.959 449.874 176.996 447.8 175.775C445.726 174.555 443.386 174.237 440.78 174.927C438.174 175.616 436.313 176.996 435.09 179.118C433.866 181.187 433.601 183.575 434.345 186.228C435.036 188.88 436.472 190.79 438.6 192.011H438.547Z" fill="white"/>
<path d="M439.344 206.76C441.312 204.213 444.024 202.728 447.481 202.356C450.938 201.985 453.969 202.781 456.416 204.797C458.862 206.813 460.298 209.625 460.724 213.127C461.149 216.682 460.351 219.706 458.437 222.2C456.522 224.746 453.757 226.179 450.247 226.603C446.737 227.028 443.758 226.179 441.312 224.163C438.866 222.146 437.43 219.334 437.004 215.833C436.579 212.278 437.376 209.254 439.291 206.76H439.344ZM439.823 215.514C440.142 218.22 441.259 220.343 443.173 221.828C445.088 223.314 447.375 223.897 449.928 223.632C452.48 223.314 454.555 222.253 456.097 220.343C457.639 218.433 458.224 216.151 457.905 213.392C457.586 210.686 456.469 208.564 454.555 207.078C452.587 205.593 450.353 204.956 447.8 205.275C445.247 205.593 443.173 206.654 441.631 208.564C440.089 210.474 439.451 212.756 439.77 215.514H439.823Z" fill="white"/>
<path d="M438.599 255.254V252.389L458.489 252.866V252.76L438.971 237.957L439.078 233.925L462 234.456V237.321L442.056 236.843V236.949L461.574 251.752L461.468 255.784L438.546 255.254H438.599Z" fill="white"/>
<path d="M441.046 282.896C438.706 282.525 437.217 281.304 436.419 279.235C435.675 277.166 435.515 274.513 435.994 271.33C437.057 264.273 439.929 261.09 444.45 261.833L445.035 261.939L444.609 264.804L444.024 264.698C442.535 264.486 441.365 264.963 440.514 266.13C439.663 267.298 439.025 269.208 438.653 271.754C437.855 276.901 438.812 279.66 441.418 280.084C444.131 280.509 445.886 278.174 446.684 273.134L447.269 269.208L449.928 269.632L449.236 273.983C448.651 278.333 449.555 280.721 452.002 281.092C454.501 281.464 456.097 279.288 456.841 274.46C457.214 272.126 457.161 270.269 456.629 268.889C456.097 267.51 455.246 266.767 454.023 266.608H453.863L454.289 263.743H454.448C456.576 264.114 458.118 265.281 458.916 267.298C459.767 269.314 459.926 271.86 459.501 274.885C459.022 277.962 458.118 280.296 456.788 281.941C455.459 283.586 453.704 284.276 451.576 283.957C450.353 283.745 449.396 283.267 448.651 282.419C447.96 281.57 447.534 280.827 447.428 280.084L447.269 278.97H447.162C446.949 279.5 446.63 280.031 446.311 280.509C445.939 281.039 445.567 281.464 445.141 281.835C444.663 282.259 444.078 282.525 443.28 282.737C442.482 282.949 441.684 283.002 440.887 282.843L441.046 282.896Z" fill="white"/>
<path d="M444.29 311.122C443.12 310.804 442.216 310.22 441.577 309.424C440.992 308.628 440.673 307.938 440.673 307.355V306.4H440.514C440.407 306.771 440.088 307.302 439.557 307.938C439.131 308.416 438.706 308.84 438.28 309.159C437.748 309.53 437.11 309.742 436.312 309.849C435.515 309.955 434.664 309.849 433.76 309.636C429.718 308.469 428.548 304.967 430.25 299.131L433.6 287.618L455.671 293.932L452.48 304.861C451.735 307.355 450.672 309.159 449.289 310.273C447.906 311.387 446.258 311.652 444.343 311.122H444.29ZM435.355 291.12L432.855 299.874C431.685 303.853 432.324 306.188 434.77 306.877C437.217 307.567 438.972 305.975 440.088 302.049L442.641 293.189L435.355 291.067V291.12ZM444.875 308.257C447.162 308.947 448.864 307.514 449.821 304.118L452.161 295.948L445.247 293.932L442.748 302.474C442.322 304.012 442.269 305.233 442.641 306.241C443.013 307.249 443.758 307.885 444.875 308.204V308.257Z" fill="white"/>
<path d="M427.218 317.064C430.196 315.844 433.281 315.95 436.525 317.383C439.716 318.815 441.897 321.043 442.96 324.015C444.024 326.986 443.864 330.116 442.428 333.352C440.992 336.589 438.759 338.817 435.834 340.038C432.909 341.258 429.771 341.099 426.58 339.666C423.336 338.234 421.208 336.005 420.092 333.034C418.975 330.063 419.187 326.933 420.623 323.696C422.059 320.46 424.293 318.231 427.218 317.011V317.064ZM423.176 324.863C422.059 327.357 421.953 329.745 422.857 332.026C423.761 334.307 425.41 335.952 427.75 337.013C430.09 338.074 432.43 338.181 434.717 337.332C437.004 336.483 438.706 334.785 439.822 332.291C440.939 329.798 441.046 327.41 440.142 325.129C439.237 322.847 437.589 321.203 435.249 320.141C432.909 319.08 430.569 319.027 428.229 319.876C425.942 320.725 424.24 322.423 423.123 324.917L423.176 324.863Z" fill="white"/>
<path d="M408.977 335.793L410.519 333.353L417.805 337.809L416.848 339.348C415.997 340.727 417.167 342.69 420.358 345.237L431.473 354.151L422.964 367.945L405.732 357.387L403.871 360.411L396.585 355.954L398.127 353.514L403.126 356.591L414.029 338.923L409.03 335.846L408.977 335.793ZM422.166 364.072L427.803 354.893L418.815 347.678C417.592 346.723 416.635 345.768 415.944 344.972C415.252 344.123 414.88 343.539 414.88 343.274V342.797H414.774L407.222 355L422.113 364.125L422.166 364.072Z" fill="white"/>
<path d="M385.47 378.875L387.278 376.646L402.648 389.168H402.701L396.425 365.505L398.978 362.374L416.741 376.859L414.933 379.087L399.563 366.566H399.51L405.839 390.282L403.286 393.412L385.523 378.928L385.47 378.875Z" fill="white"/>
<path d="M398.766 398.24L383.024 413.308L381.162 411.345L387.97 404.819L373.982 390.282L376.057 388.266L390.044 402.803L396.851 396.277L398.712 398.24H398.766Z" fill="white"/>
<path d="M336.223 419.038L357.815 404.554L359.251 406.676C360.049 407.843 360.527 409.117 360.634 410.496C360.793 411.876 360.634 413.202 360.208 414.475C359.357 417.022 358.028 419.622 356.113 422.328C354.358 424.874 352.922 427.368 351.858 429.915C351.327 431.135 351.114 432.302 351.167 433.523C351.167 434.69 351.539 435.804 352.231 436.759C353.454 438.616 355.103 439.518 357.124 439.571C359.198 439.571 361.378 438.828 363.718 437.29C366.058 435.751 367.547 433.947 368.292 431.984C368.983 430.021 368.717 428.058 367.388 426.095L366.856 425.299L369.409 423.601L369.941 424.397C371.696 427.05 372.174 429.703 371.27 432.462C370.366 435.167 368.398 437.555 365.314 439.624C362.229 441.693 359.304 442.648 356.432 442.489C353.56 442.33 351.327 441.004 349.678 438.51C348.774 437.184 348.242 435.698 348.189 434.159C348.136 432.621 348.348 431.029 348.987 429.543C349.944 427.209 351.646 424.238 354.039 420.524C354.677 419.569 355.209 418.72 355.634 417.977C356.06 417.234 356.485 416.385 356.858 415.537C357.23 414.635 357.496 413.839 357.655 413.096C357.762 412.353 357.815 411.61 357.655 410.868C357.549 410.125 357.23 409.435 356.804 408.798L337.871 421.532L336.276 419.197L336.223 419.038Z" fill="white"/>
<path d="M339.839 449.546L343.189 440.738L344.891 444.028L341.54 452.994L338.828 454.374L323.671 425.405L326.383 423.973L339.732 449.546H339.839Z" fill="white"/>
<path d="M320.001 436.971L316.97 438.139C316.97 438.139 316.864 438.033 316.757 437.926C316.651 437.82 316.545 437.714 316.491 437.661C316.279 437.449 315.853 437.078 315.162 436.6C314.47 436.123 313.779 435.698 312.981 435.433C312.184 435.115 311.226 434.955 310.003 434.955C308.78 434.955 307.557 435.168 306.28 435.645C304.047 436.494 302.451 437.82 301.441 439.624C300.43 441.428 299.951 443.391 300.111 445.567C300.217 447.742 300.749 450.076 301.706 452.57H301.813C301.813 452.57 301.813 452.146 301.866 451.88C301.919 451.615 302.079 451.084 302.398 450.289C302.717 449.546 303.089 448.803 303.621 448.113C304.1 447.477 304.897 446.681 305.961 445.832C307.078 444.983 308.301 444.293 309.737 443.763C313.034 442.489 316.119 442.436 319.044 443.497C321.969 444.559 323.99 446.575 325.16 449.599C326.33 452.729 326.224 455.647 324.735 458.3C323.246 460.953 320.746 462.969 317.183 464.295C313.194 465.834 309.631 465.728 306.493 463.977C303.408 462.279 301.015 459.255 299.313 454.904L298.728 453.366C296.973 448.856 296.654 444.665 297.611 440.898C298.622 437.078 301.175 434.425 305.217 432.886C306.918 432.249 308.514 431.931 310.003 431.931C311.599 431.931 312.928 432.09 313.992 432.515C315.109 432.939 316.066 433.417 316.97 434C318.565 435.061 319.576 436.07 319.895 436.971H320.001ZM316.172 461.643C318.831 460.635 320.693 459.149 321.81 457.186C322.926 455.223 323.033 453.101 322.182 450.766C321.331 448.432 319.789 446.946 317.608 446.256C315.428 445.514 313.034 445.673 310.428 446.681C307.982 447.583 306.174 449.068 305.057 451.137C303.94 453.154 303.781 455.276 304.632 457.504C305.482 459.733 306.972 461.218 309.152 462.014C311.333 462.757 313.673 462.651 316.225 461.696L316.172 461.643Z" fill="white"/>
<path d="M263.627 449.121C265.595 445.46 268.786 443.179 273.2 442.277C277.615 441.375 281.444 442.224 284.688 444.771C287.932 447.317 290.006 451.031 291.017 455.753C291.974 460.475 291.495 464.72 289.581 468.327C287.666 471.935 284.475 474.27 280.008 475.172C275.594 476.074 271.764 475.278 268.52 472.678C265.276 470.078 263.202 466.417 262.192 461.695C261.234 456.92 261.713 452.729 263.627 449.121ZM265.329 461.059C266.127 464.985 267.829 468.062 270.329 470.184C272.881 472.36 275.86 473.05 279.37 472.36C282.88 471.617 285.379 469.76 286.868 466.789C288.358 463.818 288.677 460.369 287.826 456.39C287.028 452.464 285.326 449.439 282.827 447.264C280.327 445.089 277.295 444.346 273.732 445.089C270.222 445.832 267.723 447.689 266.287 450.66C264.798 453.631 264.478 457.08 265.329 461.059Z" fill="white"/>
<path d="M228.207 451.562C230.76 448.272 234.27 446.574 238.791 446.415C243.311 446.256 246.928 447.689 249.693 450.766C252.459 453.843 253.895 457.822 254.108 462.65C254.267 467.479 253.097 471.564 250.597 474.8C248.098 478.037 244.535 479.788 240.014 479.947C235.494 480.106 231.824 478.673 229.058 475.596C226.293 472.519 224.857 468.54 224.644 463.712C224.485 458.883 225.655 454.798 228.154 451.562H228.207ZM227.888 463.605C228.048 467.638 229.165 470.874 231.292 473.474C233.419 476.021 236.291 477.241 239.855 477.135C243.471 477.029 246.236 475.596 248.151 472.89C250.066 470.184 251.023 466.842 250.863 462.81C250.704 458.777 249.587 455.541 247.46 452.941C245.332 450.394 242.461 449.174 238.844 449.28C235.281 449.386 232.515 450.819 230.548 453.525C228.58 456.231 227.676 459.573 227.835 463.605H227.888Z" fill="white"/>
<path d="M192.948 448.166C195.979 445.354 199.755 444.24 204.222 444.824C208.69 445.407 212.04 447.424 214.274 450.925C216.508 454.427 217.252 458.565 216.667 463.393C216.082 468.222 214.221 471.989 211.189 474.801C208.158 477.613 204.435 478.727 199.915 478.143C195.394 477.56 192.097 475.543 189.863 472.042C187.683 468.54 186.885 464.402 187.47 459.573C188.055 454.745 189.916 450.978 192.948 448.166ZM190.661 459.998C190.129 463.977 190.714 467.373 192.416 470.291C194.118 473.156 196.724 474.801 200.287 475.278C203.85 475.756 206.828 474.801 209.168 472.466C211.508 470.132 212.944 466.948 213.476 462.969C214.008 458.99 213.423 455.541 211.721 452.676C210.073 449.811 207.413 448.113 203.85 447.636C200.287 447.158 197.362 448.113 194.969 450.501C192.629 452.835 191.193 456.019 190.661 459.998Z" fill="white"/>
<path d="M168.962 446.999L162.367 459.626L146.838 454.321L154.283 432.674L157.049 433.629L150.508 452.729L161.038 456.337L166.356 446.15C167.898 443.179 169.387 441.163 170.717 440.102C172.047 439.041 173.589 438.828 175.291 439.412C175.823 439.571 176.248 439.836 176.62 440.102L176.833 440.261L175.929 442.808C175.663 442.542 175.184 442.33 174.599 442.065C173.536 441.693 172.632 441.959 171.781 442.861C170.93 443.816 170.026 445.195 169.015 447.052L168.962 446.999Z" fill="white"/>
<path d="M148.646 430.127C148.859 430.604 148.859 431.082 148.646 431.613C148.433 432.143 148.061 432.515 147.582 432.674C147.104 432.833 146.572 432.78 146.04 432.568C145.508 432.355 145.136 431.984 144.923 431.506C144.71 431.029 144.71 430.551 144.923 430.021C145.136 429.49 145.508 429.119 145.987 428.96C146.466 428.801 146.997 428.854 147.529 429.066C148.061 429.278 148.433 429.649 148.646 430.127Z" fill="white"/>
<path d="M123.438 443.709L120.778 442.118L123.172 419.887H123.065L104.664 432.461L102.005 430.87L123.916 415.961C126.629 414.104 128.915 412.884 130.67 412.353C132.479 411.823 134.074 411.929 135.51 412.778C136.361 413.308 136.999 413.786 137.372 414.316L137.584 414.581L136.202 416.916C135.829 416.332 135.085 415.749 134.127 415.112C133.33 414.635 132.319 414.581 131.149 414.953C129.979 415.377 128.437 416.226 126.575 417.553L126.203 417.818L123.491 443.762L123.438 443.709Z" fill="white"/>
<path d="M111.259 409.17L97.3781 427.368L83.2314 416.651L84.8801 414.476L96.7399 423.442L108.972 407.366L111.259 409.117V409.17Z" fill="white"/>
<path d="M88.1243 402.273L76.8495 410.974L64.9365 399.673L80.7318 383.066L82.8592 385.082L68.9252 399.726L76.9559 407.366L86.0501 400.309C88.7093 398.24 90.8898 397.02 92.5385 396.596C94.1871 396.224 95.6762 396.596 97.0058 397.869C97.4313 398.24 97.6972 398.665 97.9631 399.089L98.0695 399.301L96.2081 401.264C96.0485 400.946 95.7294 400.522 95.304 400.044C94.5062 399.301 93.5489 399.142 92.4321 399.567C91.2621 400.044 89.8261 400.946 88.1775 402.219L88.1243 402.273Z" fill="white"/>
<path d="M52.2259 366.778L53.715 365.77L67.0107 382.324C67.5425 381.899 68.0744 380.997 68.6062 379.565C68.9253 378.769 69.138 377.92 69.1912 377.018C69.2976 376.063 69.1912 375.002 68.7658 373.835C68.3935 372.667 67.7553 371.553 66.9575 370.492C66.3725 369.749 65.6811 369.059 64.9366 368.529C64.192 367.998 63.5006 367.574 62.8624 367.362C61.5861 366.937 60.6819 366.725 59.9906 366.831H59.5119L57.3314 364.125C57.5442 364.072 57.8101 364.019 58.0228 363.966C58.3951 363.913 59.0333 363.86 59.9374 363.966C60.8947 363.966 61.852 364.125 62.7029 364.391C63.607 364.656 64.6707 365.133 65.8407 365.929C67.0107 366.672 68.1276 367.68 69.0848 368.9C71.3717 371.712 72.329 374.736 72.0631 377.867C71.7972 381.05 70.2549 383.756 67.4894 385.931C64.7239 388.107 61.7988 389.009 58.6078 388.584C55.47 388.16 52.7577 386.568 50.524 383.809C48.2903 381.05 47.333 378.079 47.599 374.896C47.8649 371.712 49.4072 369.059 52.1727 366.831L52.2259 366.778ZM64.9366 384.074L53.3959 369.696C51.96 370.863 51.0027 372.614 50.6304 375.002C50.2581 377.389 50.9495 379.724 52.7577 381.952C54.5659 384.18 56.6932 385.401 59.0865 385.56C61.5329 385.719 63.4475 385.189 64.8834 384.021L64.9366 384.074Z" fill="white"/>
<path d="M47.014 336.695L49.035 339.985L46.6417 358.077L56.4274 352.134L57.9165 354.628L38.292 366.513L36.8029 364.019L46.429 358.183L29.8891 352.718L27.8682 349.429L44.4612 354.893L46.9608 336.748L47.014 336.695Z" fill="white"/>
<path d="M36.9623 314.464L38.1324 317.064L19.997 325.129V325.235L43.9825 330.275L45.6311 333.989L24.6771 343.327L23.5071 340.727L41.6424 332.663V332.557L17.6037 327.516L15.9551 323.802L36.9091 314.464H36.9623Z" fill="white"/>
<path d="M31.1653 306.4C29.6762 309.212 27.2298 311.069 23.8261 312.077C20.4224 313.032 17.3377 312.767 14.5722 311.175C11.8067 309.636 9.94532 307.143 8.93484 303.694C8.50938 302.209 8.29665 300.723 8.34983 299.237C8.40301 297.752 8.66893 296.478 9.14757 295.364C9.62622 294.303 10.2112 293.348 10.8494 292.499C12.0726 290.908 13.2958 289.953 14.6254 289.581L15.4763 292.499C15.1572 292.605 14.7318 292.871 14.1999 293.401C13.6681 293.879 13.0831 294.568 12.5513 295.311C11.9663 296.16 11.5408 297.274 11.3281 298.601C11.1153 299.98 11.2217 301.413 11.6472 302.898C12.3917 305.551 13.8809 307.408 16.0082 308.522C18.1887 309.636 20.4755 309.849 22.9751 309.159C25.4747 308.416 27.3361 307.037 28.5062 304.914C29.7294 302.845 29.9421 300.458 29.1975 297.805C28.7721 296.319 28.0807 295.099 27.1766 294.038C26.2725 293.03 25.3684 292.287 24.3579 291.916C22.4965 291.12 21.1669 290.854 20.3692 291.067L19.5182 288.149C20.316 287.883 21.486 287.883 22.9219 288.202C24.3579 288.52 25.7938 289.157 27.1766 290.112C28.1871 290.801 29.0912 291.756 29.8889 292.977C30.7398 294.197 31.378 295.523 31.8035 297.009C32.814 300.405 32.5481 303.535 31.0589 306.294L31.1653 306.4Z" fill="white"/>
<path d="M18.0818 279.925H3.82878L1.43555 263.636L24.1447 260.294L24.5701 263.159L4.57334 266.077L6.16883 277.06H17.7095C21.06 277.113 23.5596 277.484 25.1019 278.227C26.6442 278.917 27.5484 280.19 27.8143 281.994C27.8675 282.525 27.8675 283.055 27.8143 283.533V283.745L25.0488 284.116C25.1551 283.745 25.1551 283.214 25.0488 282.578C24.8892 281.516 24.251 280.774 23.081 280.455C21.8578 280.137 20.2091 279.925 18.0818 279.925Z" fill="white"/>
<path d="M20.6881 250.903C18.5076 253.237 15.6357 254.458 12.1257 254.511C8.61558 254.564 5.69052 253.45 3.45684 251.168C1.22315 248.887 0.0531292 246.022 -5.37354e-05 242.467C-0.0532367 238.912 1.01042 235.941 3.19092 233.66C5.37142 231.325 8.19012 230.158 11.7534 230.052C15.3166 229.999 18.1885 231.113 20.4222 233.341C22.6559 235.623 23.8259 238.488 23.8791 242.043C23.9323 245.597 22.8686 248.568 20.6881 250.85V250.903ZM21.0604 242.096C21.0604 239.337 20.1031 237.108 18.3481 235.464C16.593 233.766 14.3593 232.97 11.8066 233.023C9.20059 233.023 7.07327 233.925 5.31824 235.676C3.61638 237.427 2.76546 239.655 2.81864 242.414C2.81864 245.173 3.77593 247.348 5.53097 249.046C7.33919 250.744 9.51969 251.54 12.0725 251.54C14.6252 251.54 16.8057 250.585 18.5608 248.834C20.2626 247.083 21.1136 244.855 21.0604 242.096Z" fill="white"/>
<path d="M23.8789 223.791L1.06348 221.245L3.03124 203.63L5.74357 203.948L4.0949 218.698L24.198 220.926L23.8789 223.791Z" fill="white"/>
<path d="M23.9856 200.5C21.2732 202.25 18.2418 202.728 14.7849 201.932C11.328 201.136 8.82843 199.385 7.17976 196.626C5.53109 193.868 5.15881 190.79 5.95655 187.342C6.7543 183.893 8.50933 181.293 11.1685 179.542C13.8276 177.791 16.9122 177.314 20.3159 178.163C23.7728 178.959 26.2724 180.71 27.9211 183.469C29.5698 186.227 29.9421 189.305 29.1443 192.753C28.3466 196.202 26.5915 198.802 23.9324 200.553L23.9856 200.5ZM26.4852 192.064C27.1234 189.411 26.7511 187.023 25.4215 184.954C24.0919 182.885 22.1773 181.558 19.6777 180.975C17.1781 180.391 14.8381 180.71 12.764 181.983C10.6898 183.256 9.30708 185.219 8.72206 187.925C8.08387 190.578 8.45615 192.966 9.73254 195.035C11.0621 197.104 12.9767 198.43 15.4763 199.014C17.9759 199.598 20.3159 199.226 22.3901 197.953C24.4642 196.68 25.847 194.716 26.4852 192.064Z" fill="white"/>
<path d="M37.2284 164.846L16.168 155.826L23.1881 139.538L25.6877 140.599L19.8376 154.235L38.4516 162.193L37.3348 164.846H37.2284Z" fill="white"/>
<path d="M39.5154 143.782C37.6008 142.668 36.5903 140.97 36.5903 138.636C36.5903 136.355 37.3349 133.861 38.8772 131.208C39.6749 129.829 40.6322 128.608 41.6959 127.547C42.7595 126.486 43.6105 125.796 44.2486 125.478L45.2591 124.947L41.5895 122.878C39.9408 121.923 38.3453 121.87 36.803 122.56C35.2607 123.303 33.9312 124.629 32.8675 126.433C31.857 128.237 31.3252 129.988 31.272 131.739C31.272 133.489 31.7507 134.657 32.8675 135.293L31.4316 137.787C29.8361 136.779 28.8788 135.134 28.5065 132.906C28.1342 130.624 28.8256 128.025 30.4743 125.16C31.9634 122.56 33.8248 120.809 36.0585 119.801C38.2922 118.793 40.6322 119.005 43.0254 120.385L51.4283 125.213C52.3856 125.743 53.1302 126.009 53.7152 125.902C54.3002 125.849 54.7789 125.425 55.1511 124.735C55.4171 124.311 55.5766 123.886 55.6298 123.568V123.409L57.8103 124.682C57.8103 125.16 57.5444 125.743 57.1721 126.486C56.4275 127.759 55.6298 128.449 54.7789 128.661C53.9279 128.927 53.2897 128.98 52.9175 128.927L52.6515 128.821V128.927C52.6515 128.927 52.7579 129.669 52.7579 130.624C52.7579 131.261 52.7579 131.951 52.6515 132.588C52.492 134.179 51.8538 135.983 50.737 137.946C49.1415 140.652 47.3864 142.615 45.4719 143.835C43.5041 145.003 41.5363 145.056 39.5686 143.942L39.5154 143.782ZM41.0045 141.183C43.3445 142.509 45.8441 140.864 48.5565 136.142C49.3542 134.763 49.886 133.33 50.152 131.951C50.4179 130.518 50.5242 129.563 50.471 129.033C50.4179 128.502 50.3647 128.131 50.3115 127.812L47.4928 126.221C47.4928 126.221 46.961 126.38 46.4823 126.645C45.9505 126.964 45.1528 127.6 44.1955 128.555C43.185 129.563 42.2809 130.731 41.4831 132.11C39.8876 134.869 39.2495 137.15 39.4622 138.901C39.6217 139.909 40.1004 140.652 41.0045 141.183Z" fill="white"/>
<path d="M67.436 101.815C69.2974 103.247 70.042 105.051 69.7229 107.227C69.4038 109.402 68.2337 111.79 66.266 114.336C61.905 120.013 57.9163 121.446 54.2466 118.634L53.768 118.262L55.523 115.981L56.0017 116.352C57.1717 117.254 58.4481 117.413 59.7777 116.777C61.1072 116.14 62.5432 114.814 64.1387 112.745C67.3296 108.606 67.8083 105.741 65.681 104.096C63.5005 102.452 60.8413 103.619 57.7567 107.651L55.3635 110.781L53.2362 109.137L55.9485 105.635C58.5544 102.08 58.8735 99.5866 56.959 98.101C54.938 96.5624 52.4916 97.7296 49.5134 101.603C48.0774 103.513 47.2265 105.157 47.0138 106.59C46.801 108.023 47.1733 109.084 48.1838 109.879L48.3433 109.986L46.5883 112.267L46.4287 112.161C44.6737 110.834 43.9291 109.084 44.1951 106.908C44.461 104.733 45.4714 102.399 47.3328 99.958C49.1943 97.5174 51.162 95.8726 53.1298 95.0237C55.0976 94.2279 56.9058 94.4401 58.6608 95.7665C59.6181 96.5093 60.2563 97.4113 60.469 98.5254C60.6818 99.5866 60.6818 100.435 60.469 101.125L60.0968 102.186H60.1499C60.6286 101.868 61.1072 101.55 61.6391 101.284C62.2241 101.019 62.7559 100.807 63.3409 100.648C63.9259 100.489 64.6173 100.542 65.415 100.754C66.2128 100.966 66.9042 101.284 67.5955 101.762L67.436 101.815Z" fill="white"/>
<path d="M70.9462 97.6766C69.3507 96.1379 68.8721 94.2279 69.4571 91.9465C70.0421 89.7181 71.4249 87.5428 73.5522 85.3675C74.669 84.2533 75.8922 83.2983 77.2218 82.5555C78.5514 81.8127 79.5618 81.3883 80.2 81.1761L81.3169 80.9108L78.3386 77.9396C77.0091 76.6132 75.4668 76.1357 73.8181 76.401C72.1162 76.7193 70.5208 77.6213 69.0316 79.1599C67.5957 80.6455 66.5852 82.1841 66.1598 83.8819C65.6811 85.5267 65.8938 86.8531 66.798 87.702L64.777 89.7712C63.5006 88.3917 62.9688 86.5348 63.2347 84.2533C63.5006 81.9719 64.777 79.6374 67.117 77.303C69.2444 75.1807 71.478 73.9604 73.8713 73.536C76.3177 73.1646 78.4982 73.9074 80.466 75.8704L87.3266 82.6616C88.1243 83.4575 88.7625 83.8819 89.3475 83.935C89.9325 83.988 90.4644 83.7758 91.0494 83.1922C91.4216 82.8208 91.6876 82.5025 91.7939 82.1841V82.025L93.6021 83.8289C93.4426 84.3064 93.0703 84.7839 92.4853 85.3675C91.4748 86.3756 90.5175 86.9061 89.6134 86.8531C88.7093 86.8531 88.0711 86.8 87.752 86.6409L87.5393 86.4817L87.4329 86.5878C87.4329 86.5878 87.4329 87.3306 87.167 88.2325C87.0075 88.8692 86.7947 89.5059 86.582 90.0895C85.997 91.6281 84.9333 93.1668 83.3378 94.7585C81.1042 96.9868 78.9237 98.4194 76.69 99.056C74.5095 99.6927 72.5949 99.2152 70.9462 97.6235V97.6766ZM73.0735 95.5543C74.9881 97.4643 77.86 96.4563 81.636 92.6362C82.7528 91.522 83.6569 90.3017 84.2951 88.9753C84.9333 87.702 85.2524 86.747 85.3588 86.2695C85.412 85.7389 85.4652 85.3675 85.5183 85.0492L83.2315 82.7678C83.2315 82.7678 82.6996 82.7678 82.1146 82.9269C81.4764 83.0861 80.5723 83.5105 79.4023 84.1472C78.1791 84.8369 76.9559 85.7389 75.839 86.8531C73.6054 89.1345 72.329 91.1506 72.1162 92.9015C72.0099 93.9096 72.329 94.8115 73.0203 95.5013L73.0735 95.5543Z" fill="white"/>
<path d="M111.79 49.6607C112.482 50.6687 112.801 51.6768 112.801 52.6849C112.801 53.6399 112.588 54.3827 112.163 54.8602L111.578 55.603V55.7091C111.95 55.4969 112.535 55.2846 113.386 55.1255C114.024 55.0194 114.609 54.9663 115.141 55.0194C115.779 55.0194 116.417 55.2846 117.109 55.7091C117.8 56.1335 118.438 56.7172 118.917 57.46C121.31 60.9086 119.981 64.3573 114.981 67.8059L105.089 74.5971L92.0596 55.7622L101.473 49.2893C103.653 47.8037 105.621 47.0609 107.376 47.114C109.131 47.114 110.62 47.9629 111.737 49.6076L111.79 49.6607ZM109.504 51.5177C108.121 49.5546 105.994 49.5546 103.015 51.5707L95.9951 56.3988L100.09 62.3411L107.429 57.3008C108.759 56.3988 109.557 55.4438 109.929 54.4357C110.301 53.4277 110.142 52.4727 109.45 51.5177H109.504ZM105.94 70.7771L113.439 65.6306C116.843 63.2961 117.853 61.0678 116.417 58.9986C114.981 56.9294 112.588 57.0355 109.238 59.37L101.633 64.5695L105.94 70.7771Z" fill="white"/>
<path d="M137.478 54.5418L127.852 33.7438L143.966 26.3159L145.083 28.7565L131.574 34.9641L140.084 53.2685L137.424 54.4888L137.478 54.5418Z" fill="white"/>
<path d="M157.368 42.7104C154.496 41.3309 152.475 38.9434 151.412 35.6009C150.295 32.2583 150.508 29.1811 152.05 26.3691C153.539 23.5571 155.985 21.594 159.389 20.4798C162.793 19.3656 165.931 19.5248 168.802 20.9043C171.674 22.2837 173.642 24.6713 174.759 28.0138C175.876 31.3564 175.663 34.4336 174.174 37.2456C172.685 40.0576 170.238 42.0207 166.835 43.1349C163.431 44.249 160.293 44.0899 157.421 42.7104H157.368ZM165.877 40.482C168.483 39.6331 170.345 38.0945 171.408 35.9192C172.472 33.7439 172.632 31.4094 171.834 28.9688C171.036 26.5282 169.547 24.7243 167.366 23.6101C165.186 22.496 162.793 22.3368 160.187 23.1857C157.581 24.0346 155.719 25.5732 154.656 27.7485C153.592 29.9769 153.433 32.2583 154.23 34.6989C155.028 37.1395 156.517 38.9434 158.698 40.0576C160.878 41.1718 163.271 41.3309 165.877 40.482Z" fill="white"/>
<path d="M183.534 43.6653L180.662 44.1959L179.12 35.813L180.928 35.4946C182.524 35.1763 183.215 33.001 183.002 28.9687L182.205 14.7496L198.16 11.8315L201.829 31.6746L205.339 31.0379L206.882 39.4208L204.01 39.9514L202.946 34.2213L182.471 37.9883L183.534 43.7184V43.6653ZM195.766 14.9619L185.13 16.9249L185.768 28.3851C185.874 29.9237 185.821 31.2501 185.662 32.3643C185.502 33.4254 185.343 34.1152 185.13 34.3274L184.811 34.6457V34.7518L198.957 32.1521L195.766 14.9619Z" fill="white"/>
</g>
<defs>
<clipPath id="clip0_87_1475">
<rect width="462" height="480" fill="white"/>
</clipPath>
</defs>
</svg>
