<svg width="34" height="34" viewBox="0 0 34 34" fill="none" xmlns="http://www.w3.org/2000/svg">
<g filter="url(#filter0_f_47_1177)">
<path d="M24.1777 24.7556C24.1777 27.5047 21.9491 29.7333 19.1999 29.7333C16.4508 29.7333 14.2222 27.5047 14.2222 24.7556C14.2222 22.0064 16.4508 19.7778 19.1999 19.7778C21.9491 19.7778 24.1777 22.0064 24.1777 24.7556Z" fill="white"/>
</g>
<g filter="url(#filter1_f_47_1177)">
<path d="M29.1557 14.8C29.1557 20.2983 24.6985 24.7556 19.2002 24.7556C13.7019 24.7556 9.24463 20.2983 9.24463 14.8C9.24463 9.3017 13.7019 4.84444 19.2002 4.84444C24.6985 4.84444 29.1557 9.3017 29.1557 14.8Z" fill="#1800DE"/>
</g>
<g filter="url(#filter2_f_47_1177)">
<path d="M14.2222 14.8C14.2222 17.5491 11.9935 19.7778 9.24438 19.7778C6.49523 19.7778 4.2666 17.5491 4.2666 14.8C4.2666 12.0508 6.49523 9.82222 9.24438 9.82222C11.9935 9.82222 14.2222 12.0508 14.2222 14.8Z" fill="white"/>
</g>
<path fill-rule="evenodd" clip-rule="evenodd" d="M7.11111 21.5556C10.8421 21.5556 13.8667 18.531 13.8667 14.8C13.8667 11.069 10.8421 8.04444 7.11111 8.04444C3.38012 8.04444 0.355556 11.069 0.355556 14.8C0.355556 18.531 3.38012 21.5556 7.11111 21.5556ZM7.11111 21.9111C11.0385 21.9111 14.2222 18.7274 14.2222 14.8C14.2222 10.8726 11.0385 7.68889 7.11111 7.68889C3.18375 7.68889 0 10.8726 0 14.8C0 18.7274 3.18375 21.9111 7.11111 21.9111Z" fill="white"/>
<path fill-rule="evenodd" clip-rule="evenodd" d="M19.2 33.6444C22.931 33.6444 25.9555 30.6199 25.9555 26.8889C25.9555 23.1579 22.931 20.1333 19.2 20.1333C15.469 20.1333 12.4444 23.1579 12.4444 26.8889C12.4444 30.6199 15.469 33.6444 19.2 33.6444ZM19.2 34C23.1273 34 26.3111 30.8162 26.3111 26.8889C26.3111 22.9615 23.1273 19.7778 19.2 19.7778C15.2726 19.7778 12.0889 22.9615 12.0889 26.8889C12.0889 30.8162 15.2726 34 19.2 34Z" fill="white"/>
<path fill-rule="evenodd" clip-rule="evenodd" d="M19.5558 26.5614C26.2478 26.5614 31.6727 21.1365 31.6727 14.4444C31.6727 7.75243 26.2478 2.32749 19.5558 2.32749C12.8638 2.32749 7.43881 7.75243 7.43881 14.4444C7.43881 21.1365 12.8638 26.5614 19.5558 26.5614ZM19.5558 26.8889C26.4286 26.8889 32.0002 21.3173 32.0002 14.4444C32.0002 7.57157 26.4286 2 19.5558 2C12.6829 2 7.11133 7.57157 7.11133 14.4444C7.11133 21.3173 12.6829 26.8889 19.5558 26.8889Z" fill="white"/>
<defs>
<filter id="filter0_f_47_1177" x="12.2222" y="17.7778" width="13.9556" height="13.9556" filterUnits="userSpaceOnUse" color-interpolation-filters="sRGB">
<feFlood flood-opacity="0" result="BackgroundImageFix"/>
<feBlend mode="normal" in="SourceGraphic" in2="BackgroundImageFix" result="shape"/>
<feGaussianBlur stdDeviation="1" result="effect1_foregroundBlur_47_1177"/>
</filter>
<filter id="filter1_f_47_1177" x="5.24463" y="0.844444" width="27.9111" height="27.9111" filterUnits="userSpaceOnUse" color-interpolation-filters="sRGB">
<feFlood flood-opacity="0" result="BackgroundImageFix"/>
<feBlend mode="normal" in="SourceGraphic" in2="BackgroundImageFix" result="shape"/>
<feGaussianBlur stdDeviation="2" result="effect1_foregroundBlur_47_1177"/>
</filter>
<filter id="filter2_f_47_1177" x="2.2666" y="7.82222" width="13.9556" height="13.9556" filterUnits="userSpaceOnUse" color-interpolation-filters="sRGB">
<feFlood flood-opacity="0" result="BackgroundImageFix"/>
<feBlend mode="normal" in="SourceGraphic" in2="BackgroundImageFix" result="shape"/>
<feGaussianBlur stdDeviation="1" result="effect1_foregroundBlur_47_1177"/>
</filter>
</defs>
</svg>
