<svg width="1920" height="2035" viewBox="0 0 1920 2035" fill="none" xmlns="http://www.w3.org/2000/svg">
<g clip-path="url(#clip0_50_2013)">
<path d="M14.642 83.4798L4.09066 85.7183L1.14299 71.9187L-16.3119 75.675L-13.3642 89.4747L-23.9156 91.7132L-31.7317 55.095L-21.1803 52.8564L-18.2326 66.6561L-0.777824 62.8998L-3.72542 49.1001L6.82602 46.8615L14.642 83.4798Z" fill="white"/>
<path d="M23.284 82.3702L20.0915 45.0223L30.8466 44.0854L31.8472 55.6876L39.0306 55.0789C44.7437 54.5714 49.0284 55.2764 51.8845 57.1937C54.7883 59.0707 56.3921 62.2149 56.7435 66.5859C57.1021 70.8689 56.029 74.2372 53.491 76.5552C50.953 78.8733 46.8477 80.3098 41.1823 80.7769L23.2436 82.3225L23.284 82.3702ZM44.5532 71.5262C45.4723 70.5823 45.892 69.243 45.7243 67.5012C45.5971 65.8071 44.946 64.5575 43.8996 63.8073C42.8533 63.057 40.9714 62.7702 38.247 63.0347L32.4935 63.4946L33.3452 73.6667L39.0986 73.2068C41.7755 72.9827 43.5937 72.4225 44.5128 71.4786L44.5532 71.5262Z" fill="white"/>
<path d="M121.782 83.4706L111.017 82.3684L112.473 68.353L94.7201 66.5464L93.2635 80.5617L82.498 79.4596L86.3029 42.1525L97.0685 43.2547L95.6119 57.2701L113.365 59.0768L114.822 45.0613L125.587 46.1635L121.782 83.4706Z" fill="white"/>
<path d="M131.479 74.3386C132.405 70.6037 134.598 68.1689 138.186 67.0889C141.687 66.0017 145.846 66.076 150.582 67.2167C153.011 67.8585 155.121 68.6071 156.945 69.5982C158.722 70.6297 159.985 71.4419 160.639 72.1157L161.609 73.2585L162.976 67.9203C163.369 66.3574 163.092 64.8725 162.184 63.5133C161.276 62.1541 159.404 61.2033 156.671 60.4924C154.675 59.9746 152.819 59.9115 151.063 60.2552C149.219 60.5918 148.164 61.5689 147.73 63.0842L136.959 60.4307C138.008 56.2629 140.487 53.5856 144.314 52.3035C148.134 51.1095 152.916 51.1462 158.559 52.5826C164.289 54.0261 168.54 56.2347 171.086 59.2345C173.72 62.2414 174.521 65.9847 173.402 70.4569L170.61 81.8375C170.224 83.3124 170.138 84.3687 170.392 85.0542C170.605 85.692 171.145 86.1349 172.011 86.383L173.643 86.4722L171.467 95.2003C170.47 95.4732 168.885 95.3435 166.761 94.771C164.068 94.1076 162.123 92.9737 161.005 91.4644C159.962 90.1384 159.432 89.0317 159.335 88.049L159.25 87.466L158.729 87.3347C158.729 87.3347 158.531 87.5844 158.198 87.8673C157.865 88.1502 157.308 88.4591 156.48 88.8345C155.651 89.2098 154.742 89.4899 153.705 89.7152C150.999 90.2915 147.694 90.0654 143.831 89.0848C139.487 88.0205 136.136 86.1956 133.778 83.61C131.372 81.0648 130.608 77.945 131.519 74.3862L131.479 74.3386ZM150.11 82.1988C151.978 82.6617 153.691 82.8461 155.337 82.7593C156.896 82.6652 157.933 82.4399 158.626 82.0978L159.509 81.594L160.041 79.4221C160.041 79.4221 159.637 78.946 159.394 78.6603C159.071 78.2794 158.227 77.7672 156.828 76.9882C155.342 76.202 153.665 75.5774 151.797 75.1145C146.067 73.6709 142.88 74.1635 142.334 76.5115C141.74 78.8999 144.332 80.7957 150.022 82.1916L150.11 82.1988Z" fill="white"/>
<path d="M203.295 96.1199L194.965 92.8686C189.379 90.728 185.796 87.9536 184.133 84.4501C182.463 81.0346 182.639 76.7068 184.663 71.4666L188.484 61.5881L198.579 65.4712L194.758 75.3497C193.914 77.5405 193.851 79.3963 194.569 80.9171C195.286 82.438 196.913 83.6788 199.408 84.5919L206.71 87.4046L213.008 71.0824L223.103 74.9655L209.609 109.929L199.514 106.046L203.342 96.0795L203.295 96.1199Z" fill="white"/>
<path d="M253.41 132.388L243.897 127.356L254.384 107.477L257.452 103.563L256.769 103.241L252.979 106.786L229.619 119.896L217.639 113.599L235.108 80.4226L244.621 85.4545L234.133 105.333L231.271 108.91L231.906 109.272L235.572 106.16L258.892 93.0023L270.784 99.2921L253.315 132.468L253.41 132.388Z" fill="white"/>
<path d="M293.979 159.146L285.032 153.141L292.9 141.467L278.072 131.525L270.205 143.199L261.258 137.195L282.144 106.115L291.091 112.119L283.224 123.793L298.052 133.735L305.919 122.061L314.865 128.065L293.979 159.146Z" fill="white"/>
<path d="M307.071 155.653C309.531 152.664 312.558 151.405 316.241 151.883C319.876 152.402 323.627 154.216 327.413 157.228C329.363 158.85 330.96 160.443 332.199 162.095C333.39 163.787 334.169 165.092 334.457 165.913L334.87 167.364L338.318 163.127C339.306 161.879 339.733 160.451 339.47 158.79C339.2 157.217 337.969 155.477 335.722 153.698C334.143 152.417 332.487 151.528 330.748 151.12C328.969 150.665 327.517 151.078 326.529 152.326L317.926 145.375C320.631 142.096 324.025 140.689 328.019 141.149C332.014 141.609 336.271 143.729 340.799 147.423C345.414 151.124 348.248 154.944 349.354 158.757C350.5 162.617 349.574 166.352 346.671 169.881L339.325 178.983C338.344 180.144 337.824 181.076 337.767 181.78C337.709 182.485 337.97 183.082 338.719 183.675L340.118 184.454L334.448 191.478C333.446 191.263 332.048 190.484 330.388 189.108C328.229 187.336 326.957 185.549 326.58 183.657C326.27 182.036 326.194 180.789 326.49 179.883L326.621 179.362L326.162 179.014C326.162 179.014 325.924 179.216 325.477 179.269C325.03 179.321 324.447 179.406 323.559 179.422C322.672 179.438 321.711 179.271 320.709 179.056C318.016 178.392 315.131 176.827 311.973 174.265C308.525 171.457 306.251 168.391 305.197 165.026C304.095 161.701 304.706 158.561 307.023 155.693L307.071 155.653ZM320.601 170.628C322.099 171.814 323.619 172.736 325.12 173.346C326.58 173.909 327.622 174.171 328.374 174.188L329.397 174.139L330.781 172.391C330.781 172.391 330.695 171.808 330.596 171.401C330.456 170.947 329.904 170.104 328.989 168.833C327.993 167.467 326.766 166.214 325.228 164.981C320.66 161.239 317.589 160.324 316.015 162.233C314.488 164.102 315.985 166.927 320.601 170.628Z" fill="white"/>
<path d="M381.985 210.52L379.794 212.379L357.258 191.04C355.706 192.685 355.012 194.667 355.258 197.08C355.375 199.438 356.644 201.801 359.031 204.035C360.346 205.294 361.778 206.209 363.326 206.779C364.746 207.294 365.884 207.475 366.609 207.269L367.728 207.139L376.326 215.242C376.04 215.484 375.714 215.679 375.204 215.948C374.647 216.256 373.603 216.57 372.023 216.928C370.347 217.367 368.701 217.454 367.069 217.365C365.268 217.173 363.151 216.512 360.765 215.342C358.203 214.158 355.732 212.405 353.305 210.124C348.659 205.712 346.081 200.937 345.537 195.664C345.034 190.439 346.846 185.625 351.02 181.181C355.194 176.737 359.885 174.639 365.141 174.847C370.397 175.056 375.303 177.362 379.909 181.727C384.474 186.044 387.052 190.819 387.555 196.044C388.058 201.269 386.247 206.084 382.032 210.48L381.985 210.52ZM374.135 187.857C371.876 185.678 369.571 184.603 367.268 184.592C364.924 184.533 363.147 185.141 361.935 186.416L376.203 199.945C377.463 198.63 377.966 196.81 377.842 194.541C377.629 192.263 376.394 190.035 374.135 187.857Z" fill="white"/>
<path d="M400.752 216.708L391.128 206.527L397.899 200.125L424.56 228.448L417.789 234.851L408.125 224.622L387.58 243.944L380.16 236.07L400.704 216.748L400.752 216.708Z" fill="white"/>
<path d="M405.57 256.936C405.643 251.713 407.968 247.118 412.634 243.158C417.301 239.197 422.172 237.602 427.337 238.379C432.502 239.156 437.19 241.976 441.271 246.785C443.535 249.452 445.167 252.244 446.176 255.073C447.178 257.991 447.545 260.547 447.27 262.828C446.712 267.479 445.144 270.94 442.526 273.163L435.332 264.688C435.782 264.06 436.111 263.289 436.495 262.39C436.735 261.612 436.896 260.739 437.015 259.818C437.054 258.802 436.836 257.677 436.361 256.442C435.893 255.118 435.147 253.95 434.217 252.855C432.116 250.379 429.785 249.08 427.177 249C424.529 248.872 422.066 249.734 419.781 251.674C417.495 253.613 416.244 255.904 415.94 258.538C415.684 261.131 416.538 263.682 418.647 266.07C420.264 267.975 422.074 269.142 423.981 269.652C425.889 270.163 427.393 270.197 428.493 269.755L430.189 269.052L437.383 277.528C434.812 279.71 431.183 280.743 426.503 280.537C424.207 280.438 421.697 279.701 418.981 278.238C416.305 276.823 413.856 274.806 411.553 272.092C407.43 267.235 405.402 262.239 405.434 256.969L405.57 256.936Z" fill="white"/>
<path d="M436.713 301.444L429.536 292.217L444.955 290.598C444.727 290.136 444.63 289.153 444.569 287.731C444.48 286.66 444.607 285.651 444.814 284.738C445.036 283.648 445.53 282.492 446.342 281.229C447.154 279.966 448.176 278.854 449.454 277.85C456.22 272.599 462.992 274.305 469.724 283.009L481.902 298.804L452.29 321.727L445.679 313.166L454.906 305.99L450.261 299.938L436.665 301.484L436.713 301.444ZM469.097 295.01L464.412 288.911C461.604 285.313 458.966 284.522 456.362 286.568C453.758 288.615 453.839 291.413 456.606 294.963L461.291 301.062L469.097 295.01Z" fill="white"/>
<path d="M475.104 345.615C475.705 340.435 478.497 336.1 483.567 332.615C488.59 329.171 493.642 328.078 498.716 329.424C503.79 330.769 508.09 334.001 511.696 339.214C513.673 342.123 514.987 345.022 515.677 347.959C516.36 350.983 516.503 353.565 516.012 355.784C514.973 360.352 513.02 363.648 510.247 365.592L503.95 356.437C504.441 355.857 504.946 355.101 505.37 354.249C505.699 353.479 505.987 352.66 506.107 351.74C506.234 350.731 506.104 349.612 505.812 348.304C505.52 346.995 504.917 345.705 504.083 344.529C502.26 341.898 500.038 340.343 497.5 339.958C494.921 339.526 492.344 340.157 489.856 341.859C487.369 343.56 485.909 345.701 485.341 348.313C484.78 350.837 485.451 353.462 487.227 356.133C488.653 358.199 490.272 359.528 492.165 360.214C493.971 360.894 495.46 361.104 496.681 360.805L498.404 360.326L504.7 369.481C501.886 371.378 498.158 372.003 493.561 371.317C491.327 371.001 488.887 369.96 486.369 368.247C483.89 366.582 481.599 364.268 479.621 361.359C476.015 356.146 474.537 350.929 475.097 345.703L475.104 345.615Z" fill="white"/>
<path d="M502.168 409.639L496.495 400.446L511.103 391.406L512.28 393.274C513.1 394.626 514.241 395.296 515.624 395.187C517.006 395.079 519.055 394.405 521.866 393.084L540.659 384.341L557.604 411.737L533.056 426.921L535.798 431.31L521.19 440.351L515.517 431.158L522.754 426.654L509.452 405.095L502.216 409.599L502.168 409.639ZM544.552 407.169L538.368 397.181L525.3 403.113C524.01 403.716 522.829 404.063 521.711 404.193C520.592 404.323 519.888 404.265 519.462 404.053L518.963 403.658L518.725 403.86L527.376 417.816L544.552 407.169Z" fill="white"/>
<path d="M531.658 441.296L564.197 422.689L569.543 432.077L559.408 437.894L562.357 443.009C565.185 447.982 566.391 452.201 565.893 455.572C565.396 458.943 563.262 461.737 559.451 463.907C555.688 466.036 552.197 466.459 548.979 465.177C545.809 463.854 542.782 460.771 539.954 455.799L531.658 441.296ZM549.822 454.878C551.066 455.378 552.415 455.134 553.991 454.288C555.478 453.435 556.324 452.308 556.56 451.042C556.797 449.777 556.236 447.959 554.92 445.635L552.67 441.729L543.791 446.808L546.042 450.714C547.358 453.037 548.618 454.425 549.862 454.925L549.822 454.878ZM551.078 475.274L583.576 456.62L588.922 466.007L556.384 484.614L551.037 475.226L551.078 475.274Z" fill="white"/>
<path d="M572.927 515.3L580.31 501.415L580.149 501.224L564.501 499.679L558.58 488.649L582.302 491.697L592.387 472.405L598.235 483.252L591.219 495.351L591.381 495.541L605.311 496.415L611.118 507.214L589.459 504.955L578.889 526.377L572.968 515.348L572.927 515.3Z" fill="white"/>
<path d="M589.3 523.684C592.723 521.926 595.994 522.016 599.203 523.963C602.323 525.901 605.038 529.004 607.205 533.39C608.352 535.611 609.155 537.715 609.606 539.79C610.016 541.817 610.205 543.295 610.133 544.175L609.923 545.665L614.826 543.141C616.259 542.417 617.152 541.249 617.593 539.646C617.987 538.083 617.536 536.008 616.234 533.508C615.274 531.702 614.109 530.233 612.692 529.142C611.234 528.004 609.745 527.794 608.352 528.566L603.265 518.712C607.055 516.806 610.685 516.838 614.191 518.941C617.656 520.997 620.728 524.616 623.405 529.797C626.124 535.026 627.205 539.679 626.658 543.666C626.11 547.653 623.826 550.657 619.751 552.805L609.34 558.201C607.995 558.933 607.146 559.572 606.791 560.119C606.436 560.666 606.466 561.377 606.882 562.253L607.933 563.491L599.838 567.659C599.001 567.059 598.085 565.787 597.045 563.886C595.743 561.386 595.299 559.223 595.762 557.356C596.115 555.745 596.568 554.542 597.202 553.84L597.549 553.381L597.281 552.872C597.281 552.872 596.969 552.891 596.529 552.855C596.137 552.778 595.487 552.592 594.676 552.216C593.865 551.839 593.061 551.375 592.231 550.687C590.065 549.003 588.018 546.398 586.186 542.793C584.16 538.86 583.31 535.158 583.686 531.644C584.015 528.17 585.823 525.571 589.11 523.846L589.3 523.684ZM595.663 542.859C596.542 544.57 597.578 545.984 598.724 547.141C599.83 548.251 600.708 548.899 601.39 549.22L602.377 549.611L604.367 548.578C604.367 548.578 604.506 547.969 604.534 547.617C604.618 547.136 604.433 546.146 604.075 544.566C603.676 542.938 603.061 541.248 602.182 539.537C599.464 534.308 597.022 532.203 594.889 533.358C592.716 534.465 592.985 537.677 595.703 542.906L595.663 542.859Z" fill="white"/>
<path d="M620.527 609.406L615.689 599.75L628.3 593.471L620.302 577.486L607.692 583.765L602.855 574.109L636.393 557.356L641.231 567.013L628.621 573.292L636.618 589.277L649.228 582.998L654.066 592.654L620.527 609.406Z" fill="white"/>
<path d="M643.359 654.741L638.522 645.085L658.622 634.987L663.432 633.608L663.089 632.916L657.938 633.602L631.323 630.716L625.264 618.656L658.722 601.808L663.559 611.464L643.499 621.61L639.056 622.841L639.358 623.486L644.183 622.995L670.799 625.881L676.857 637.941L643.399 654.789L643.359 654.741Z" fill="white"/>
<path d="M652.519 672.771L647.171 662.32L662.616 663.627C662.524 663.133 662.555 662.205 662.766 660.715C662.94 659.666 663.155 658.665 663.579 657.813C663.97 656.826 664.72 655.78 665.742 654.667C666.763 653.554 668.027 652.727 669.42 651.955C677.093 648.063 683.365 651.013 688.372 660.772L697.465 678.53L664.08 695.561L659.195 685.945L669.599 680.637L666.123 673.84L652.471 672.812L652.519 672.771ZM685.551 672.504L682.034 665.659C679.974 661.591 677.508 660.326 674.547 661.856C671.634 663.346 671.187 666.101 673.247 670.169L676.763 677.014L685.551 672.504Z" fill="white"/>
<path d="M674.825 716.423L699.625 721.997L708.706 700.363L714.565 711.61L705.538 732.051L721.042 723.97L726.103 733.6L710.599 741.681L732.533 746.001L738.392 757.247L715.445 752.313L705.854 775.854L699.914 764.513L709.111 742.534L692.866 750.998L687.805 741.368L704.05 732.904L680.758 727.853L674.818 716.511L674.825 716.423Z" fill="white"/>
<path d="M727.2 816.061L722.132 806.518L742.004 795.959L746.781 794.444L746.439 793.752L741.28 794.526L714.614 792.256L708.277 780.35L741.352 762.762L746.42 772.305L726.548 782.864L722.186 784.191L722.488 784.836L727.28 784.209L753.986 786.526L760.323 798.432L727.248 816.02L727.2 816.061Z" fill="white"/>
<path d="M740.923 817.848L742.037 817.23L747.307 827.01L746.567 827.393C745.222 828.125 744.56 829.178 744.573 830.642C744.634 832.064 745.356 834.073 746.739 836.667C749.438 841.585 751.942 843.474 754.258 842.245C755.508 841.594 756.082 840.533 756.021 839.111C755.96 837.688 755.191 835.719 753.848 833.173L751.425 828.676L757.918 825.131L760.57 830.089C761.53 831.896 762.58 833.134 763.762 833.851C764.944 834.568 766.001 834.654 766.884 834.15C769.016 832.995 768.895 830.15 766.471 825.653C764.128 821.252 761.683 819.723 759.225 821.073L758.987 821.275L753.676 811.447L754.376 811.017C757.758 809.211 761.165 809.268 764.542 811.317C767.919 813.365 770.917 816.801 773.617 821.718C776.268 826.676 777.683 831.046 777.807 834.955C777.842 838.857 776.379 841.573 773.458 843.151C772.345 843.769 771.212 844.075 770.013 844.11C768.813 844.145 767.812 843.93 766.96 843.506C765.257 842.657 764.049 841.717 763.248 840.676L762.683 840.01L762.268 840.198C762.641 841.602 762.866 842.639 762.985 843.358C763.162 844.436 763.124 845.452 762.997 846.46C762.822 847.51 762.377 848.625 761.579 849.712C760.821 850.846 759.821 851.695 758.612 852.394C752.119 855.939 745.757 851.918 739.56 840.467C733.396 829.151 733.792 821.607 740.883 817.8L740.923 817.848Z" fill="white"/>
<path d="M772.866 899.685L767.655 890.264L779.997 883.475L771.347 867.88L759.006 874.669L753.794 865.248L786.601 847.15L791.812 856.571L779.471 863.36L788.12 878.956L800.462 872.167L805.673 881.588L772.866 899.685Z" fill="white"/>
<path d="M777.978 908.699L810.59 890.276L815.889 899.704L805.713 905.474L809.232 911.743C812.06 916.715 813.178 920.928 812.681 924.299C812.136 927.71 810.002 930.504 806.198 932.586C802.435 934.715 798.992 935.098 795.733 933.768C792.563 932.445 789.543 929.274 786.756 924.349L777.89 908.692L777.978 908.699ZM796.704 923.524C797.908 923.976 799.297 923.78 800.785 922.927C802.273 922.074 803.159 920.994 803.395 919.729C803.631 918.463 803.071 916.645 801.755 914.322L798.887 909.302L789.968 914.332L792.836 919.352C794.152 921.675 795.412 923.063 796.656 923.564L796.704 923.524Z" fill="white"/>
<path d="M828.237 996.289L822.795 986.982L834.942 979.867L825.926 964.418L813.779 971.533L808.337 962.227L840.721 943.341L846.163 952.648L834.016 959.763L843.032 975.211L855.179 968.096L860.621 977.403L828.237 996.289Z" fill="white"/>
<path d="M841.755 998.413C845.064 996.424 848.349 996.339 851.667 998.028C854.938 999.758 857.795 1002.74 860.336 1006.89C861.619 1009.08 862.605 1011.11 863.151 1013.1C863.697 1015.1 863.974 1016.58 863.99 1017.47L863.868 1018.96L868.576 1016.12C869.928 1015.3 870.781 1014.08 871.134 1012.47C871.399 1010.85 870.853 1008.86 869.368 1006.43C868.313 1004.71 867.053 1003.32 865.54 1002.31C863.987 1001.25 862.531 1001.18 861.179 1002L855.488 992.492C859.122 990.308 862.815 990.122 866.43 991.969C870.005 993.768 873.267 997.225 876.311 1002.26C879.396 1007.34 880.756 1011.84 880.473 1015.85C880.189 1019.86 878.114 1023.01 874.154 1025.39L864.132 1031.44C862.828 1032.22 862.019 1032.9 861.704 1033.5C861.39 1034.09 861.508 1034.81 861.931 1035.6L862.982 1036.84L855.291 1041.48C854.406 1040.92 853.396 1039.73 852.26 1037.91C850.815 1035.53 850.236 1033.4 850.523 1031.52C850.748 1029.86 851.153 1028.69 851.746 1027.94L852.094 1027.48L851.73 1027.06C851.73 1027.06 851.466 1027.03 851.066 1027.05C850.626 1027.01 850.065 1026.83 849.206 1026.49C848.388 1026.21 847.496 1025.73 846.659 1025.13C844.39 1023.62 842.2 1021.14 840.138 1017.64C837.88 1013.83 836.76 1010.19 836.919 1006.61C837.031 1003.08 838.67 1000.38 841.836 998.509L841.755 998.413ZM849.353 1017.11C850.327 1018.74 851.411 1020.12 852.652 1021.19C853.813 1022.17 854.731 1022.87 855.468 1023.06L856.463 1023.37L858.372 1022.24C858.372 1022.24 858.51 1021.63 858.539 1021.28C858.534 1020.79 858.349 1019.8 857.896 1018.3C857.45 1016.71 856.699 1015.06 855.685 1013.38C852.64 1008.34 850.096 1006.41 847.996 1007.7C845.944 1008.95 846.397 1012.09 849.393 1017.16L849.353 1017.11Z" fill="white"/>
<path d="M880.79 1062.35L876.091 1054.79C872.959 1049.75 871.768 1045.35 872.565 1041.56C873.315 1037.82 876.115 1034.46 880.831 1031.52L889.793 1025.96L895.465 1035.15L886.503 1040.71C884.452 1041.96 883.313 1043.42 883 1045.08C882.688 1046.74 883.241 1048.64 884.605 1050.92L888.671 1057.55L903.605 1048.31L909.278 1057.51L877.446 1077.23L871.773 1068.04L880.83 1062.4L880.79 1062.35Z" fill="white"/>
<path d="M904.66 1119.91L898.845 1110.84L917.783 1098.7L922.412 1096.82L922.022 1096.17L916.963 1097.35L890.165 1097.24L882.897 1085.88L914.461 1065.64L920.277 1074.71L901.338 1086.85L897.036 1088.54L897.425 1089.19L902.158 1088.21L928.909 1088.36L936.177 1099.72L904.613 1119.95L904.66 1119.91Z" fill="white"/>
<path d="M932.119 1161.24L926.12 1152.24L937.837 1144.43L927.93 1129.57L916.214 1137.39L910.215 1128.39L941.382 1107.59L947.381 1116.59L935.664 1124.4L945.571 1139.26L957.287 1131.44L963.286 1140.44L932.119 1161.24Z" fill="white"/>
<path d="M945.749 1162.53C948.896 1160.35 952.203 1160 955.583 1161.48C958.915 1162.99 962.059 1165.73 964.79 1169.72C966.216 1171.78 967.338 1173.78 968.019 1175.74C968.701 1177.7 969.073 1179.11 969.13 1180.04L969.143 1181.51L973.656 1178.33C974.975 1177.37 975.74 1176.15 975.965 1174.49C976.142 1172.86 975.46 1170.9 973.792 1168.55C972.601 1166.86 971.286 1165.6 969.719 1164.72C968.111 1163.79 966.648 1163.8 965.336 1164.67L958.992 1155.55C962.513 1153.14 966.139 1152.68 969.905 1154.32C973.629 1155.91 977.089 1159.11 980.467 1163.87C983.877 1168.75 985.556 1173.14 985.537 1177.18C985.517 1181.21 983.652 1184.51 979.893 1187.13L970.262 1193.83C969.038 1194.7 968.31 1195.48 967.995 1196.08C967.721 1196.72 967.84 1197.44 968.358 1198.15L969.504 1199.3L962.081 1204.46C961.149 1203.94 960.043 1202.83 958.812 1201.09C957.184 1198.78 956.469 1196.69 956.668 1194.8C956.805 1193.12 957.082 1191.91 957.634 1191.11L957.942 1190.6L957.578 1190.17C957.578 1190.17 957.307 1190.24 956.867 1190.21C956.467 1190.22 955.817 1190.03 954.992 1189.83C954.126 1189.58 953.227 1189.2 952.342 1188.64C949.971 1187.29 947.639 1184.93 945.338 1181.64C942.802 1177.98 941.498 1174.41 941.386 1170.91C941.275 1167.4 942.745 1164.59 945.756 1162.44L945.749 1162.53ZM954.542 1180.71C955.652 1182.31 956.831 1183.6 958.127 1184.55C959.335 1185.49 960.308 1186.06 961.045 1186.25L962.047 1186.46L963.882 1185.15C963.882 1185.15 963.932 1184.54 963.961 1184.18C963.957 1183.7 963.684 1182.7 963.095 1181.23C962.513 1179.68 961.667 1178.1 960.557 1176.51C957.187 1171.67 954.492 1169.94 952.474 1171.32C950.455 1172.71 951.131 1175.82 954.542 1180.71Z" fill="white"/>
<path d="M1005.66 1232.35L1003.23 1233.83L984.863 1208.71C983.027 1210.02 981.989 1211.89 981.794 1214.27C981.512 1216.64 982.326 1219.14 984.237 1221.78C985.354 1223.29 986.548 1224.4 987.939 1225.27C989.25 1226.04 990.332 1226.35 991.084 1226.37L992.188 1226.41L999.16 1235.98C998.881 1236.13 998.467 1236.32 997.924 1236.45C997.287 1236.67 996.256 1236.81 994.657 1236.85C992.963 1236.98 991.25 1236.8 989.687 1236.4C987.956 1235.91 986.003 1234.86 983.829 1233.26C981.527 1231.61 979.445 1229.45 977.446 1226.8C973.657 1221.66 972.002 1216.43 972.427 1211.24C972.859 1205.96 975.522 1201.57 980.424 1197.98C985.325 1194.39 990.344 1193.17 995.48 1194.29C1000.57 1195.46 1005.01 1198.57 1008.8 1203.71C1012.55 1208.81 1014.12 1213.94 1013.74 1219.18C1013.31 1224.38 1010.6 1228.81 1005.7 1232.39L1005.66 1232.35ZM1002.06 1208.61C1000.23 1206.07 998.18 1204.62 995.913 1204.17C993.606 1203.67 991.721 1203.96 990.307 1204.99L1001.9 1220.87C1003.36 1219.8 1004.25 1218.14 1004.48 1215.9C1004.71 1213.57 1003.89 1211.16 1002.02 1208.65L1002.06 1208.61Z" fill="white"/>
<path d="M1023.1 1239.58L1014.57 1228.47L1021.95 1222.78L1045.61 1253.65L1038.23 1259.34L1029.67 1248.18L1007.3 1265.36L1000.69 1256.8L1023.05 1239.62L1023.1 1239.58Z" fill="white"/>
<path d="M1024.15 1279.81C1024.36 1274.55 1026.82 1270.01 1031.56 1266.23C1036.3 1262.37 1041.25 1260.96 1046.41 1261.82C1051.56 1262.69 1056.15 1265.68 1060.14 1270.57C1062.35 1273.27 1063.94 1276.11 1064.81 1278.97C1065.72 1281.88 1066.04 1284.47 1065.73 1286.71C1065.03 1291.39 1063.38 1294.76 1060.77 1296.89L1053.81 1288.3C1054.26 1287.68 1054.68 1286.91 1055.01 1286.05C1055.3 1285.24 1055.5 1284.41 1055.53 1283.48C1055.61 1282.51 1055.4 1281.39 1054.93 1280.07C1054.46 1278.74 1053.8 1277.58 1052.88 1276.4C1050.83 1273.88 1048.54 1272.54 1045.94 1272.37C1043.3 1272.16 1040.8 1272.97 1038.47 1274.86C1036.15 1276.76 1034.77 1278.99 1034.46 1281.63C1034.12 1284.21 1034.93 1286.72 1036.94 1289.27C1038.55 1291.18 1040.27 1292.42 1042.22 1292.98C1044.08 1293.53 1045.57 1293.66 1046.76 1293.22L1048.45 1292.61L1055.41 1301.2C1052.76 1303.37 1049.09 1304.27 1044.43 1303.89C1042.18 1303.75 1039.68 1302.92 1036.97 1301.37C1034.39 1299.87 1031.95 1297.77 1029.73 1295.06C1025.7 1290.13 1023.86 1285.06 1024.07 1279.8L1024.15 1279.81Z" fill="white"/>
<path d="M1055.35 1324.67L1047.76 1315.72L1063.02 1313.34C1062.79 1312.88 1062.64 1311.93 1062.46 1310.46C1062.37 1309.39 1062.4 1308.37 1062.57 1307.41C1062.75 1306.36 1063.2 1305.16 1063.97 1303.85C1064.74 1302.54 1065.72 1301.37 1066.92 1300.28C1073.45 1294.65 1080.25 1296.01 1087.41 1304.35L1100.4 1319.45L1071.99 1343.89L1065 1335.66L1073.82 1328.09L1068.89 1322.28L1055.36 1324.59L1055.35 1324.67ZM1087.39 1316.57L1082.38 1310.67C1079.38 1307.23 1076.64 1306.61 1074.16 1308.8C1071.67 1310.99 1071.89 1313.75 1074.89 1317.19L1079.9 1323.09L1087.43 1316.62L1087.39 1316.57Z" fill="white"/>
<path d="M1097.81 1365.81C1097.57 1360.61 1099.68 1355.86 1104.06 1351.65C1108.43 1347.45 1113.29 1345.54 1118.47 1346.05C1123.71 1346.53 1128.51 1349.09 1132.87 1353.66C1135.28 1356.2 1137.1 1358.83 1138.25 1361.63C1139.43 1364.47 1139.93 1367 1139.84 1369.29C1139.54 1373.96 1138.14 1377.53 1135.69 1379.85L1128.06 1371.83C1128.47 1371.15 1128.8 1370.38 1129.06 1369.43C1129.26 1368.6 1129.37 1367.77 1129.4 1366.84C1129.39 1365.87 1129.09 1364.74 1128.52 1363.49C1127.96 1362.25 1127.21 1361.08 1126.24 1360.03C1124.03 1357.72 1121.56 1356.54 1118.99 1356.6C1116.37 1356.61 1113.94 1357.6 1111.78 1359.69C1109.61 1361.77 1108.49 1364.11 1108.36 1366.76C1108.19 1369.36 1109.23 1371.84 1111.52 1374.15C1113.23 1375.98 1115.1 1377.02 1117.06 1377.4C1118.98 1377.82 1120.49 1377.77 1121.59 1377.24L1123.25 1376.49L1130.88 1384.51C1128.38 1386.88 1124.83 1388.09 1120.17 1388.11C1117.91 1388.15 1115.35 1387.54 1112.53 1386.24C1109.8 1384.96 1107.21 1383.06 1104.8 1380.52C1100.43 1375.95 1098.13 1371.02 1097.85 1365.77L1097.81 1365.81Z" fill="white"/>
<path d="M1139.03 1425.76L1131.12 1418.47L1142.74 1405.82L1144.35 1407.32C1145.54 1408.44 1146.76 1408.72 1148.08 1408.25C1149.4 1407.78 1151.19 1406.51 1153.52 1404.53L1169.25 1391.02L1192.99 1412.81L1173.49 1434.03L1177.28 1437.53L1165.65 1450.19L1157.7 1442.84L1163.49 1436.54L1144.86 1419.42L1139.12 1425.68L1139.03 1425.76ZM1179.16 1411.86L1170.5 1403.88L1159.55 1413.18C1158.42 1414.06 1157.34 1414.72 1156.38 1415.13C1155.37 1415.58 1154.65 1415.7 1154.13 1415.57L1153.53 1415.34L1153.29 1415.54L1165.45 1426.69L1179.12 1411.81L1179.16 1411.86Z" fill="white"/>
<path d="M1177.93 1449.59L1201.45 1420.46L1209.84 1427.26L1202.5 1436.36L1207.11 1440.06C1211.56 1443.66 1214.2 1447.16 1214.99 1450.5C1215.78 1453.84 1214.79 1457.22 1212.03 1460.63C1209.32 1463.99 1206.22 1465.64 1202.76 1465.63C1199.31 1465.61 1195.34 1463.74 1190.93 1460.18L1177.92 1449.68L1177.93 1449.59ZM1199.81 1455.68C1201.14 1455.7 1202.35 1455 1203.48 1453.63C1204.61 1452.26 1204.98 1450.97 1204.69 1449.66C1204.44 1448.4 1203.27 1446.93 1201.15 1445.2L1197.66 1442.35L1191.25 1450.33L1194.74 1453.19C1196.82 1454.86 1198.52 1455.71 1199.81 1455.68ZM1208.35 1474.24L1231.87 1445.1L1240.26 1451.9L1216.74 1481.04L1208.35 1474.24Z" fill="white"/>
<path d="M1247.29 1502.55L1247.6 1486.8L1247.44 1486.61L1232.74 1492.36L1222.47 1485.19L1245.02 1477.19L1245.33 1455.46L1255.39 1462.49L1254.56 1476.47L1254.72 1476.66L1267.63 1471.02L1277.69 1478.05L1257.34 1485.82L1257.55 1509.72L1247.29 1502.55Z" fill="white"/>
<path d="M1267.03 1503.32C1268.98 1500.02 1271.86 1498.4 1275.59 1498.35C1279.27 1498.34 1283.2 1499.59 1287.38 1502.1C1289.53 1503.39 1291.37 1504.78 1292.8 1506.27C1294.22 1507.76 1295.15 1508.94 1295.57 1509.73L1296.17 1511.11L1298.99 1506.42C1299.85 1505.03 1300.02 1503.58 1299.48 1501.99C1298.99 1500.44 1297.52 1498.9 1295.07 1497.46C1293.34 1496.39 1291.53 1495.8 1289.81 1495.61C1287.97 1495.37 1286.63 1496.02 1285.81 1497.37L1276.31 1491.67C1278.56 1488.04 1281.63 1486.17 1285.76 1486.11C1289.8 1486.04 1294.33 1487.52 1299.31 1490.58C1304.37 1493.66 1307.73 1497.03 1309.34 1500.66C1310.99 1504.34 1310.59 1508.12 1308.27 1512.05L1302.22 1522.1C1301.45 1523.41 1301.06 1524.4 1301.05 1525.07C1301.04 1525.73 1301.48 1526.34 1302.19 1526.8L1303.65 1527.36L1298.99 1535.09C1297.93 1535 1296.47 1534.44 1294.62 1533.31C1292.21 1531.83 1290.7 1530.25 1290.09 1528.47C1289.51 1526.91 1289.35 1525.66 1289.47 1524.74L1289.56 1524.17L1289.09 1523.91C1289.09 1523.91 1288.85 1524.11 1288.44 1524.3C1288.07 1524.45 1287.44 1524.57 1286.5 1524.72C1285.61 1524.82 1284.63 1524.83 1283.62 1524.7C1280.9 1524.39 1277.8 1523.25 1274.34 1521.2C1270.54 1518.94 1267.88 1516.19 1266.32 1513.01C1264.81 1509.87 1264.98 1506.7 1266.88 1503.53L1267.03 1503.32ZM1282.49 1516.33C1284.14 1517.3 1285.72 1518.01 1287.33 1518.36C1288.85 1518.71 1289.95 1518.84 1290.67 1518.72L1291.66 1518.54L1292.83 1516.64C1292.83 1516.64 1292.66 1516.05 1292.47 1515.72C1292.24 1515.26 1291.59 1514.5 1290.49 1513.39C1289.3 1512.19 1287.88 1511.09 1286.23 1510.12C1281.17 1507.05 1278.01 1506.61 1276.74 1508.68C1275.46 1510.74 1277.38 1513.29 1282.44 1516.37L1282.49 1516.33Z" fill="white"/>
<path d="M1343.36 1557.15L1333.64 1552.37L1339.86 1539.72L1323.85 1531.85L1317.63 1544.5L1307.92 1539.72L1324.45 1506.11L1334.16 1510.89L1327.94 1523.54L1343.95 1531.41L1350.17 1518.76L1359.88 1523.54L1343.36 1557.15Z" fill="white"/>
<path d="M1393.4 1576.93L1383.35 1573.09L1391.35 1552.13L1393.96 1547.86L1393.23 1547.58L1389.89 1551.56L1368.31 1567.34L1355.72 1562.55L1369.09 1527.53L1379.18 1531.41L1371.17 1552.38L1368.73 1556.26L1369.42 1556.49L1372.59 1552.9L1394.23 1537.07L1406.82 1541.87L1393.45 1576.89L1393.4 1576.93Z" fill="white"/>
<path d="M1415.76 1583.68L1404.49 1580.54L1415.9 1570.04C1415.43 1569.78 1414.78 1569.11 1413.86 1567.92C1413.17 1567.11 1412.62 1566.27 1412.25 1565.36C1411.8 1564.34 1411.5 1563.12 1411.4 1561.65C1411.3 1560.18 1411.47 1558.65 1411.86 1557.08C1414.18 1548.81 1420.6 1546.14 1431.17 1549.05L1450.41 1554.34L1440.42 1590.43L1430.02 1587.55L1433.16 1576.28L1425.79 1574.26L1415.85 1583.6L1415.76 1583.68ZM1437.84 1559.12L1430.43 1557.05C1426.05 1555.85 1423.45 1556.83 1422.52 1559.99C1421.64 1563.2 1423.41 1565.38 1427.79 1566.58L1435.25 1568.61L1437.89 1559.08L1437.84 1559.12Z" fill="white"/>
<path d="M1467.87 1597.11L1486.57 1579.85L1473.87 1560.07L1486.42 1561.63L1498.15 1580.67L1500.32 1563.34L1511.11 1564.67L1508.94 1581.99L1524.93 1566.38L1537.48 1567.93L1520.38 1584.08L1534.33 1605.34L1521.61 1603.77L1508.71 1583.75L1506.52 1601.91L1495.73 1600.59L1497.92 1582.42L1480.55 1598.72L1467.83 1597.15L1467.87 1597.11Z" fill="white"/>
<path d="M1583.45 1605.59L1572.69 1605.46L1572.98 1583.02L1573.95 1578.1L1573.2 1578.08L1571.43 1582.94L1556.62 1605.26L1543.12 1605.08L1543.58 1567.59L1554.33 1567.72L1554.05 1590.16L1553.1 1594.65L1553.86 1594.66L1555.64 1590.2L1570.49 1567.93L1583.99 1568.1L1583.53 1605.6L1583.45 1605.59Z" fill="white"/>
<path d="M1593.52 1594.01L1593.41 1592.71L1604.46 1591.93L1604.52 1592.78C1604.62 1594.34 1605.33 1595.37 1606.66 1595.88C1607.95 1596.43 1610.1 1596.65 1613.05 1596.36C1618.62 1595.97 1621.35 1594.47 1621.22 1591.8C1621.11 1590.42 1620.44 1589.43 1619.11 1588.92C1617.77 1588.41 1615.66 1588.24 1612.76 1588.49L1607.68 1588.87L1607.13 1581.47L1612.75 1581.05C1614.75 1580.9 1616.34 1580.45 1617.47 1579.66C1618.6 1578.87 1619.16 1577.98 1619.07 1576.91C1618.91 1574.51 1616.29 1573.45 1611.17 1573.78C1606.18 1574.17 1603.79 1575.71 1604.01 1578.47L1604.03 1578.78L1592.98 1579.56L1592.95 1578.76C1592.65 1574.93 1594.18 1571.91 1597.47 1569.61C1600.71 1567.35 1605.11 1566.07 1610.68 1565.68C1616.3 1565.25 1620.9 1565.85 1624.46 1567.34C1628.01 1568.91 1629.89 1571.33 1630.15 1574.72C1630.22 1575.96 1630.04 1577.1 1629.6 1578.22C1629.15 1579.33 1628.55 1580.17 1627.8 1580.73C1626.37 1581.94 1624.93 1582.66 1623.71 1582.96L1622.9 1583.16L1622.95 1583.61C1624.35 1583.81 1625.44 1584.03 1626.13 1584.27C1627.21 1584.58 1628.11 1585.05 1628.95 1585.56C1629.88 1586.17 1630.6 1587.03 1631.35 1588.2C1632.06 1589.32 1632.44 1590.63 1632.54 1592.02C1633.05 1599.37 1626.82 1603.51 1613.8 1604.48C1600.96 1605.47 1594.25 1601.91 1593.71 1593.93L1593.52 1594.01Z" fill="white"/>
<path d="M1683.52 1595.52L1672.81 1597.08L1670.8 1583.14L1653.13 1585.68L1655.14 1599.62L1644.42 1601.18L1638.99 1564.1L1649.71 1562.54L1651.72 1576.48L1669.38 1573.94L1667.38 1559.99L1678.09 1558.43L1683.52 1595.52Z" fill="white"/>
<path d="M1695.63 1593.19L1687.86 1556.53L1698.42 1554.29L1700.81 1565.7L1707.89 1564.19C1713.52 1563.02 1717.85 1563.19 1720.92 1564.68C1723.98 1566.18 1726 1569.13 1726.9 1573.37C1727.79 1577.61 1727.11 1581.05 1724.9 1583.66C1722.7 1586.27 1718.77 1588.21 1713.22 1589.4L1695.59 1593.14L1695.63 1593.19ZM1715.38 1579.78C1716.22 1578.74 1716.43 1577.34 1716.07 1575.67C1715.72 1574.01 1714.98 1572.84 1713.79 1572.21C1712.64 1571.63 1710.74 1571.6 1708.13 1572.1L1702.49 1573.28L1704.6 1583.29L1710.23 1582.11C1712.85 1581.53 1714.59 1580.78 1715.38 1579.78Z" fill="white"/>
<path d="M1795.91 1567.63L1785.56 1570.68L1781.62 1557.15L1764.5 1562.18L1768.44 1575.7L1758.09 1578.76L1747.52 1542.84L1757.87 1539.79L1761.81 1553.32L1778.93 1548.29L1774.98 1534.77L1785.34 1531.71L1795.91 1567.63Z" fill="white"/>
<path d="M1802.53 1554.39C1801.24 1550.74 1801.77 1547.5 1804.17 1544.64C1806.53 1541.82 1810.04 1539.58 1814.6 1538.01C1816.97 1537.14 1819.18 1536.65 1821.24 1536.47C1823.33 1536.33 1824.83 1536.36 1825.71 1536.52L1827.13 1536.95L1825.34 1531.75C1824.8 1530.25 1823.78 1529.14 1822.28 1528.53C1820.78 1527.92 1818.69 1528.06 1815.99 1529.04C1814.03 1529.72 1812.45 1530.65 1811.15 1531.92C1809.8 1533.23 1809.42 1534.61 1809.97 1536.12L1799.47 1539.78C1798.08 1535.73 1798.64 1532.14 1801.2 1528.98C1803.72 1525.86 1807.78 1523.31 1813.25 1521.37C1818.87 1519.39 1823.6 1518.98 1827.41 1520.09C1831.26 1521.16 1833.96 1523.86 1835.52 1528.2L1839.4 1539.24C1839.9 1540.7 1840.4 1541.58 1840.94 1542.02C1841.48 1542.47 1842.19 1542.52 1843.01 1542.24L1844.4 1541.46L1847.38 1549.99C1846.65 1550.78 1845.31 1551.51 1843.21 1552.22C1840.56 1553.16 1838.38 1553.29 1836.58 1552.61C1835.03 1552.04 1833.93 1551.42 1833.32 1550.7L1832.96 1550.28L1832.41 1550.5C1832.45 1550.54 1832.38 1550.85 1832.26 1551.19C1832.14 1551.63 1831.87 1552.18 1831.36 1552.94C1830.86 1553.69 1830.27 1554.44 1829.5 1555.18C1827.52 1557.1 1824.64 1558.72 1820.86 1560.05C1816.7 1561.53 1812.87 1561.84 1809.44 1560.98C1806.05 1560.17 1803.7 1557.98 1802.48 1554.52L1802.53 1554.39ZM1822.41 1550.79C1824.24 1550.14 1825.77 1549.33 1827.09 1548.38C1828.36 1547.46 1829.09 1546.68 1829.49 1546L1829.97 1545.11L1829.25 1543.02C1829.25 1543.02 1828.7 1542.75 1828.31 1542.67C1827.82 1542.59 1826.81 1542.55 1825.24 1542.73C1823.59 1542.91 1821.83 1543.25 1820.01 1543.9C1814.44 1545.84 1812.06 1547.95 1812.88 1550.27C1813.67 1552.55 1816.89 1552.77 1822.45 1550.83L1822.41 1550.79Z" fill="white"/>
<path d="M1873.91 1527.97L1865.62 1531.24C1860.08 1533.4 1855.53 1533.82 1851.96 1532.42C1848.4 1531.02 1845.61 1527.74 1843.56 1522.52L1839.66 1512.72L1849.69 1508.71L1853.59 1518.51C1854.47 1520.71 1855.68 1522.14 1857.23 1522.71C1858.82 1523.32 1860.79 1523.13 1863.26 1522.18L1870.49 1519.32L1864.03 1503.01L1874.06 1499L1887.87 1533.81L1877.84 1537.82L1873.91 1527.88L1873.91 1527.97Z" fill="white"/>
<path d="M1934.22 1513.72L1924.34 1518.09L1915.3 1497.5L1914.15 1492.67L1913.41 1492.96L1913.79 1498.13L1909.5 1524.55L1897.14 1529.96L1882.04 1495.67L1891.93 1491.29L1900.97 1511.88L1901.97 1516.35L1902.62 1516.05L1902.39 1511.25L1906.68 1484.84L1919.04 1479.42L1934.14 1513.71L1934.22 1513.72Z" fill="white"/>
<path d="M1978.9 1492.43L1969.17 1497.08L1963.07 1484.4L1946.98 1492.16L1953.07 1504.85L1943.34 1509.5L1927.14 1475.74L1936.87 1471.09L1942.97 1483.77L1959.06 1476.01L1952.97 1463.32L1962.7 1458.67L1978.9 1492.43Z" fill="white"/>
</g>
<defs>
<clipPath id="clip0_50_2013">
<rect width="2493.03" height="1076.83" fill="white" transform="translate(624.975 -563) rotate(49.6763)"/>
</clipPath>
</defs>
</svg>
