<svg width="1219" height="1222" viewBox="0 0 1219 1222" fill="none" xmlns="http://www.w3.org/2000/svg">
<path fill-rule="evenodd" clip-rule="evenodd" d="M612.619 59.8259C627.771 59.8259 640.054 47.5426 640.054 32.3903C640.054 17.238 627.771 4.95461 612.619 4.95461C597.466 4.95461 585.183 17.238 585.183 32.3903C585.183 47.5426 597.466 59.8259 612.619 59.8259ZM612.619 64.7806C630.507 64.7806 645.009 50.2789 645.009 32.3903C645.009 14.5016 630.507 -1.24428e-07 612.619 -8.01583e-08C594.73 -3.58881e-08 580.229 14.5016 580.229 32.3903C580.229 50.2789 594.73 64.7806 612.619 64.7806Z" fill="white"/>
<path fill-rule="evenodd" clip-rule="evenodd" d="M785.369 244.913C800.521 244.913 812.804 232.63 812.804 217.477C812.804 202.325 800.521 190.042 785.369 190.042C770.216 190.042 757.933 202.325 757.933 217.477C757.933 232.63 770.216 244.913 785.369 244.913ZM785.369 249.868C803.257 249.868 817.759 235.366 817.759 217.477C817.759 199.589 803.257 185.087 785.369 185.087C767.48 185.087 752.979 199.589 752.979 217.477C752.979 235.366 767.48 249.868 785.369 249.868Z" fill="white"/>
<path fill-rule="evenodd" clip-rule="evenodd" d="M742.181 297.355C757.334 297.355 769.617 285.071 769.617 269.919C769.617 254.767 757.334 242.483 742.181 242.483C727.029 242.483 714.746 254.767 714.746 269.919C714.746 285.071 727.029 297.355 742.181 297.355ZM742.181 302.309C760.07 302.309 774.572 287.808 774.572 269.919C774.572 252.03 760.07 237.529 742.181 237.529C724.293 237.529 709.791 252.03 709.791 269.919C709.791 287.808 724.293 302.309 742.181 302.309Z" fill="white"/>
<path fill-rule="evenodd" clip-rule="evenodd" d="M736.011 365.22C751.164 365.22 763.447 352.937 763.447 337.784C763.447 322.632 751.164 310.349 736.011 310.349C720.859 310.349 708.576 322.632 708.576 337.784C708.576 352.937 720.859 365.22 736.011 365.22ZM736.011 370.175C753.9 370.175 768.402 355.673 768.402 337.784C768.402 319.896 753.9 305.394 736.011 305.394C718.123 305.394 703.621 319.896 703.621 337.784C703.621 355.673 718.123 370.175 736.011 370.175Z" fill="white"/>
<path fill-rule="evenodd" clip-rule="evenodd" d="M736.011 417.661C751.164 417.661 763.447 405.378 763.447 390.226C763.447 375.073 751.164 362.79 736.011 362.79C720.859 362.79 708.576 375.073 708.576 390.226C708.576 405.378 720.859 417.661 736.011 417.661ZM736.011 422.616C753.9 422.616 768.402 408.114 768.402 390.226C768.402 372.337 753.9 357.835 736.011 357.835C718.123 357.835 703.621 372.337 703.621 390.226C703.621 408.114 718.123 422.616 736.011 422.616Z" fill="white"/>
<path fill-rule="evenodd" clip-rule="evenodd" d="M708.248 491.696C723.4 491.696 735.683 479.413 735.683 464.261C735.683 449.108 723.4 436.825 708.248 436.825C693.095 436.825 680.812 449.108 680.812 464.261C680.812 479.413 693.095 491.696 708.248 491.696ZM708.248 496.651C726.136 496.651 740.638 482.149 740.638 464.261C740.638 446.372 726.136 431.87 708.248 431.87C690.359 431.87 675.857 446.372 675.857 464.261C675.857 482.149 690.359 496.651 708.248 496.651Z" fill="white"/>
<path fill-rule="evenodd" clip-rule="evenodd" d="M708.248 550.307C723.4 550.307 735.683 538.024 735.683 522.871C735.683 507.719 723.4 495.436 708.248 495.436C693.095 495.436 680.812 507.719 680.812 522.871C680.812 538.024 693.095 550.307 708.248 550.307ZM708.248 555.262C726.136 555.262 740.638 540.76 740.638 522.871C740.638 504.983 726.136 490.481 708.248 490.481C690.359 490.481 675.857 504.983 675.857 522.871C675.857 540.76 690.359 555.262 708.248 555.262Z" fill="white"/>
<path fill-rule="evenodd" clip-rule="evenodd" d="M698.994 612.003C714.146 612.003 726.429 599.72 726.429 584.567C726.429 569.415 714.146 557.132 698.994 557.132C683.841 557.132 671.558 569.415 671.558 584.567C671.558 599.72 683.841 612.003 698.994 612.003ZM698.994 616.958C716.882 616.958 731.384 602.456 731.384 584.567C731.384 566.679 716.882 552.177 698.994 552.177C681.105 552.177 666.604 566.679 666.604 584.567C666.604 602.456 681.105 616.958 698.994 616.958Z" fill="white"/>
<path fill-rule="evenodd" clip-rule="evenodd" d="M698.994 679.868C714.146 679.868 726.429 667.585 726.429 652.433C726.429 637.28 714.146 624.997 698.994 624.997C683.841 624.997 671.558 637.28 671.558 652.433C671.558 667.585 683.841 679.868 698.994 679.868ZM698.994 684.823C716.882 684.823 731.384 670.321 731.384 652.433C731.384 634.544 716.882 620.042 698.994 620.042C681.105 620.042 666.604 634.544 666.604 652.433C666.604 670.321 681.105 684.823 698.994 684.823Z" fill="white"/>
<path fill-rule="evenodd" clip-rule="evenodd" d="M720.588 741.564C735.74 741.564 748.023 729.281 748.023 714.128C748.023 698.976 735.74 686.693 720.588 686.693C705.435 686.693 693.152 698.976 693.152 714.128C693.152 729.281 705.435 741.564 720.588 741.564ZM720.588 746.519C738.476 746.519 752.978 732.017 752.978 714.128C752.978 696.24 738.476 681.738 720.588 681.738C702.699 681.738 688.197 696.24 688.197 714.128C688.197 732.017 702.699 746.519 720.588 746.519Z" fill="white"/>
<path fill-rule="evenodd" clip-rule="evenodd" d="M729.841 809.429C744.994 809.429 757.277 797.146 757.277 781.994C757.277 766.841 744.994 754.558 729.841 754.558C714.689 754.558 702.406 766.841 702.406 781.994C702.406 797.146 714.689 809.429 729.841 809.429ZM729.841 814.384C747.73 814.384 762.232 799.882 762.232 781.994C762.232 764.105 747.73 749.603 729.841 749.603C711.953 749.603 697.451 764.105 697.451 781.994C697.451 799.882 711.953 814.384 729.841 814.384Z" fill="white"/>
<path fill-rule="evenodd" clip-rule="evenodd" d="M732.927 871.125C748.08 871.125 760.363 858.842 760.363 843.689C760.363 828.537 748.08 816.254 732.927 816.254C717.775 816.254 705.492 828.537 705.492 843.689C705.492 858.842 717.775 871.125 732.927 871.125ZM732.927 876.08C750.816 876.08 765.318 861.578 765.318 843.689C765.318 825.801 750.816 811.299 732.927 811.299C715.039 811.299 700.537 825.801 700.537 843.689C700.537 861.578 715.039 876.08 732.927 876.08Z" fill="white"/>
<path fill-rule="evenodd" clip-rule="evenodd" d="M751.435 929.736C766.588 929.736 778.871 917.453 778.871 902.3C778.871 887.148 766.588 874.865 751.435 874.865C736.283 874.865 724 887.148 724 902.3C724 917.453 736.283 929.736 751.435 929.736ZM751.435 934.691C769.324 934.691 783.825 920.189 783.825 902.3C783.825 884.412 769.324 869.91 751.435 869.91C733.547 869.91 719.045 884.412 719.045 902.3C719.045 920.189 733.547 934.691 751.435 934.691Z" fill="white"/>
<path fill-rule="evenodd" clip-rule="evenodd" d="M769.943 988.347C785.095 988.347 797.379 976.064 797.379 960.911C797.379 945.759 785.095 933.476 769.943 933.476C754.791 933.476 742.507 945.759 742.507 960.911C742.507 976.064 754.791 988.347 769.943 988.347ZM769.943 993.302C787.832 993.302 802.333 978.8 802.333 960.911C802.333 943.023 787.832 928.521 769.943 928.521C752.054 928.521 737.553 943.023 737.553 960.911C737.553 978.8 752.054 993.302 769.943 993.302Z" fill="white"/>
<path fill-rule="evenodd" clip-rule="evenodd" d="M779.199 1050.04C794.351 1050.04 806.635 1037.76 806.635 1022.61C806.635 1007.45 794.351 995.172 779.199 995.172C764.047 995.172 751.763 1007.45 751.763 1022.61C751.763 1037.76 764.047 1050.04 779.199 1050.04ZM779.199 1055C797.088 1055 811.589 1040.5 811.589 1022.61C811.589 1004.72 797.088 990.217 779.199 990.217C761.31 990.217 746.809 1004.72 746.809 1022.61C746.809 1040.5 761.31 1055 779.199 1055Z" fill="white"/>
<path fill-rule="evenodd" clip-rule="evenodd" d="M806.961 1114.82C822.113 1114.82 834.396 1102.54 834.396 1087.39C834.396 1072.24 822.113 1059.95 806.961 1059.95C791.808 1059.95 779.525 1072.24 779.525 1087.39C779.525 1102.54 791.808 1114.82 806.961 1114.82ZM806.961 1119.78C824.849 1119.78 839.351 1105.28 839.351 1087.39C839.351 1069.5 824.849 1055 806.961 1055C789.072 1055 774.57 1069.5 774.57 1087.39C774.57 1105.28 789.072 1119.78 806.961 1119.78Z" fill="white"/>
<path fill-rule="evenodd" clip-rule="evenodd" d="M871.742 1136.42C886.894 1136.42 899.178 1124.13 899.178 1108.98C899.178 1093.83 886.894 1081.55 871.742 1081.55C856.59 1081.55 844.306 1093.83 844.306 1108.98C844.306 1124.13 856.59 1136.42 871.742 1136.42ZM871.742 1141.37C889.63 1141.37 904.132 1126.87 904.132 1108.98C904.132 1091.09 889.63 1076.59 871.742 1076.59C853.853 1076.59 839.352 1091.09 839.352 1108.98C839.352 1126.87 853.853 1141.37 871.742 1141.37Z" fill="white"/>
<path fill-rule="evenodd" clip-rule="evenodd" d="M936.523 1161.1C951.675 1161.1 963.959 1148.81 963.959 1133.66C963.959 1118.51 951.675 1106.22 936.523 1106.22C921.371 1106.22 909.087 1118.51 909.087 1133.66C909.087 1148.81 921.371 1161.1 936.523 1161.1ZM936.523 1166.05C954.412 1166.05 968.913 1151.55 968.913 1133.66C968.913 1115.77 954.412 1101.27 936.523 1101.27C918.634 1101.27 904.133 1115.77 904.133 1133.66C904.133 1151.55 918.634 1166.05 936.523 1166.05Z" fill="white"/>
<path fill-rule="evenodd" clip-rule="evenodd" d="M982.795 1213.54C997.947 1213.54 1010.23 1201.25 1010.23 1186.1C1010.23 1170.95 997.947 1158.67 982.795 1158.67C967.642 1158.67 955.359 1170.95 955.359 1186.1C955.359 1201.25 967.642 1213.54 982.795 1213.54ZM982.795 1218.49C1000.68 1218.49 1015.18 1203.99 1015.18 1186.1C1015.18 1168.21 1000.68 1153.71 982.795 1153.71C964.906 1153.71 950.404 1168.21 950.404 1186.1C950.404 1203.99 964.906 1218.49 982.795 1218.49Z" fill="white"/>
<path fill-rule="evenodd" clip-rule="evenodd" d="M1053.75 1213.54C1068.9 1213.54 1081.18 1201.25 1081.18 1186.1C1081.18 1170.95 1068.9 1158.67 1053.75 1158.67C1038.59 1158.67 1026.31 1170.95 1026.31 1186.1C1026.31 1201.25 1038.59 1213.54 1053.75 1213.54ZM1053.75 1218.49C1071.63 1218.49 1086.14 1203.99 1086.14 1186.1C1086.14 1168.21 1071.63 1153.71 1053.75 1153.71C1035.86 1153.71 1021.36 1168.21 1021.36 1186.1C1021.36 1203.99 1035.86 1218.49 1053.75 1218.49Z" fill="white"/>
<path fill-rule="evenodd" clip-rule="evenodd" d="M1124.69 1216.62C1139.85 1216.62 1152.13 1204.34 1152.13 1189.19C1152.13 1174.03 1139.85 1161.75 1124.69 1161.75C1109.54 1161.75 1097.26 1174.03 1097.26 1189.19C1097.26 1204.34 1109.54 1216.62 1124.69 1216.62ZM1124.69 1221.58C1142.58 1221.58 1157.09 1207.07 1157.09 1189.19C1157.09 1171.3 1142.58 1156.8 1124.69 1156.8C1106.81 1156.8 1092.3 1171.3 1092.3 1189.19C1092.3 1207.07 1106.81 1221.58 1124.69 1221.58Z" fill="white"/>
<path fill-rule="evenodd" clip-rule="evenodd" d="M1183.31 1188.86C1198.46 1188.86 1210.74 1176.57 1210.74 1161.42C1210.74 1146.27 1198.46 1133.99 1183.31 1133.99C1168.15 1133.99 1155.87 1146.27 1155.87 1161.42C1155.87 1176.57 1168.15 1188.86 1183.31 1188.86ZM1183.31 1193.81C1201.19 1193.81 1215.7 1179.31 1215.7 1161.42C1215.7 1143.53 1201.19 1129.03 1183.31 1129.03C1165.42 1129.03 1150.92 1143.53 1150.92 1161.42C1150.92 1179.31 1165.42 1193.81 1183.31 1193.81Z" fill="white"/>
<path fill-rule="evenodd" clip-rule="evenodd" d="M1183.31 1124.08C1198.46 1124.08 1210.74 1111.79 1210.74 1096.64C1210.74 1081.49 1198.46 1069.21 1183.31 1069.21C1168.15 1069.21 1155.87 1081.49 1155.87 1096.64C1155.87 1111.79 1168.15 1124.08 1183.31 1124.08ZM1183.31 1129.03C1201.19 1129.03 1215.7 1114.53 1215.7 1096.64C1215.7 1078.75 1201.19 1064.25 1183.31 1064.25C1165.42 1064.25 1150.92 1078.75 1150.92 1096.64C1150.92 1114.53 1165.42 1129.03 1183.31 1129.03Z" fill="white"/>
<path fill-rule="evenodd" clip-rule="evenodd" d="M1186.39 1059.3C1201.54 1059.3 1213.83 1047.01 1213.83 1031.86C1213.83 1016.71 1201.54 1004.43 1186.39 1004.43C1171.24 1004.43 1158.95 1016.71 1158.95 1031.86C1158.95 1047.01 1171.24 1059.3 1186.39 1059.3ZM1186.39 1064.25C1204.28 1064.25 1218.78 1049.75 1218.78 1031.86C1218.78 1013.97 1204.28 999.471 1186.39 999.471C1168.5 999.471 1154 1013.97 1154 1031.86C1154 1049.75 1168.5 1064.25 1186.39 1064.25Z" fill="white"/>
<path fill-rule="evenodd" clip-rule="evenodd" d="M1180.22 991.432C1195.37 991.432 1207.66 979.149 1207.66 963.996C1207.66 948.844 1195.37 936.561 1180.22 936.561C1165.07 936.561 1152.79 948.844 1152.79 963.996C1152.79 979.149 1165.07 991.432 1180.22 991.432ZM1180.22 996.387C1198.11 996.387 1212.61 981.885 1212.61 963.996C1212.61 946.108 1198.11 931.606 1180.22 931.606C1162.33 931.606 1147.83 946.108 1147.83 963.996C1147.83 981.885 1162.33 996.387 1180.22 996.387Z" fill="white"/>
<path fill-rule="evenodd" clip-rule="evenodd" d="M1180.22 920.482C1195.37 920.482 1207.66 908.198 1207.66 893.046C1207.66 877.894 1195.37 865.61 1180.22 865.61C1165.07 865.61 1152.79 877.894 1152.79 893.046C1152.79 908.198 1165.07 920.482 1180.22 920.482ZM1180.22 925.436C1198.11 925.436 1212.61 910.935 1212.61 893.046C1212.61 875.157 1198.11 860.656 1180.22 860.656C1162.33 860.656 1147.83 875.157 1147.83 893.046C1147.83 910.935 1162.33 925.436 1180.22 925.436Z" fill="white"/>
<path fill-rule="evenodd" clip-rule="evenodd" d="M1177.14 855.701C1192.29 855.701 1204.57 843.418 1204.57 828.266C1204.57 813.113 1192.29 800.83 1177.14 800.83C1161.98 800.83 1149.7 813.113 1149.7 828.266C1149.7 843.418 1161.98 855.701 1177.14 855.701ZM1177.14 860.656C1195.03 860.656 1209.53 846.154 1209.53 828.266C1209.53 810.377 1195.03 795.875 1177.14 795.875C1159.25 795.875 1144.75 810.377 1144.75 828.266C1144.75 846.154 1159.25 860.656 1177.14 860.656Z" fill="white"/>
<path fill-rule="evenodd" clip-rule="evenodd" d="M1177.14 787.836C1192.29 787.836 1204.57 775.553 1204.57 760.4C1204.57 745.248 1192.29 732.965 1177.14 732.965C1161.98 732.965 1149.7 745.248 1149.7 760.4C1149.7 775.553 1161.98 787.836 1177.14 787.836ZM1177.14 792.791C1195.03 792.791 1209.53 778.289 1209.53 760.4C1209.53 742.512 1195.03 728.01 1177.14 728.01C1159.25 728.01 1144.75 742.512 1144.75 760.4C1144.75 778.289 1159.25 792.791 1177.14 792.791Z" fill="white"/>
<path fill-rule="evenodd" clip-rule="evenodd" d="M1174.05 726.14C1189.2 726.14 1201.49 713.857 1201.49 698.704C1201.49 683.552 1189.2 671.269 1174.05 671.269C1158.9 671.269 1146.62 683.552 1146.62 698.704C1146.62 713.857 1158.9 726.14 1174.05 726.14ZM1174.05 731.095C1191.94 731.095 1206.44 716.593 1206.44 698.704C1206.44 680.816 1191.94 666.314 1174.05 666.314C1156.16 666.314 1141.66 680.816 1141.66 698.704C1141.66 716.593 1156.16 731.095 1174.05 731.095Z" fill="white"/>
<path fill-rule="evenodd" clip-rule="evenodd" d="M1158.63 655.19C1173.78 655.19 1186.06 642.906 1186.06 627.754C1186.06 612.602 1173.78 600.318 1158.63 600.318C1143.47 600.318 1131.19 612.602 1131.19 627.754C1131.19 642.906 1143.47 655.19 1158.63 655.19ZM1158.63 660.144C1176.52 660.144 1191.02 645.643 1191.02 627.754C1191.02 609.866 1176.52 595.364 1158.63 595.364C1140.74 595.364 1126.24 609.866 1126.24 627.754C1126.24 645.643 1140.74 660.144 1158.63 660.144Z" fill="white"/>
<path fill-rule="evenodd" clip-rule="evenodd" d="M1130.86 596.579C1146.02 596.579 1158.3 584.296 1158.3 569.143C1158.3 553.991 1146.02 541.708 1130.86 541.708C1115.71 541.708 1103.43 553.991 1103.43 569.143C1103.43 584.296 1115.71 596.579 1130.86 596.579ZM1130.86 601.533C1148.75 601.533 1163.26 587.032 1163.26 569.143C1163.26 551.255 1148.75 536.753 1130.86 536.753C1112.98 536.753 1098.47 551.255 1098.47 569.143C1098.47 587.032 1112.98 601.533 1130.86 601.533Z" fill="white"/>
<path fill-rule="evenodd" clip-rule="evenodd" d="M1115.44 553.392C1130.59 553.392 1142.88 541.109 1142.88 525.956C1142.88 510.804 1130.59 498.521 1115.44 498.521C1100.29 498.521 1088.01 510.804 1088.01 525.956C1088.01 541.109 1100.29 553.392 1115.44 553.392ZM1115.44 558.347C1133.33 558.347 1147.83 543.845 1147.83 525.956C1147.83 508.068 1133.33 493.566 1115.44 493.566C1097.55 493.566 1083.05 508.068 1083.05 525.956C1083.05 543.845 1097.55 558.347 1115.44 558.347Z" fill="white"/>
<path fill-rule="evenodd" clip-rule="evenodd" d="M1081.51 507.12C1096.66 507.12 1108.94 494.837 1108.94 479.684C1108.94 464.532 1096.66 452.249 1081.51 452.249C1066.36 452.249 1054.07 464.532 1054.07 479.684C1054.07 494.837 1066.36 507.12 1081.51 507.12ZM1081.51 512.075C1099.4 512.075 1113.9 497.573 1113.9 479.684C1113.9 461.796 1099.4 447.294 1081.51 447.294C1063.62 447.294 1049.12 461.796 1049.12 479.684C1049.12 497.573 1063.62 512.075 1081.51 512.075Z" fill="white"/>
<path fill-rule="evenodd" clip-rule="evenodd" d="M1053.75 448.509C1068.9 448.509 1081.18 436.226 1081.18 421.074C1081.18 405.921 1068.9 393.638 1053.75 393.638C1038.59 393.638 1026.31 405.921 1026.31 421.074C1026.31 436.226 1038.59 448.509 1053.75 448.509ZM1053.75 453.464C1071.63 453.464 1086.14 438.962 1086.14 421.074C1086.14 403.185 1071.63 388.683 1053.75 388.683C1035.86 388.683 1021.36 403.185 1021.36 421.074C1021.36 438.962 1035.86 453.464 1053.75 453.464Z" fill="white"/>
<path fill-rule="evenodd" clip-rule="evenodd" d="M1038.32 408.407C1053.47 408.407 1065.76 396.124 1065.76 380.971C1065.76 365.819 1053.47 353.536 1038.32 353.536C1023.17 353.536 1010.88 365.819 1010.88 380.971C1010.88 396.124 1023.17 408.407 1038.32 408.407ZM1038.32 413.362C1056.21 413.362 1070.71 398.86 1070.71 380.971C1070.71 363.083 1056.21 348.581 1038.32 348.581C1020.43 348.581 1005.93 363.083 1005.93 380.971C1005.93 398.86 1020.43 413.362 1038.32 413.362Z" fill="white"/>
<path fill-rule="evenodd" clip-rule="evenodd" d="M850.148 272.676C865.3 272.676 877.584 260.393 877.584 245.241C877.584 230.088 865.3 217.805 850.148 217.805C834.996 217.805 822.712 230.088 822.712 245.241C822.712 260.393 834.996 272.676 850.148 272.676ZM850.148 277.631C868.037 277.631 882.538 263.129 882.538 245.241C882.538 227.352 868.037 212.85 850.148 212.85C832.259 212.85 817.758 227.352 817.758 245.241C817.758 263.129 832.259 277.631 850.148 277.631Z" fill="white"/>
<path fill-rule="evenodd" clip-rule="evenodd" d="M896.42 297.355C911.572 297.355 923.855 285.071 923.855 269.919C923.855 254.767 911.572 242.483 896.42 242.483C881.267 242.483 868.984 254.767 868.984 269.919C868.984 285.071 881.267 297.355 896.42 297.355ZM896.42 302.309C914.308 302.309 928.81 287.808 928.81 269.919C928.81 252.03 914.308 237.529 896.42 237.529C878.531 237.529 864.029 252.03 864.029 269.919C864.029 287.808 878.531 302.309 896.42 302.309Z" fill="white"/>
<path fill-rule="evenodd" clip-rule="evenodd" d="M942.693 340.542C957.845 340.542 970.129 328.258 970.129 313.106C970.129 297.954 957.845 285.67 942.693 285.67C927.541 285.67 915.257 297.954 915.257 313.106C915.257 328.258 927.541 340.542 942.693 340.542ZM942.693 345.496C960.582 345.496 975.083 330.995 975.083 313.106C975.083 295.217 960.582 280.716 942.693 280.716C924.804 280.716 910.303 295.217 910.303 313.106C910.303 330.995 924.804 345.496 942.693 345.496Z" fill="white"/>
<path fill-rule="evenodd" clip-rule="evenodd" d="M992.048 380.644C1007.2 380.644 1019.48 368.36 1019.48 353.208C1019.48 338.056 1007.2 325.773 992.048 325.773C976.896 325.773 964.613 338.056 964.613 353.208C964.613 368.36 976.896 380.644 992.048 380.644ZM992.048 385.598C1009.94 385.598 1024.44 371.097 1024.44 353.208C1024.44 335.32 1009.94 320.818 992.048 320.818C974.16 320.818 959.658 335.32 959.658 353.208C959.658 371.097 974.16 385.598 992.048 385.598Z" fill="white"/>
<path fill-rule="evenodd" clip-rule="evenodd" d="M612.619 124.606C627.771 124.606 640.054 112.323 640.054 97.1708C640.054 82.0185 627.771 69.7351 612.619 69.7351C597.466 69.7351 585.183 82.0185 585.183 97.1708C585.183 112.323 597.466 124.606 612.619 124.606ZM612.619 129.561C630.507 129.561 645.009 115.059 645.009 97.1708C645.009 79.2821 630.507 64.7805 612.619 64.7805C594.73 64.7805 580.229 79.2821 580.229 97.1708C580.229 115.059 594.73 129.561 612.619 129.561Z" fill="white"/>
<path fill-rule="evenodd" clip-rule="evenodd" d="M612.619 189.387C627.771 189.387 640.054 177.104 640.054 161.951C640.054 146.799 627.771 134.516 612.619 134.516C597.466 134.516 585.183 146.799 585.183 161.951C585.183 177.104 597.466 189.387 612.619 189.387ZM612.619 194.342C630.507 194.342 645.009 179.84 645.009 161.951C645.009 144.063 630.507 129.561 612.619 129.561C594.73 129.561 580.229 144.063 580.229 161.951C580.229 179.84 594.73 194.342 612.619 194.342Z" fill="white"/>
<path fill-rule="evenodd" clip-rule="evenodd" d="M449.127 238.744C464.279 238.744 476.562 226.46 476.562 211.308C476.562 196.156 464.279 183.872 449.127 183.872C433.974 183.872 421.691 196.156 421.691 211.308C421.691 226.46 433.974 238.744 449.127 238.744ZM449.127 243.698C467.015 243.698 481.517 229.197 481.517 211.308C481.517 193.419 467.015 178.918 449.127 178.918C431.238 178.918 416.736 193.419 416.736 211.308C416.736 229.197 431.238 243.698 449.127 243.698Z" fill="white"/>
<path fill-rule="evenodd" clip-rule="evenodd" d="M483.058 266.507C498.211 266.507 510.494 254.223 510.494 239.071C510.494 223.919 498.211 211.635 483.058 211.635C467.906 211.635 455.623 223.919 455.623 239.071C455.623 254.223 467.906 266.507 483.058 266.507ZM483.058 271.461C500.947 271.461 515.449 256.96 515.449 239.071C515.449 221.182 500.947 206.681 483.058 206.681C465.17 206.681 450.668 221.182 450.668 239.071C450.668 256.96 465.17 271.461 483.058 271.461Z" fill="white"/>
<path fill-rule="evenodd" clip-rule="evenodd" d="M516.992 318.948C532.144 318.948 544.428 306.665 544.428 291.512C544.428 276.36 532.144 264.077 516.992 264.077C501.84 264.077 489.556 276.36 489.556 291.512C489.556 306.665 501.84 318.948 516.992 318.948ZM516.992 323.903C534.88 323.903 549.382 309.401 549.382 291.512C549.382 273.624 534.88 259.122 516.992 259.122C499.103 259.122 484.602 273.624 484.602 291.512C484.602 309.401 499.103 323.903 516.992 323.903Z" fill="white"/>
<path fill-rule="evenodd" clip-rule="evenodd" d="M532.416 383.729C547.568 383.729 559.851 371.445 559.851 356.293C559.851 341.141 547.568 328.857 532.416 328.857C517.263 328.857 504.98 341.141 504.98 356.293C504.98 371.445 517.263 383.729 532.416 383.729ZM532.416 388.683C550.304 388.683 564.806 374.182 564.806 356.293C564.806 338.404 550.304 323.903 532.416 323.903C514.527 323.903 500.025 338.404 500.025 356.293C500.025 374.182 514.527 388.683 532.416 388.683Z" fill="white"/>
<path fill-rule="evenodd" clip-rule="evenodd" d="M535.5 451.594C550.652 451.594 562.935 439.311 562.935 424.158C562.935 409.006 550.652 396.723 535.5 396.723C520.347 396.723 508.064 409.006 508.064 424.158C508.064 439.311 520.347 451.594 535.5 451.594ZM535.5 456.549C553.388 456.549 567.89 442.047 567.89 424.158C567.89 406.27 553.388 391.768 535.5 391.768C517.611 391.768 503.109 406.27 503.109 424.158C503.109 442.047 517.611 456.549 535.5 456.549Z" fill="white"/>
<path fill-rule="evenodd" clip-rule="evenodd" d="M535.5 556.477C550.652 556.477 562.935 544.193 562.935 529.041C562.935 513.889 550.652 501.605 535.5 501.605C520.347 501.605 508.064 513.889 508.064 529.041C508.064 544.193 520.347 556.477 535.5 556.477ZM535.5 561.431C553.388 561.431 567.89 546.93 567.89 529.041C567.89 511.152 553.388 496.651 535.5 496.651C517.611 496.651 503.109 511.152 503.109 529.041C503.109 546.93 517.611 561.431 535.5 561.431Z" fill="white"/>
<path fill-rule="evenodd" clip-rule="evenodd" d="M535.5 624.342C550.652 624.342 562.935 612.059 562.935 596.906C562.935 581.754 550.652 569.471 535.5 569.471C520.347 569.471 508.064 581.754 508.064 596.906C508.064 612.059 520.347 624.342 535.5 624.342ZM535.5 629.297C553.388 629.297 567.89 614.795 567.89 596.906C567.89 579.018 553.388 564.516 535.5 564.516C517.611 564.516 503.109 579.018 503.109 596.906C503.109 614.795 517.611 629.297 535.5 629.297Z" fill="white"/>
<path fill-rule="evenodd" clip-rule="evenodd" d="M535.5 686.038C550.652 686.038 562.935 673.754 562.935 658.602C562.935 643.45 550.652 631.167 535.5 631.167C520.347 631.167 508.064 643.45 508.064 658.602C508.064 673.754 520.347 686.038 535.5 686.038ZM535.5 690.992C553.388 690.992 567.89 676.491 567.89 658.602C567.89 640.714 553.388 626.212 535.5 626.212C517.611 626.212 503.109 640.714 503.109 658.602C503.109 676.491 517.611 690.992 535.5 690.992Z" fill="white"/>
<path fill-rule="evenodd" clip-rule="evenodd" d="M535.5 747.734C550.652 747.734 562.935 735.45 562.935 720.298C562.935 705.146 550.652 692.862 535.5 692.862C520.347 692.862 508.064 705.146 508.064 720.298C508.064 735.45 520.347 747.734 535.5 747.734ZM535.5 752.688C553.388 752.688 567.89 738.187 567.89 720.298C567.89 702.409 553.388 687.908 535.5 687.908C517.611 687.908 503.109 702.409 503.109 720.298C503.109 738.187 517.611 752.688 535.5 752.688Z" fill="white"/>
<path fill-rule="evenodd" clip-rule="evenodd" d="M523.16 809.429C538.312 809.429 550.595 797.146 550.595 781.994C550.595 766.841 538.312 754.558 523.16 754.558C508.008 754.558 495.724 766.841 495.724 781.994C495.724 797.146 508.008 809.429 523.16 809.429ZM523.16 814.384C541.048 814.384 555.55 799.882 555.55 781.994C555.55 764.105 541.048 749.603 523.16 749.603C505.271 749.603 490.77 764.105 490.77 781.994C490.77 799.882 505.271 814.384 523.16 814.384Z" fill="white"/>
<path fill-rule="evenodd" clip-rule="evenodd" d="M516.992 871.125C532.144 871.125 544.428 858.842 544.428 843.689C544.428 828.537 532.144 816.254 516.992 816.254C501.84 816.254 489.556 828.537 489.556 843.689C489.556 858.842 501.84 871.125 516.992 871.125ZM516.992 876.08C534.88 876.08 549.382 861.578 549.382 843.689C549.382 825.801 534.88 811.299 516.992 811.299C499.103 811.299 484.602 825.801 484.602 843.689C484.602 861.578 499.103 876.08 516.992 876.08Z" fill="white"/>
<path fill-rule="evenodd" clip-rule="evenodd" d="M513.906 935.906C529.058 935.906 541.342 923.622 541.342 908.47C541.342 893.318 529.058 881.034 513.906 881.034C498.754 881.034 486.47 893.318 486.47 908.47C486.47 923.622 498.754 935.906 513.906 935.906ZM513.906 940.86C531.795 940.86 546.296 926.359 546.296 908.47C546.296 890.581 531.795 876.08 513.906 876.08C496.017 876.08 481.516 890.581 481.516 908.47C481.516 926.359 496.017 940.86 513.906 940.86Z" fill="white"/>
<path fill-rule="evenodd" clip-rule="evenodd" d="M495.398 994.517C510.55 994.517 522.834 982.233 522.834 967.081C522.834 951.929 510.55 939.645 495.398 939.645C480.246 939.645 467.962 951.929 467.962 967.081C467.962 982.233 480.246 994.517 495.398 994.517ZM495.398 999.471C513.287 999.471 527.788 984.97 527.788 967.081C527.788 949.192 513.287 934.691 495.398 934.691C477.509 934.691 463.008 949.192 463.008 967.081C463.008 984.97 477.509 999.471 495.398 999.471Z" fill="white"/>
<path fill-rule="evenodd" clip-rule="evenodd" d="M489.228 1053.13C504.38 1053.13 516.664 1040.84 516.664 1025.69C516.664 1010.54 504.38 998.256 489.228 998.256C474.076 998.256 461.792 1010.54 461.792 1025.69C461.792 1040.84 474.076 1053.13 489.228 1053.13ZM489.228 1058.08C507.117 1058.08 521.618 1043.58 521.618 1025.69C521.618 1007.8 507.117 993.302 489.228 993.302C471.34 993.302 456.838 1007.8 456.838 1025.69C456.838 1043.58 471.34 1058.08 489.228 1058.08Z" fill="white"/>
<path fill-rule="evenodd" clip-rule="evenodd" d="M461.464 1105.57C476.617 1105.57 488.9 1093.29 488.9 1078.13C488.9 1062.98 476.617 1050.7 461.464 1050.7C446.312 1050.7 434.029 1062.98 434.029 1078.13C434.029 1093.29 446.312 1105.57 461.464 1105.57ZM461.464 1110.52C479.353 1110.52 493.855 1096.02 493.855 1078.13C493.855 1060.24 479.353 1045.74 461.464 1045.74C443.576 1045.74 429.074 1060.24 429.074 1078.13C429.074 1096.02 443.576 1110.52 461.464 1110.52Z" fill="white"/>
<path fill-rule="evenodd" clip-rule="evenodd" d="M399.769 1130.25C414.921 1130.25 427.205 1117.96 427.205 1102.81C427.205 1087.66 414.921 1075.38 399.769 1075.38C384.617 1075.38 372.334 1087.66 372.334 1102.81C372.334 1117.96 384.617 1130.25 399.769 1130.25ZM399.769 1135.2C417.658 1135.2 432.159 1120.7 432.159 1102.81C432.159 1084.92 417.658 1070.42 399.769 1070.42C381.881 1070.42 367.379 1084.92 367.379 1102.81C367.379 1120.7 381.881 1135.2 399.769 1135.2Z" fill="white"/>
<path fill-rule="evenodd" clip-rule="evenodd" d="M331.904 1145.67C347.056 1145.67 359.34 1133.39 359.34 1118.24C359.34 1103.08 347.056 1090.8 331.904 1090.8C316.752 1090.8 304.468 1103.08 304.468 1118.24C304.468 1133.39 316.752 1145.67 331.904 1145.67ZM331.904 1150.63C349.793 1150.63 364.294 1136.12 364.294 1118.24C364.294 1100.35 349.793 1085.85 331.904 1085.85C314.015 1085.85 299.514 1100.35 299.514 1118.24C299.514 1136.12 314.015 1150.63 331.904 1150.63Z" fill="white"/>
<path fill-rule="evenodd" clip-rule="evenodd" d="M264.039 1167.26C279.191 1167.26 291.474 1154.98 291.474 1139.83C291.474 1124.68 279.191 1112.39 264.039 1112.39C248.886 1112.39 236.603 1124.68 236.603 1139.83C236.603 1154.98 248.886 1167.26 264.039 1167.26ZM264.039 1172.22C281.927 1172.22 296.429 1157.72 296.429 1139.83C296.429 1121.94 281.927 1107.44 264.039 1107.44C246.15 1107.44 231.648 1121.94 231.648 1139.83C231.648 1157.72 246.15 1172.22 264.039 1172.22Z" fill="white"/>
<path fill-rule="evenodd" clip-rule="evenodd" d="M196.173 1173.43C211.326 1173.43 223.609 1161.15 223.609 1146C223.609 1130.85 211.326 1118.56 196.173 1118.56C181.021 1118.56 168.738 1130.85 168.738 1146C168.738 1161.15 181.021 1173.43 196.173 1173.43ZM196.173 1178.39C214.062 1178.39 228.564 1163.89 228.564 1146C228.564 1128.11 214.062 1113.61 196.173 1113.61C178.285 1113.61 163.783 1128.11 163.783 1146C163.783 1163.89 178.285 1178.39 196.173 1178.39Z" fill="white"/>
<path fill-rule="evenodd" clip-rule="evenodd" d="M128.308 1188.86C143.461 1188.86 155.744 1176.57 155.744 1161.42C155.744 1146.27 143.461 1133.99 128.308 1133.99C113.156 1133.99 100.873 1146.27 100.873 1161.42C100.873 1176.57 113.156 1188.86 128.308 1188.86ZM128.308 1193.81C146.197 1193.81 160.699 1179.31 160.699 1161.42C160.699 1143.53 146.197 1129.03 128.308 1129.03C110.42 1129.03 95.918 1143.53 95.918 1161.42C95.918 1179.31 110.42 1193.81 128.308 1193.81Z" fill="white"/>
<path fill-rule="evenodd" clip-rule="evenodd" d="M60.443 1195.03C75.5953 1195.03 87.8787 1182.74 87.8787 1167.59C87.8787 1152.44 75.5953 1140.16 60.443 1140.16C45.2907 1140.16 33.0073 1152.44 33.0073 1167.59C33.0073 1182.74 45.2907 1195.03 60.443 1195.03ZM60.443 1199.98C78.3317 1199.98 92.8333 1185.48 92.8333 1167.59C92.8333 1149.7 78.3317 1135.2 60.443 1135.2C42.5544 1135.2 28.0527 1149.7 28.0527 1167.59C28.0527 1185.48 42.5544 1199.98 60.443 1199.98Z" fill="white"/>
<path fill-rule="evenodd" clip-rule="evenodd" d="M35.7653 1136.42C50.9176 1136.42 63.2009 1124.13 63.2009 1108.98C63.2009 1093.83 50.9176 1081.55 35.7653 1081.55C20.613 1081.55 8.32961 1093.83 8.32961 1108.98C8.32961 1124.13 20.613 1136.42 35.7653 1136.42ZM35.7653 1141.37C53.6539 1141.37 68.1556 1126.87 68.1556 1108.98C68.1556 1091.09 53.6539 1076.59 35.7653 1076.59C17.8766 1076.59 3.375 1091.09 3.375 1108.98C3.375 1126.87 17.8766 1141.37 35.7653 1141.37Z" fill="white"/>
<path fill-rule="evenodd" clip-rule="evenodd" d="M54.2731 1080.89C69.4254 1080.89 81.7088 1068.61 81.7088 1053.46C81.7088 1038.3 69.4254 1026.02 54.2731 1026.02C39.1208 1026.02 26.8374 1038.3 26.8374 1053.46C26.8374 1068.61 39.1208 1080.89 54.2731 1080.89ZM54.2731 1085.85C72.1617 1085.85 86.6634 1071.34 86.6634 1053.46C86.6634 1035.57 72.1617 1021.06 54.2731 1021.06C36.3844 1021.06 21.8828 1035.57 21.8828 1053.46C21.8828 1071.34 36.3844 1085.85 54.2731 1085.85Z" fill="white"/>
<path fill-rule="evenodd" clip-rule="evenodd" d="M60.443 1016.11C75.5953 1016.11 87.8787 1003.83 87.8787 988.674C87.8787 973.522 75.5953 961.239 60.443 961.239C45.2907 961.239 33.0073 973.522 33.0073 988.674C33.0073 1003.83 45.2907 1016.11 60.443 1016.11ZM60.443 1021.06C78.3317 1021.06 92.8333 1006.56 92.8333 988.674C92.8333 970.786 78.3317 956.284 60.443 956.284C42.5544 956.284 28.0527 970.786 28.0527 988.674C28.0527 1006.56 42.5544 1021.06 60.443 1021.06Z" fill="white"/>
<path fill-rule="evenodd" clip-rule="evenodd" d="M63.527 948.245C78.6793 948.245 90.9627 935.961 90.9627 920.809C90.9627 905.657 78.6793 893.373 63.527 893.373C48.3747 893.373 36.0913 905.657 36.0913 920.809C36.0913 935.961 48.3747 948.245 63.527 948.245ZM63.527 953.199C81.4157 953.199 95.9173 938.698 95.9173 920.809C95.9173 902.921 81.4157 888.419 63.527 888.419C45.6383 888.419 31.1367 902.921 31.1367 920.809C31.1367 938.698 45.6383 953.199 63.527 953.199Z" fill="white"/>
<path fill-rule="evenodd" clip-rule="evenodd" d="M54.2731 889.634C69.4254 889.634 81.7088 877.351 81.7088 862.198C81.7088 847.046 69.4254 834.763 54.2731 834.763C39.1208 834.763 26.8374 847.046 26.8374 862.198C26.8374 877.351 39.1208 889.634 54.2731 889.634ZM54.2731 894.588C72.1617 894.588 86.6634 880.087 86.6634 862.198C86.6634 844.31 72.1617 829.808 54.2731 829.808C36.3844 829.808 21.8828 844.31 21.8828 862.198C21.8828 880.087 36.3844 894.588 54.2731 894.588Z" fill="white"/>
<path fill-rule="evenodd" clip-rule="evenodd" d="M35.7653 834.108C50.9176 834.108 63.2009 821.824 63.2009 806.672C63.2009 791.52 50.9176 779.236 35.7653 779.236C20.613 779.236 8.32961 791.52 8.32961 806.672C8.32961 821.824 20.613 834.108 35.7653 834.108ZM35.7653 839.062C53.6539 839.062 68.1556 824.561 68.1556 806.672C68.1556 788.783 53.6539 774.282 35.7653 774.282C17.8766 774.282 3.375 788.783 3.375 806.672C3.375 824.561 17.8766 839.062 35.7653 839.062Z" fill="white"/>
<path fill-rule="evenodd" clip-rule="evenodd" d="M32.6793 769.327C47.8316 769.327 60.115 757.044 60.115 741.891C60.115 726.739 47.8316 714.456 32.6793 714.456C17.527 714.456 5.24367 726.739 5.24367 741.891C5.24367 757.044 17.527 769.327 32.6793 769.327ZM32.6793 774.282C50.568 774.282 65.0696 759.78 65.0696 741.891C65.0696 724.003 50.568 709.501 32.6793 709.501C14.7907 709.501 0.289063 724.003 0.289063 741.891C0.289063 759.78 14.7907 774.282 32.6793 774.282Z" fill="white"/>
<path fill-rule="evenodd" clip-rule="evenodd" d="M69.6969 710.716C84.8492 710.716 97.1326 698.433 97.1326 683.281C97.1326 668.128 84.8492 655.845 69.6969 655.845C54.5446 655.845 42.2612 668.128 42.2612 683.281C42.2612 698.433 54.5446 710.716 69.6969 710.716ZM69.6969 715.671C87.5856 715.671 102.087 701.169 102.087 683.281C102.087 665.392 87.5856 650.89 69.6969 650.89C51.8083 650.89 37.3066 665.392 37.3066 683.281C37.3066 701.169 51.8083 715.671 69.6969 715.671Z" fill="white"/>
<path fill-rule="evenodd" clip-rule="evenodd" d="M100.545 655.19C115.697 655.19 127.98 642.906 127.98 627.754C127.98 612.602 115.697 600.318 100.545 600.318C85.3923 600.318 73.1089 612.602 73.1089 627.754C73.1089 642.906 85.3923 655.19 100.545 655.19ZM100.545 660.144C118.433 660.144 132.935 645.643 132.935 627.754C132.935 609.866 118.433 595.364 100.545 595.364C82.6559 595.364 68.1543 609.866 68.1543 627.754C68.1543 645.643 82.6559 660.144 100.545 660.144Z" fill="white"/>
<path fill-rule="evenodd" clip-rule="evenodd" d="M115.968 590.409C131.121 590.409 143.404 578.126 143.404 562.974C143.404 547.821 131.121 535.538 115.968 535.538C100.816 535.538 88.5327 547.821 88.5327 562.974C88.5327 578.126 100.816 590.409 115.968 590.409ZM115.968 595.364C133.857 595.364 148.359 580.862 148.359 562.974C148.359 545.085 133.857 530.583 115.968 530.583C98.0797 530.583 83.5781 545.085 83.5781 562.974C83.5781 580.862 98.0797 595.364 115.968 595.364Z" fill="white"/>
<path fill-rule="evenodd" clip-rule="evenodd" d="M119.052 525.629C134.205 525.629 146.488 513.345 146.488 498.193C146.488 483.041 134.205 470.758 119.052 470.758C103.9 470.758 91.6167 483.041 91.6167 498.193C91.6167 513.345 103.9 525.629 119.052 525.629ZM119.052 530.583C136.941 530.583 151.443 516.082 151.443 498.193C151.443 480.305 136.941 465.803 119.052 465.803C101.164 465.803 86.6621 480.305 86.6621 498.193C86.6621 516.082 101.164 530.583 119.052 530.583Z" fill="white"/>
<path fill-rule="evenodd" clip-rule="evenodd" d="M137.562 457.764C152.714 457.764 164.998 445.48 164.998 430.328C164.998 415.176 152.714 402.892 137.562 402.892C122.41 402.892 110.126 415.176 110.126 430.328C110.126 445.48 122.41 457.764 137.562 457.764ZM137.562 462.718C155.451 462.718 169.952 448.217 169.952 430.328C169.952 412.439 155.451 397.938 137.562 397.938C119.673 397.938 105.172 412.439 105.172 430.328C105.172 448.217 119.673 462.718 137.562 462.718Z" fill="white"/>
<path fill-rule="evenodd" clip-rule="evenodd" d="M180.75 405.322C195.902 405.322 208.185 393.039 208.185 377.886C208.185 362.734 195.902 350.451 180.75 350.451C165.597 350.451 153.314 362.734 153.314 377.886C153.314 393.039 165.597 405.322 180.75 405.322ZM180.75 410.277C198.638 410.277 213.14 395.775 213.14 377.886C213.14 359.998 198.638 345.496 180.75 345.496C162.861 345.496 148.359 359.998 148.359 377.886C148.359 395.775 162.861 410.277 180.75 410.277Z" fill="white"/>
<path fill-rule="evenodd" clip-rule="evenodd" d="M233.191 352.881C248.343 352.881 260.627 340.597 260.627 325.445C260.627 310.293 248.343 298.009 233.191 298.009C218.039 298.009 205.755 310.293 205.755 325.445C205.755 340.597 218.039 352.881 233.191 352.881ZM233.191 357.835C251.08 357.835 265.581 343.334 265.581 325.445C265.581 307.556 251.08 293.055 233.191 293.055C215.302 293.055 200.801 307.556 200.801 325.445C200.801 343.334 215.302 357.835 233.191 357.835Z" fill="white"/>
<path fill-rule="evenodd" clip-rule="evenodd" d="M294.886 315.863C310.039 315.863 322.322 303.58 322.322 288.428C322.322 273.275 310.039 260.992 294.886 260.992C279.734 260.992 267.451 273.275 267.451 288.428C267.451 303.58 279.734 315.863 294.886 315.863ZM294.886 320.818C312.775 320.818 327.277 306.316 327.277 288.428C327.277 270.539 312.775 256.037 294.886 256.037C276.998 256.037 262.496 270.539 262.496 288.428C262.496 306.316 276.998 320.818 294.886 320.818Z" fill="white"/>
<path fill-rule="evenodd" clip-rule="evenodd" d="M338.074 272.676C353.226 272.676 365.51 260.393 365.51 245.241C365.51 230.088 353.226 217.805 338.074 217.805C322.922 217.805 310.638 230.088 310.638 245.241C310.638 260.393 322.922 272.676 338.074 272.676ZM338.074 277.631C355.963 277.631 370.464 263.129 370.464 245.241C370.464 227.352 355.963 212.85 338.074 212.85C320.185 212.85 305.684 227.352 305.684 245.241C305.684 263.129 320.185 277.631 338.074 277.631Z" fill="white"/>
<path fill-rule="evenodd" clip-rule="evenodd" d="M390.515 238.744C405.668 238.744 417.951 226.46 417.951 211.308C417.951 196.156 405.668 183.872 390.515 183.872C375.363 183.872 363.08 196.156 363.08 211.308C363.08 226.46 375.363 238.744 390.515 238.744ZM390.515 243.698C408.404 243.698 422.906 229.197 422.906 211.308C422.906 193.419 408.404 178.918 390.515 178.918C372.627 178.918 358.125 193.419 358.125 211.308C358.125 229.197 372.627 243.698 390.515 243.698Z" fill="white"/>
<path fill-rule="evenodd" clip-rule="evenodd" d="M612.619 254.168C627.771 254.168 640.054 241.884 640.054 226.732C640.054 211.58 627.771 199.296 612.619 199.296C597.466 199.296 585.183 211.58 585.183 226.732C585.183 241.884 597.466 254.168 612.619 254.168ZM612.619 259.122C630.507 259.122 645.009 244.621 645.009 226.732C645.009 208.843 630.507 194.342 612.619 194.342C594.73 194.342 580.229 208.843 580.229 226.732C580.229 244.621 594.73 259.122 612.619 259.122Z" fill="white"/>
<path fill-rule="evenodd" clip-rule="evenodd" d="M612.619 318.948C627.771 318.948 640.054 306.665 640.054 291.512C640.054 276.36 627.771 264.077 612.619 264.077C597.466 264.077 585.183 276.36 585.183 291.512C585.183 306.665 597.466 318.948 612.619 318.948ZM612.619 323.903C630.507 323.903 645.009 309.401 645.009 291.512C645.009 273.624 630.507 259.122 612.619 259.122C594.73 259.122 580.229 273.624 580.229 291.512C580.229 309.401 594.73 323.903 612.619 323.903Z" fill="white"/>
<path fill-rule="evenodd" clip-rule="evenodd" d="M612.619 383.729C627.771 383.729 640.054 371.445 640.054 356.293C640.054 341.141 627.771 328.857 612.619 328.857C597.466 328.857 585.183 341.141 585.183 356.293C585.183 371.445 597.466 383.729 612.619 383.729ZM612.619 388.683C630.507 388.683 645.009 374.182 645.009 356.293C645.009 338.404 630.507 323.903 612.619 323.903C594.73 323.903 580.229 338.404 580.229 356.293C580.229 374.182 594.73 388.683 612.619 388.683Z" fill="white"/>
<path fill-rule="evenodd" clip-rule="evenodd" d="M612.619 448.509C627.771 448.509 640.054 436.226 640.054 421.074C640.054 405.921 627.771 393.638 612.619 393.638C597.466 393.638 585.183 405.921 585.183 421.074C585.183 436.226 597.466 448.509 612.619 448.509ZM612.619 453.464C630.507 453.464 645.009 438.962 645.009 421.074C645.009 403.185 630.507 388.683 612.619 388.683C594.73 388.683 580.229 403.185 580.229 421.074C580.229 438.962 594.73 453.464 612.619 453.464Z" fill="white"/>
<path fill-rule="evenodd" clip-rule="evenodd" d="M658.892 491.696C674.045 491.696 686.328 479.413 686.328 464.261C686.328 449.108 674.045 436.825 658.892 436.825C643.74 436.825 631.457 449.108 631.457 464.261C631.457 479.413 643.74 491.696 658.892 491.696ZM658.892 496.651C676.781 496.651 691.283 482.149 691.283 464.261C691.283 446.372 676.781 431.87 658.892 431.87C641.004 431.87 626.502 446.372 626.502 464.261C626.502 482.149 641.004 496.651 658.892 496.651Z" fill="white"/>
<path fill-rule="evenodd" clip-rule="evenodd" d="M566.349 504.035C581.502 504.035 593.785 491.752 593.785 476.6C593.785 461.447 581.502 449.164 566.349 449.164C551.197 449.164 538.914 461.447 538.914 476.6C538.914 491.752 551.197 504.035 566.349 504.035ZM566.349 508.99C584.238 508.99 598.74 494.488 598.74 476.6C598.74 458.711 584.238 444.209 566.349 444.209C548.461 444.209 533.959 458.711 533.959 476.6C533.959 494.488 548.461 508.99 566.349 508.99Z" fill="white"/>
</svg>
