<svg width="741" height="736" viewBox="0 0 741 736" fill="none" xmlns="http://www.w3.org/2000/svg">
<g filter="url(#filter0_f_47_1095)">
<path d="M391.291 425.544C440.708 394.03 506.315 408.543 537.829 457.96C569.343 507.377 554.83 572.984 505.413 604.498C455.996 636.012 390.389 621.499 358.875 572.082C327.361 522.666 341.874 457.058 391.291 425.544Z" fill="white"/>
</g>
<g filter="url(#filter1_f_47_1095)">
<path fill-rule="evenodd" clip-rule="evenodd" d="M537.07 458.444C505.823 409.447 440.773 395.057 391.775 426.304C342.778 457.55 328.388 522.601 359.634 571.598C390.881 620.595 455.931 634.985 504.929 603.739C553.926 572.492 568.316 507.442 537.07 458.444ZM537.829 457.96C506.315 408.543 440.708 394.03 391.291 425.544C341.874 457.058 327.361 522.666 358.875 572.082C390.389 621.499 455.996 636.012 505.413 604.498C554.83 572.984 569.343 507.377 537.829 457.96Z" fill="#1800DE"/>
</g>
<g filter="url(#filter2_f_47_1095)">
<path fill-rule="evenodd" clip-rule="evenodd" d="M564.096 468.176C523.317 404.231 438.423 385.452 374.479 426.23C310.534 467.008 291.755 551.903 332.533 615.847C373.312 679.792 458.206 698.571 522.15 657.793C586.095 617.014 604.874 532.12 564.096 468.176ZM566.375 466.722C524.794 401.519 438.228 382.37 373.025 423.951C307.823 465.532 288.673 552.098 330.254 617.301C371.835 682.503 458.401 701.653 523.604 660.072C588.807 618.491 607.956 531.925 566.375 466.722Z" fill="white"/>
</g>
<g filter="url(#filter3_f_47_1095)">
<path fill-rule="evenodd" clip-rule="evenodd" d="M309.131 257.357C268.352 193.412 183.458 174.633 119.513 215.411C55.569 256.189 36.7894 341.084 77.5678 405.028C118.346 468.973 203.241 487.752 267.185 446.974C331.129 406.195 349.909 321.301 309.131 257.357ZM311.409 255.903C269.828 190.7 183.263 171.551 118.06 213.132C52.8572 254.713 33.7079 341.279 75.289 406.482C116.87 471.684 203.435 490.834 268.638 449.253C333.841 407.672 352.991 321.106 311.409 255.903Z" fill="white"/>
</g>
<g filter="url(#filter4_f_47_1095)">
<path fill-rule="evenodd" clip-rule="evenodd" d="M612.313 199.049C543.596 91.295 395.422 62.6151 281.254 135.422C167.087 208.228 130.594 354.674 199.31 462.428C268.027 570.182 416.201 598.862 530.368 526.055C644.536 453.249 681.029 306.803 612.313 199.049ZM614.592 197.596C544.998 88.4665 395.107 59.6101 279.801 133.143C164.495 206.676 127.438 354.752 197.031 463.881C266.625 573.01 416.516 601.867 531.822 528.334C647.128 454.801 684.185 306.725 614.592 197.596Z" fill="white"/>
</g>
<g filter="url(#filter5_f_47_1095)">
<path d="M304.883 176.584C390.333 122.091 503.78 147.186 558.273 232.636C612.766 318.086 587.67 431.533 502.22 486.026C416.77 540.519 303.324 515.423 248.831 429.973C194.338 344.523 219.433 231.077 304.883 176.584Z" fill="#1800DE"/>
</g>
<g filter="url(#filter6_f_47_1095)">
<path fill-rule="evenodd" clip-rule="evenodd" d="M557.513 233.121C503.288 148.09 390.398 123.118 305.368 177.343C220.337 231.569 195.365 344.458 249.59 429.489C303.816 514.519 416.705 539.492 501.736 485.266C586.766 431.041 611.739 318.151 557.513 233.121ZM558.273 232.636C503.78 147.186 390.333 122.091 304.883 176.584C219.433 231.077 194.338 344.523 248.831 429.973C303.324 515.423 416.77 540.519 502.22 486.026C587.67 431.533 612.766 318.086 558.273 232.636Z" fill="white"/>
</g>
<g filter="url(#filter7_f_47_1095)">
<path d="M148.939 230.942C198.356 199.428 263.964 213.941 295.478 263.358C326.992 312.775 312.479 378.382 263.062 409.896C213.645 441.41 148.037 426.897 116.523 377.48C85.0091 328.063 99.5223 262.456 148.939 230.942Z" fill="white"/>
</g>
<g filter="url(#filter8_f_47_1095)">
<path fill-rule="evenodd" clip-rule="evenodd" d="M294.718 263.842C263.472 214.845 198.421 200.455 149.424 231.701C100.426 262.948 86.0363 327.998 117.283 376.996C148.529 425.993 213.58 440.383 262.577 409.137C311.575 377.89 325.965 312.84 294.718 263.842ZM295.478 263.358C263.964 213.941 198.356 199.428 148.939 230.942C99.5223 262.456 85.0091 328.063 116.523 377.48C148.037 426.897 213.645 441.41 263.062 409.896C312.479 378.382 326.992 312.775 295.478 263.358Z" fill="#1800DE"/>
</g>
<defs>
<filter id="filter0_f_47_1095" x="312.215" y="378.885" width="272.273" height="272.273" filterUnits="userSpaceOnUse" color-interpolation-filters="sRGB">
<feFlood flood-opacity="0" result="BackgroundImageFix"/>
<feBlend mode="normal" in="SourceGraphic" in2="BackgroundImageFix" result="shape"/>
<feGaussianBlur stdDeviation="15" result="effect1_foregroundBlur_47_1095"/>
</filter>
<filter id="filter1_f_47_1095" x="292.215" y="358.885" width="312.273" height="312.273" filterUnits="userSpaceOnUse" color-interpolation-filters="sRGB">
<feFlood flood-opacity="0" result="BackgroundImageFix"/>
<feBlend mode="normal" in="SourceGraphic" in2="BackgroundImageFix" result="shape"/>
<feGaussianBlur stdDeviation="25" result="effect1_foregroundBlur_47_1095"/>
</filter>
<filter id="filter2_f_47_1095" x="305.273" y="398.97" width="286.083" height="286.083" filterUnits="userSpaceOnUse" color-interpolation-filters="sRGB">
<feFlood flood-opacity="0" result="BackgroundImageFix"/>
<feBlend mode="normal" in="SourceGraphic" in2="BackgroundImageFix" result="shape"/>
<feGaussianBlur stdDeviation="1.5" result="effect1_foregroundBlur_47_1095"/>
</filter>
<filter id="filter3_f_47_1095" x="50.3076" y="188.151" width="286.083" height="286.083" filterUnits="userSpaceOnUse" color-interpolation-filters="sRGB">
<feFlood flood-opacity="0" result="BackgroundImageFix"/>
<feBlend mode="normal" in="SourceGraphic" in2="BackgroundImageFix" result="shape"/>
<feGaussianBlur stdDeviation="1.5" result="effect1_foregroundBlur_47_1095"/>
</filter>
<filter id="filter4_f_47_1095" x="158.915" y="89.4474" width="493.793" height="482.582" filterUnits="userSpaceOnUse" color-interpolation-filters="sRGB">
<feFlood flood-opacity="0" result="BackgroundImageFix"/>
<feBlend mode="normal" in="SourceGraphic" in2="BackgroundImageFix" result="shape"/>
<feGaussianBlur stdDeviation="1.5" result="effect1_foregroundBlur_47_1095"/>
</filter>
<filter id="filter5_f_47_1095" x="175.024" y="102.777" width="457.056" height="457.056" filterUnits="userSpaceOnUse" color-interpolation-filters="sRGB">
<feFlood flood-opacity="0" result="BackgroundImageFix"/>
<feBlend mode="normal" in="SourceGraphic" in2="BackgroundImageFix" result="shape"/>
<feGaussianBlur stdDeviation="22.5" result="effect1_foregroundBlur_47_1095"/>
</filter>
<filter id="filter6_f_47_1095" x="167.424" y="95.1767" width="472.256" height="472.256" filterUnits="userSpaceOnUse" color-interpolation-filters="sRGB">
<feFlood flood-opacity="0" result="BackgroundImageFix"/>
<feBlend mode="normal" in="SourceGraphic" in2="BackgroundImageFix" result="shape"/>
<feGaussianBlur stdDeviation="26.3" result="effect1_foregroundBlur_47_1095"/>
</filter>
<filter id="filter7_f_47_1095" x="69.8638" y="184.282" width="272.273" height="272.273" filterUnits="userSpaceOnUse" color-interpolation-filters="sRGB">
<feFlood flood-opacity="0" result="BackgroundImageFix"/>
<feBlend mode="normal" in="SourceGraphic" in2="BackgroundImageFix" result="shape"/>
<feGaussianBlur stdDeviation="15" result="effect1_foregroundBlur_47_1095"/>
</filter>
<filter id="filter8_f_47_1095" x="49.8638" y="164.282" width="312.273" height="312.273" filterUnits="userSpaceOnUse" color-interpolation-filters="sRGB">
<feFlood flood-opacity="0" result="BackgroundImageFix"/>
<feBlend mode="normal" in="SourceGraphic" in2="BackgroundImageFix" result="shape"/>
<feGaussianBlur stdDeviation="25" result="effect1_foregroundBlur_47_1095"/>
</filter>
</defs>
</svg>
